<svg xmlns="http://www.w3.org/2000/svg" viewBox="0 0 3778.57 1472.74"><defs><style>.cls-1{fill:#291977;}.cls-2{fill:#060502;}.cls-3{fill:#281977;}.cls-4{fill:#fbc032;}.cls-5{fill:#fabf31;}.cls-6{fill:#5c360c;}.cls-7{fill:#af9324;}.cls-8{fill:#83731b;}.cls-9{fill:#745c16;}</style></defs><g id="Capa_2" data-name="Capa 2"><g id="Capa_1-2" data-name="Capa 1"><g id="_2v1HtB.tif" data-name="2v1HtB.tif"><path class="cls-1" d="M3778.57,1382.8c-.63,1-1.68,2-1.83,3.09-3.39,24-6.68,48-10.07,72.62h-242c19.5-143.07,39-285.79,58.5-429h112.75c-15.25,114-30.44,227.44-45.71,341.53a50.13,50.13,0,0,0,5.58.69q58.47,0,116.93,0a37.86,37.86,0,0,0,5.83-.88Z"/><path class="cls-2" d="M2122.57,1055.59c-26.86-2.3-53.83-3.75-80.56-7.09-39.61-4.94-79.13-10.8-118.56-17-59.79-9.47-118.88-22.42-177.59-37.16-13.21-3.31-26.34-6.93-39.57-10.2a94.11,94.11,0,0,0-13.74-2.33C1641.84,977,1591,973,1540.41,967.54c-76.13-8.25-151.33-22.11-225.86-39.68-77.07-18.16-152.65-41.22-227.22-67.78-9.26-3.3-19.28-5-29.11-6.14C918.64,838,786,799.26,662.31,732.13c-40.59-22-79.89-46.43-119.77-69.77a9,9,0,0,1-4.24-4.65q19.71,5.89,39.42,11.8c52.5,15.84,104.48,33.73,158.32,44.62,36.5,7.39,73.23,14,110.14,18.87,41.24,5.38,82.75,9,124.24,12.09,41.84,3.14,83.79,5,125.71,6.92,173.12,7.7,346.33,9.54,519.57,6.94,77.93-1.17,155.85-4,233.73-7.12,66.22-2.68,132.38-6.85,198.56-10.52,19-1,37.88-2.62,56.81-4,2.5-.18,5-.78,8.37-1.34-14.75-13.07-28.9-25.09-42.47-37.74-35.36-33-65.76-69.66-84.73-114.71-18-42.78-22.82-87.32-15.87-133,1.8-11.78.45-21.18-5.65-31.67-24.6-42.28-33.62-88.55-31.22-137.07.44-8.88-2.4-14.32-8.79-20.33-41.79-39.32-66.5-87.23-71.85-144.86-3.61-38.82,1.54-76.7,9.7-116.6,2,3.17,3,4.57,3.76,6.12,34.12,72.2,84.81,130.75,147.67,179.35,45.16,34.92,94.07,63.87,144.41,90.44,90.85,48,182.06,95.23,272.88,143.24,51.46,27.21,101.94,56.17,150.27,88.69,40.11,27,78.4,56.3,111.48,91.83,26.3,28.24,48.07,59.42,60.75,96.27,2.16,6.27,4,12.65,6.24,19.83,3,0,6.3,0,9.58,0,63.63.81,127.23,3,190.65,8.3s126.49,13.07,188.16,29.56c26.07,7,51.64,15.44,75.32,28.53a222.4,222.4,0,0,1,29.69,20.06,36.37,36.37,0,0,0,15.9,7.24c18.22,3.79,36.48,7.52,54.46,12.25a155.72,155.72,0,0,1,47.19,21c26.26,17.51,38.66,42.08,37.76,74.86-3.65,0-7.15.05-10.64,0-26-.5-52-1.51-77.93-1.45-69.29.18-138.54,2.24-207.7,6.8-43.53,2.87-87.1,5.4-130.57,9-54.74,4.51-109.42,9.82-164.1,15-42.75,4.05-85.46,8.43-128.18,12.71-11.92,1.2-23.85,2.4-35.72,3.94a19.82,19.82,0,0,0-8.1,3.26c-53.37,35.39-112.48,56.69-174.54,70.45-21.71,4.81-43.75,8.17-65.63,12.19-3-1.31-6.09-2.44-9-4-19.29-10.35-39.61-17.7-61.28-21.15,15.55-1.65,31.11-3.25,46.65-5,52.43-5.85,103.94-15.88,153.59-34.16,38-14,73.93-31.95,105.56-57.56,57.1-46.25,86.38-104.79,80.31-179.53-2-25-9.32-47.34-24.21-67.45a426.9,426.9,0,0,0-52.75-58.5,1025.42,1025.42,0,0,0-212.2-151.8c-59.72-32.22-120.41-62.66-180.22-94.72-74.24-39.81-147.2-81.84-216.39-130-36.67-25.54-71.89-52.86-102-86.12C1903,125.84,1880.33,88,1870.74,43.17c-.32-1.52-1.53-2.86-2.33-4.29a256.19,256.19,0,0,0,.38,31.29c2.54,40.73,15.36,78,37.83,112.05,20.56,31.12,46.75,57.09,75,81.06,40.9,34.67,84,66.53,127.7,97.53A2136.7,2136.7,0,0,0,2355.29,511.3c47.26,24.73,92.85,52.19,134.44,85.82,28.36,22.93,54.21,48.26,73.54,79.52,23.49,38,32,78.46,19.35,122.19-8.27,28.59-23.47,53.45-41.89,76.52l-3.29.3c10.08-23,17.3-46.78,18.94-72,2.44-37.36-8.5-70.92-29.67-101.4-21-30.18-48.15-54.14-77.25-76-40-30.06-82.57-56.14-125.05-82.4-78.14-48.3-157.14-95.25-232.88-147.34-50.25-34.55-99.09-70.89-143.87-112.42-2.82-2.62-5.8-5.07-10.31-9,1.37,6.28,2.19,10.45,3.2,14.57,13.17,53.77,41.94,98.8,78.51,139.41,31.52,35,66.69,66.12,104.16,94.46,48.58,36.75,98.05,72.32,147.05,108.5,40.74,30.09,80.44,61.42,115.89,97.79,15.26,15.66,28.54,32.43,34.93,53.83C2437.94,840,2405.35,900,2367.6,923.43c-2.07,1.28-4.35,2.22-6.71,3.4,7-14.79,14.67-28.48,20.26-43,19.8-51.3,10.72-97.12-27.52-137-12.29-12.83-26.34-23.4-40.78-33.57-61-42.94-121.88-86-180.35-132.31-53.3-42.25-104.4-86.89-149.47-138-.73-.84-1.94-1.25-3.67-2.3-.28,17,1.7,32.8,4.73,48.43,7.53,38.84,24,73.89,46.45,106.19,35.82,51.6,79.89,95.14,130.14,132.77,20.21,15.14,39.41,31.66,58.75,47.93,9,7.61,15.19,17.49,19.52,28.55,17.81,45.51-3.44,99.87-49,122.77a448.31,448.31,0,0,1-52.35,22c-65.27,23-133.2,32.14-201.87,35.41-47.22,2.26-94.57,1.75-141.87,2.5-2.38,0-4.76.26-7.14.39,136.9,24.8,274.39,42.53,413.67,42.75-12.92,4.84-26.16,9-38.66,14.72S2137.18,1057.74,2122.57,1055.59Zm-993.2-192.31c32.2,8.3,64.31,17,96.63,24.84,93.92,22.77,189.11,38.36,285.13,48.94,61.25,6.75,122.7,11.7,184.31,13.09q82.9,1.86,165.87,1c62.67-.71,125-6.19,186.69-17.88,31.1-5.9,61.78-13.43,90.92-26.14,19.41-8.47,37.11-19.5,51.1-35.73,19.58-22.73,20.46-47.86,2.35-71.83-11-14.59-25.69-24.94-41-34.57a23.74,23.74,0,0,0-15.07-3.8c-12.28.89-24.6,1.44-36.9,2.07-31.59,1.62-63.19,3.15-94.78,4.82-44.89,2.37-89.77,4.91-134.66,7.24-21.28,1.1-42.58,1.89-63.88,2.78-57.23,2.4-114.45,5.11-171.69,7.05-44.28,1.5-88.58,2.38-132.88,2.9-56,.65-112,1.71-167.89.67-65.91-1.23-131.81-4.19-197.68-7-32.92-1.43-65.84-3.59-98.63-6.74-47-4.53-94-9.6-140.87-15.72-34.61-4.51-69-10.66-103.39-16.82-45.86-8.23-91-19.56-135.72-32.67L641,704l-.68,1.69,13.06,5.89c11.09,5.33,22.07,10.91,33.29,15.94,91.86,41.17,188.08,68.23,286.54,87.92,85.94,17.2,172.78,28.18,260,35.8q117.45,10.24,235.29,14.79c92.58,3.46,185.16,4.3,277.73,1.08,51.25-1.78,102.46-4.79,153.63-8.16,32.88-2.16,65.65-5.86,98.46-9.07,19.54-1.91,39-4.2,58.57-6.32l10.15,1.94c-19.37,4.71-38.64,9.88-58.13,14-58.08,12.38-117,18.42-176.2,21.36-52.86,2.63-105.82,3.91-158.74,4.45-89.26.91-178.48-1.58-267.65-5.58-33.6-1.5-67.22-2.55-100.75-4.93-56.76-4-113.46-8.94-170.18-13.49a17,17,0,0,0-14.28,0Zm1564.82,76.09c4.25-.36,6.79-.47,9.29-.79,13.21-1.68,26.39-3.63,39.62-5.08,45.33-5,90.65-10.12,136-14.58,42.4-4.17,84.84-8,127.33-11.13,39.51-2.91,79.08-4.94,118.65-6.9,56.23-2.79,112.48-4.59,168.79-2.49,32.95,1.22,65.88,2.66,98.36,9a62.86,62.86,0,0,0,6.35.54c-2.11-13.35-7.77-24-15.69-33.54-12.9-15.55-29.77-25.38-48.27-32.63-31.28-12.26-64.06-17.84-97.33-20.26-26.54-1.94-53.19-2.41-79.8-3.56-1.56-.06-3.12-.35-5.06-.58-1-4.19-1.88-7.93-3-12.49,20.93-.59,41,.37,61.42-1.59-3.26-4.71-6.5-9-10.74-11.84A167,167,0,0,0,3176,777.69c-23.27-10.32-48.06-15.51-73-19.91-52.22-9.23-105-13.54-157.87-15.47-56.9-2.07-113.88-2.18-170.82-3.1-2.85-.05-5.72.33-8.74.53.24,1.82.34,2.8.51,3.77,5.16,28.88,4.84,57.55-3.17,86-10,35.34-29.12,65.38-53.2,92.61C2705,927.48,2700.1,932.8,2694.19,939.37Z"/><path class="cls-3" d="M1356.91,1470c-31.85-1.14-63.07-5.79-92.2-19.32q-93.63-43.5-105.76-146.25c-13.12-111.06,58-240.71,191.51-275.62,58.53-15.31,117.07-15.21,173.34,8.54,62.21,26.25,99.63,73.62,107.48,141.19,16.52,142.08-77.86,257.2-202,284.51A287.78,287.78,0,0,1,1356.91,1470Zm21.15-98c26.19.08,52.41-7.09,74.07-22.41,51.3-36.26,72.08-86.54,64.52-148.06-3.88-31.56-21.51-55.64-51.43-67.24-45.39-17.6-90.07-13.82-130.18,14.5-49.8,35.17-68.3,85.32-61.19,144.64,4.08,34,23.86,57.73,55.93,70.65C1344.52,1370,1360.07,1371.55,1378.06,1372Z"/><path class="cls-3" d="M2122.57,1055.59c14.61,2.15,26.59-4.74,39.18-10.52s25.74-9.88,38.66-14.72c44.41-13,89.33-14.5,134.7-6,21.67,3.45,42,10.8,61.28,21.15,2.87,1.54,6,2.67,9,4,3.05,2.48,6,5.1,9.17,7.41q65.27,47.34,72.49,127.56c5.65,63.6-8.68,122.53-45.94,174.57-43.78,61.15-103.74,97.08-178.37,108-43.44,6.33-86.63,4.65-128.06-10.46-67.91-24.77-109.86-72.62-119.54-145-11-82.46,15.64-153.24,71.79-213.61,13-13.95,27.82-25.75,43.79-36.14,1.32-.86,2.58-1.84,4.88-3.49Zm102.48,316.47c38.68,0,67.86-9.89,92-29.69,42.77-35.11,60.38-81.12,55.34-135.31-3.57-38.3-24.6-65.34-61.9-76.41-41.14-12.21-81.44-8.43-117.63,16.06-49.11,33.24-69.27,81.29-65.09,139.24,3.06,42.29,28,71,67.8,81.45C2207.05,1370.41,2219.13,1371.16,2225.05,1372.06Z"/><path class="cls-3" d="M1022.13,1284.06c31,58.06,61.79,115.74,93.1,174.41H991L909.17,1298l-1.78.52c-4.52,53.2-9,106.4-13.59,160H785.13c19.55-143.18,39-285.69,58.56-428.73a50.34,50.34,0,0,1,6.73-.89c47,.07,93.93-.07,140.88.46,21,.24,41.76,3.08,61.91,9.62,62.12,20.16,86.78,75.22,78.72,129.21-4.72,31.66-18.92,57.69-44,77.93-18.25,14.74-37.68,27.27-59.86,35.25C1026.29,1282.06,1024.57,1283,1022.13,1284.06Zm-103.61-61.69c5.52,0,9.77.1,14,0,16.62-.48,33.21-1.09,49.41-5.43s27.77-13.86,32.33-30.55a79,79,0,0,0,.65-41.34c-2.82-10.84-9-19.36-19.64-23.61-19.87-8-40.77-7-62.21-7.32C928.19,1150.42,923.43,1185.82,918.52,1222.37Z"/><path class="cls-3" d="M158,1388.14l-32.17,70.59H0l230.09-429.37H343.2q49,214,98.25,429.21H331.36c-5.86-23.24-11.76-46.65-17.75-70.43Zm108.46-222.92-2.14-.19-64,133.94h92C283.58,1253.89,275,1209.55,266.44,1165.22Z"/><path class="cls-3" d="M3395.56,1029.29c32.83,143.5,65.47,286.15,98.24,429.4H3383.57c-5.86-23.43-11.65-46.55-17.6-70.36h-155.7c-10.36,22.74-21.09,46.25-32,70.24h-125.8l230-429.28Zm-77.38,132.79c-22.54,46.79-44,91.42-65.36,136.85h91.83Z"/><path class="cls-3" d="M1774.72,1321.33c-5.86,46.15-11.6,91.29-17.41,137.1H1647.15c19.53-143,39-285.57,58.55-428.64a54.62,54.62,0,0,1,6.75-.85c48.31.07,96.62-.06,144.93.45,23,.24,45.87,2.4,67.93,9.82,27.17,9.14,49.22,24.69,63.64,50a123.39,123.39,0,0,1,15.48,50.13c2.68,28.71,1.3,57.35-7.66,84.91-16,49.15-50.76,78.34-100.29,90.51-25.73,6.32-52.12,6.53-78.45,6.6C1804.06,1321.36,1790.09,1321.33,1774.72,1321.33Zm26.15-203.68c-3.28,36.86-6.49,73-9.82,110.5,16.69-.74,31.94-1,47.1-2.25,7.87-.65,15.71-2.65,23.37-4.73,17.08-4.65,26.93-16.09,30.16-33.42a80.38,80.38,0,0,0-1.66-36.46c-3.93-14.27-13-23.73-27.21-27.83C1842.79,1117.69,1822.25,1117.63,1800.87,1117.65Z"/><path class="cls-1" d="M2650.85,1472.66l-32,.08c-27.92-3-55.15-8.78-81.07-19.93-18.08-7.77-35.21-17.11-51.55-29.57l58.82-82c8.64,6.43,16.5,13,25.08,18.51,23.54,15.07,49,23.78,77.44,21.15,15.85-1.46,29.56-7.57,40.06-19.89,16.75-19.64,14-42-7.07-56.72-13.23-9.27-28.18-14.85-43.51-19.5-13.35-4-27-7.33-40.08-12a124,124,0,0,1-25-12.31c-21.69-13.87-31.52-35.06-32.32-59.86-1.52-46.69,9.54-89.83,41.38-125.61,23.45-26.36,53.93-40.49,88-47.67,50.54-10.66,98.53-1.88,144.84,19.27,5.67,2.6,11.27,5.37,17.82,8.49l-52.65,82.55c-4.5-2.92-8.3-5.44-12.15-7.88-15-9.51-31-16.69-48.66-19.77-26.08-4.55-48.84,6-58.25,27.69a54,54,0,0,0-4.27,17.3,28.34,28.34,0,0,0,10.56,24.7c13.34,11.18,29,17.42,45.6,21.51,18.77,4.62,37.27,9.74,54.23,19.5,28.5,16.39,44.52,40.36,45.33,73.58,1,41.52-9.06,79.73-35.16,112.82-29.06,36.83-67.28,57.51-113.6,63.71C2658.72,1471.31,2654.79,1472,2650.85,1472.66Z"/><path class="cls-3" d="M726.05,1363c-4.47,32.76-8.73,64-13,95.63H480.06c19.51-143.19,39-285.95,58.49-429.15h233c-4.31,31.71-8.55,62.85-12.94,95.17H637.48c-3.05,22.48-5.93,43.83-9,66.47h121c-4.32,31.85-8.47,62.37-12.8,94.34-9.71.69-19.58.22-29.41.3-10.33.08-20.66,0-31,0H615.47c-3.54,25.84-7,51-10.57,77.22Z"/><path class="cls-1" d="M2951.75,1124l-97.17-1.79c4.41-32.06,8.65-62.93,13.09-95.19,97.45.2,194.82.58,292.91,2.06-4.26,31.83-8.39,62.72-12.67,94.68h-92.58c-15.16,111.88-30.2,222.78-45.22,333.58-7.08,2.19-86.3,2.89-103.73.83C2921.43,1347.38,2936.47,1236.56,2951.75,1124Z"/><path class="cls-4" d="M2335.11,1024.32c-45.37-8.47-90.29-7-134.7,6-139.28-.22-276.77-17.95-413.67-42.75,2.38-.13,4.76-.35,7.14-.39,47.3-.75,94.65-.24,141.87-2.5,68.67-3.27,136.6-12.45,201.87-35.41a448.31,448.31,0,0,0,52.35-22c45.54-22.9,66.79-77.26,49-122.77-4.33-11.06-10.49-20.94-19.52-28.55-19.34-16.27-38.54-32.79-58.75-47.93-50.25-37.63-94.32-81.17-130.14-132.77-22.42-32.3-38.92-67.35-46.45-106.19-3-15.63-5-31.39-4.73-48.43,1.73,1.05,2.94,1.46,3.67,2.3,45.07,51.16,96.17,95.8,149.47,138.05,58.47,46.33,119.38,89.37,180.35,132.31,14.44,10.17,28.49,20.74,40.78,33.57,38.24,39.91,47.32,85.73,27.52,137-5.59,14.48-13.22,28.17-20.26,43,2.36-1.18,4.64-2.12,6.71-3.4,37.75-23.42,70.34-83.42,53.49-139.77-6.39-21.4-19.67-38.17-34.93-53.83-35.45-36.37-75.15-67.7-115.89-97.79-49-36.18-98.47-71.75-147.05-108.5-37.47-28.34-72.64-59.46-104.16-94.46-36.57-40.61-65.34-85.64-78.51-139.41-1-4.12-1.83-8.29-3.2-14.57,4.51,3.93,7.49,6.38,10.31,9,44.78,41.53,93.62,77.87,143.87,112.42,75.74,52.09,154.74,99,232.88,147.34,42.48,26.26,85.09,52.34,125.05,82.4,29.1,21.89,56.29,45.85,77.25,76,21.17,30.48,32.11,64,29.67,101.4-1.64,25.18-8.86,49-18.94,72l-2.2,4.35,1.41.94,4.08-5.59c18.42-23.07,33.62-47.93,41.89-76.52,12.66-43.73,4.14-84.18-19.35-122.19-19.33-31.26-45.18-56.59-73.54-79.52-41.59-33.63-87.18-61.09-134.44-85.82a2136.7,2136.7,0,0,1-245.93-150.49c-43.72-31-86.8-62.86-127.7-97.53-28.29-24-54.48-49.94-75-81.06-22.47-34-35.29-71.32-37.83-112a256.19,256.19,0,0,1-.38-31.29c.8,1.43,2,2.77,2.33,4.29,9.59,44.85,32.21,82.67,62.67,116.27,30.15,33.26,65.37,60.58,102,86.12,69.19,48.21,142.15,90.24,216.39,130.05,59.81,32.06,120.5,62.5,180.22,94.72a1025.42,1025.42,0,0,1,212.2,151.8,426.9,426.9,0,0,1,52.75,58.5c14.89,20.11,22.18,42.47,24.21,67.45,6.07,74.74-23.21,133.28-80.31,179.53-31.63,25.61-67.55,43.56-105.56,57.56-49.65,18.28-101.16,28.31-153.59,34.16C2366.22,1021.07,2350.66,1022.67,2335.11,1024.32Z"/><path class="cls-5" d="M657.35,709.76c44.7,13.11,89.86,24.44,135.72,32.67,34.36,6.16,68.78,12.31,103.39,16.82,46.84,6.12,93.84,11.19,140.87,15.72,32.79,3.15,65.71,5.31,98.63,6.74,65.87,2.86,131.77,5.82,197.68,7,55.94,1,111.93,0,167.89-.67,44.3-.52,88.6-1.4,132.88-2.9,57.24-1.94,114.46-4.65,171.69-7.05,21.3-.89,42.6-1.68,63.88-2.78,44.89-2.33,89.77-4.87,134.66-7.24,31.59-1.67,63.19-3.2,94.78-4.82,12.3-.63,24.62-1.18,36.9-2.07a23.74,23.74,0,0,1,15.07,3.8c15.29,9.63,30,20,41,34.57,18.11,24,17.23,49.1-2.35,71.83-14,16.23-31.69,27.26-51.1,35.73-29.14,12.71-59.82,20.24-90.92,26.14-61.67,11.69-124,17.17-186.69,17.88q-82.92.93-165.87-1c-61.61-1.39-123.06-6.34-184.31-13.09-96-10.58-191.21-26.17-285.13-48.94-32.32-7.83-64.43-16.54-96.63-24.84l6.08-2c56.72,4.55,113.42,9.46,170.18,13.49,33.53,2.38,67.15,3.43,100.75,4.93,89.17,4,178.39,6.49,267.65,5.58,52.92-.54,105.88-1.82,158.74-4.45,59.18-2.94,118.12-9,176.2-21.36,19.49-4.16,38.76-9.33,58.13-14l21.44-5.15-.39-1.82-31.2,5c-19.53,2.12-39,4.41-58.57,6.32-32.81,3.21-65.58,6.91-98.46,9.07-51.17,3.37-102.38,6.38-153.63,8.16-92.57,3.22-185.15,2.38-277.73-1.08q-117.86-4.41-235.29-14.79c-87.26-7.62-174.1-18.6-260-35.8-98.46-19.69-194.68-46.75-286.54-87.92-11.22-5-22.2-10.61-33.29-15.94Z"/><path class="cls-4" d="M2694.19,939.37c5.91-6.57,10.78-11.89,15.56-17.29,24.08-27.23,43.24-57.27,53.2-92.61,8-28.41,8.33-57.08,3.17-86-.17-1-.27-2-.51-3.77,3-.2,5.89-.58,8.74-.53,56.94.92,113.92,1,170.82,3.1,52.87,1.93,105.65,6.24,157.87,15.47,24.92,4.4,49.71,9.59,73,19.91a167,167,0,0,1,24.16,13.78c4.24,2.81,7.48,7.13,10.74,11.84-20.42,2-40.49,1-61.42,1.59,1.08,4.56,2,8.3,3,12.49,1.94.23,3.5.52,5.06.58,26.61,1.15,53.26,1.62,79.8,3.56,33.27,2.42,66,8,97.33,20.26,18.5,7.25,35.37,17.08,48.27,32.63,7.92,9.55,13.58,20.19,15.69,33.54a62.86,62.86,0,0,1-6.35-.54c-32.48-6.36-65.41-7.8-98.36-9-56.31-2.1-112.56-.3-168.79,2.49-39.57,2-79.14,4-118.65,6.9-42.49,3.12-84.93,7-127.33,11.13-45.38,4.46-90.7,9.6-136,14.58-13.23,1.45-26.41,3.4-39.62,5.08C2701,938.9,2698.44,939,2694.19,939.37Z"/><path class="cls-6" d="M2057,843.51l31.2-5,.39,1.82-21.44,5.15Z"/><path class="cls-7" d="M657.35,709.76l-4,1.77-13.06-5.89L641,704Z"/><path class="cls-8" d="M1135.45,861.3l-6.08,2-8.2-2A17,17,0,0,1,1135.45,861.3Z"/><path class="cls-9" d="M2540.73,875.35l-4.08,5.59-1.41-.94,2.2-4.35Z"/></g></g></g></svg>