<svg xmlns="http://www.w3.org/2000/svg" xmlns:xlink="http://www.w3.org/1999/xlink" viewBox="0 0 574.38 87.31"><defs><style>.cls-1{fill:url(#Degradado_sin_nombre_4);}.cls-2{fill:url(#Degradado_sin_nombre_2);}.cls-3{fill:url(#Degradado_sin_nombre_3);}.cls-4{fill:#394c75;}</style><linearGradient id="Degradado_sin_nombre_4" x1="117.07" y1="670.73" x2="117.07" y2="658.74" gradientTransform="matrix(2.84, 0, 0, -2.84, 165.87, 1906.22)" gradientUnits="userSpaceOnUse"><stop offset="0" stop-color="#00d9ff"/><stop offset="1" stop-color="#0e518a"/></linearGradient><linearGradient id="Degradado_sin_nombre_2" x1="121.32" y1="647.96" x2="140.12" y2="647.96" gradientTransform="matrix(2.84, 0, 0, -2.84, 165.87, 1906.22)" gradientUnits="userSpaceOnUse"><stop offset="0" stop-color="#f12e1f"/><stop offset="1" stop-color="#9f1e1c"/></linearGradient><linearGradient id="Degradado_sin_nombre_3" x1="122.05" y1="653.47" x2="132.1" y2="653.66" gradientTransform="matrix(2.84, 0, 0, -2.84, 165.87, 1906.22)" gradientUnits="userSpaceOnUse"><stop offset="0" stop-color="#e6eaef"/><stop offset="1" stop-color="#95aab1"/></linearGradient></defs><g id="Capa_2" data-name="Capa 2"><g id="Capa_2-2" data-name="Capa 2"><path class="cls-1" d="M475.57.1c9.61,0,15.83-1.47,22.85,6.66l22.95,28.35h-17c-3.84,0-8.24-1.1-11.81-7.14Z"/><path class="cls-2" d="M527.71,43.35,564,87.3h-25.4c-8.8,0-13.84-5.22-17.11-10.85L510.54,57.91l3.16-9.75Z"/><path class="cls-3" d="M513,62.3l-8.37-14.14c-2.44-4.39-.24-9.61,8.69-10.58s24.45-2.47,28.83,6.62C530.06,43,512.07,46.65,513,62.3Z"/><path class="cls-4" d="M81.31,70.24V52.74c0-5.74-2.09-8.77-6-8.77a6.43,6.43,0,0,0-5.92,4.46,8.89,8.89,0,0,0-.42,2.8v19H61.57V51.89c0-5-2.11-7.92-5.8-7.92-3.25,0-5.34,2.54-6.15,4.72a9.5,9.5,0,0,0-.42,2.8V70.24H41.84V48c0-3.59-.13-6.68-.25-9.3H48l.42,4.72H49l.08-.13a10.78,10.78,0,0,1,9.68-5.38,9.06,9.06,0,0,1,8.66,5.78l.07.17h.45l.08-.13a12.45,12.45,0,0,1,3.84-3.94,10.91,10.91,0,0,1,6.46-1.88c2.44,0,10.42,1,10.42,13.67V70.21Zm28.89.66c-10,0-16.3-6.15-16.3-16,0-8.21,4.84-17,15.44-17,10,0,13.6,8.29,13.6,15.38a19.67,19.67,0,0,1-.22,3.16H101.15v.28c.22,6.32,5.38,8.57,10.16,8.57A26.14,26.14,0,0,0,120,63.9l1.07,5a28.07,28.07,0,0,1-10.91,2Zm-1.32-28c-5.45,0-7.41,5.08-7.68,8.09v.29h14.67V51c0-.93-.08-4.14-2.18-6.29a6.38,6.38,0,0,0-4.75-1.84Zm19.8,27.33V48.72c0-4.52-.07-7.47-.25-10.09h6.47l.33,6.07h.64l.06-.18c1.41-4,4.79-6.63,8.59-6.63.68,0,1.11.06,3,.16V45.1c-2-.1-2.66-.14-3.5-.14a7.42,7.42,0,0,0-7.52,6.35,16,16,0,0,0-.2,2.49V70.24Zm52,.66c-9.9,0-16.3-6.35-16.3-16.14,0-10.07,7.09-16.83,17.62-16.83a21.61,21.61,0,0,1,7.55,1.34l-1.33,5.6a14,14,0,0,0-6-1.13,9.8,9.8,0,0,0-7.17,2.77,10.86,10.86,0,0,0-2.93,7.89c0,6.35,4.06,10.62,10.1,10.62a16.44,16.44,0,0,0,6.2-1.15l1,5.48a23.65,23.65,0,0,1-8.81,1.54Zm22.17.06c-6.45,0-9.83-4.68-9.83-9.31,0-7.68,6.58-11.87,18.53-11.87h.57V49c0-2.2-.88-5.88-6.79-5.88a17.4,17.4,0,0,0-8.49,2.24l-1.43-4.75a22.6,22.6,0,0,1,11.3-2.7c10.76,0,13,7.25,13,13.33V62.78a44.31,44.31,0,0,0,.47,7.46h-6.78l-.6-3.56h-.55l-.08.11A11.43,11.43,0,0,1,202.89,71Zm8.74-16.43c-7.33,0-11,2.1-11,6.27a4.53,4.53,0,0,0,4.88,4.88,6.92,6.92,0,0,0,6.65-4.61,5.64,5.64,0,0,0,.21-1.87V54.51Zm35.28,15.71V52.35c0-5.38-2.31-8.38-6.4-8.38a7.1,7.1,0,0,0-6.59,4.92,8.06,8.06,0,0,0-.41,2.67V70.24h-7.59V48c0-3.59-.12-6.68-.25-9.3h6.55l.39,4.79h.59l.08-.13a11.43,11.43,0,0,1,10.06-5.38c5.38,0,11.16,3.55,11.16,13.52V70.27Zm77.07,0V48.72c0-4.52-.07-7.47-.24-10.09h6.46l.33,6.07h.64l.06-.18c1.42-4,4.8-6.63,8.59-6.63.69,0,1.11.06,3,.16V45.1c-2-.1-2.67-.14-3.5-.14a7.43,7.43,0,0,0-7.53,6.35,14.84,14.84,0,0,0-.19,2.49V70.24Zm22.17-46.33h7.59V70.24h-7.59Zm52.21,46.33V52.35C398.32,47,396,44,391.91,44a7.09,7.09,0,0,0-6.58,4.92,7.81,7.81,0,0,0-.41,2.67V70.24h-7.56V48c0-3.59-.12-6.68-.24-9.3h6.54l.39,4.81h.59l.09-.13A11.45,11.45,0,0,1,394.79,38C400.17,38,406,41.51,406,51.48V70.29ZM428,70.9c-10.05,0-16.3-6.15-16.3-16,0-8.21,4.83-17,15.44-17,10,0,13.6,8.29,13.6,15.38a22.28,22.28,0,0,1-.22,3.16H419v.28c.22,6.32,5.38,8.57,10.17,8.57a26,26,0,0,0,8.71-1.38l1.08,5a28.48,28.48,0,0,1-10.91,2Zm-1.32-28c-5.46,0-7.42,5.08-7.68,8.09v.29h14.67V51c0-.93-.08-4.14-2.19-6.29a6.36,6.36,0,0,0-4.75-1.84ZM454,70.9a20.66,20.66,0,0,1-9.46-2.12l1.54-5.38a18,18,0,0,0,8,2.24c3.45,0,5.38-1.42,5.38-3.9s-1.76-3.58-5.45-4.93c-5.68-1.91-8.67-5.07-8.67-9.12,0-5.75,4.89-9.77,11.88-9.77a18.59,18.59,0,0,1,8.27,1.78L464,44.85a14.39,14.39,0,0,0-6.64-1.72c-2.88,0-4.75,1.45-4.75,3.7s1.71,3.22,5.78,4.73c5.83,2,8.35,4.88,8.41,9.53,0,6.06-4.9,9.83-12.81,9.83ZM30.16,70.24h8.21l-14.28-44h-10L0,70.24H7.85l2.8-9.7H27.27ZM12.25,55l4.13-14.3c.46-1.68.92-3.56,1.37-5.38.25-1,.5-2,.76-3l0-.19h.55l.43,1.71c.54,2.16,1.17,4.61,1.86,6.78L25.65,55ZM296.1,70.24h8.25L290,26.28h-10L266,70.24h7.83l2.79-9.7H293.2ZM278.22,55l4.13-14.3c.47-1.68.93-3.56,1.37-5.38.26-1,.5-2,.77-3l.06-.19h.53l.44,1.71c.55,2.16,1.16,4.61,1.85,6.78L291.63,55ZM151.65,70.24V38.63h7.59V70.24Zm.4-43.69h6.81V33h-6.81Zm156,43.69V38.63h7.58V70.24Zm.4-43.69h6.81V33h-6.81Zm53.87,43.69V38.63h7.59V70.24Zm.41-43.69h6.81V33h-6.81ZM567.45,83.34H566.1v-.49h3.3v.49H568v4h-.59Zm6.19,2c0-.63-.07-1.38-.07-1.93-.16.52-.34,1.08-.56,1.7l-.77,2.16h-.43L571,85.15c-.21-.63-.38-1.2-.5-1.73,0,.56,0,1.3-.09,2l-.11,1.92h-.56l.32-4.46h.77l.76,2.15c.19.55.33,1,.46,1.54.12-.46.27-1,.47-1.54l.77-2.15h.77l.28,4.46h-.57Z"/></g></g></svg>