<svg xmlns="http://www.w3.org/2000/svg" viewBox="0 0 2364.16 997.07"><defs><style>.cls-1{fill:#cb323a;}.cls-2{fill:#cb333b;}.cls-3{fill:#cc333b;}.cls-4{fill:#cc373e;}.cls-5{fill:#fdfbfb;}</style></defs><g id="Capa_2" data-name="Capa 2"><g id="Capa_1-2" data-name="Capa 1"><g id="z0t8Sa.tif"><path class="cls-1" d="M1356.31,0c4.81,1,9.64,1.79,14.42,2.86A98.61,98.61,0,0,1,1366.84,196c-61.18,11.11-117.38-37.08-115.86-99.35,1.22-49.82,39.39-91,88.7-95.74a11.34,11.34,0,0,0,2.63-.89Z"/><path class="cls-1" d="M1935.15,414.17c.24-.82.72-2.17,1-3.56q17.44-74.26,34.8-148.54c.65-2.79,1.37-4.22,4.75-4.22q89.46.18,178.93.1c.66,0,1.31.11,2.66.22-.35,1.85-.58,3.55-1,5.2q-10.31,41.36-20.6,82.72a28.82,28.82,0,0,0-.33,5.11l1.36.26c6.78-8.58,13.42-17.29,20.37-25.74,15.26-18.55,31.27-36.46,50.89-50.57,34.46-24.79,72.92-33.14,114.56-25.72,13.82,2.46,27.3,6.83,41.57,10.49-1.51,3.08-2.32,4.84-3.22,6.55-22.59,42.59-45.27,85.14-67.68,127.83-2.16,4.1-4.4,4.6-8.55,3.94-29.65-4.74-59.05-5-87.46,6.63-27.72,11.34-47.2,31.75-61.93,57.15-16.18,27.9-25.81,58.26-33.17,89.42q-20.24,85.63-40.19,171.34c-.34,1.44-.8,2.84-1.26,4.44H1861.82C1872,683.93,1882.13,641,1892.24,598l-.65-.32c-3.23,4.52-6.37,9.12-9.71,13.55-36.57,48.46-85,79.89-142.4,97.93-52,16.34-105.53,19.35-159.58,16.47-32.53-1.73-64.59-6.47-95.43-17.34q-104.61-36.87-131.67-144.54c-.64-2.57-1.12-5.17-2-9.1-4,17.09-7.77,32.86-11.49,48.63q-13.9,59-27.72,117.94c-.66,2.84-1.35,4.21-4.7,4.2q-96-.16-191.93-.09a26.16,26.16,0,0,1-2.71-.3q44.78-190,89.44-379.56l-1-.55c-1.07,1.47-2.16,2.92-3.19,4.42Q1070.07,534.63,942.69,720c-2.69,3.91-5.4,5.25-10.08,5.23q-82-.26-163.94,0c-4,0-5.62-.82-6.52-5.12Q730,566.56,697.48,413.16q-16.23-76.85-32.43-153.68a12.85,12.85,0,0,1-.09-1.33H851.3Q866,405.92,880.72,553.45l1.18.49c1.15-1.59,2.44-3.09,3.42-4.77q58.6-101.26,117.17-202.55,24.62-42.54,49.14-85.12c1.61-2.81,3.36-3.79,6.63-3.79q99,.17,197.93.1,79.2.07,158.41.35h5.85c-8,34.07-15.78,67.49-23.59,100.9l.84.38c3-3.91,5.91-7.88,9-11.73,35.19-43.88,80.39-73.21,133.4-90.9,49.1-16.38,99.75-21.08,151.22-19.33,36.43,1.23,72.41,5.51,107,17.6C1874.55,281.77,1917.61,337.11,1935.15,414.17Zm-189.63,24.76c-.28-3.71-.5-11-1.42-18.28-3-23.93-14.61-41.94-36.84-52.67-15.87-7.66-32.54-10.28-49.94-9.3-30.89,1.75-57.62,12.74-76.72,37.67a206.94,206.94,0,0,0-22.54,38c-14.8,31.57-22,64.78-16.8,99.8,5.32,35.91,40.63,79.33,98,70.82,27.92-4.15,49.74-18.09,66.32-40.39C1732.45,528.43,1744.88,487.4,1745.52,438.93Zm-994,117,.69.62,102.91-65L734.48,477.31c10.48,10.11,21.16,19.11,31.78,28.18,7,6,6.19,3.48,2.63,11.55C763.17,530,757.3,543,751.49,555.93Z"/><path class="cls-1" d="M12.81,652.47a27,27,0,0,1,1.79-4.36Q192,362.95,369.39,77.75c2.15-3.45,4.46-4.51,8.37-4.5q113.46.16,226.92,0c4.52,0,6.44.74,7.32,5.86,11,64.39,22.35,128.73,33.63,193.09Q662.42,368,679.24,463.76c1,5.73,1.93,11.47,3,17.63-5.05.33-10,.5-14.9,1-33.62,3.28-67.34,5.83-100.83,10.1-64.58,8.22-128.18,21.77-191.29,37.57A2340.69,2340.69,0,0,0,115.64,611.8c-33,12.46-65.49,26-98.22,39.07-1.52.6-3.12,1-4.69,1.5ZM483.23,481.4l-23-237.84-1.85-.28L334.78,481.4Z"/><path class="cls-2" d="M1306.06,992.9c3.51-14.87,6.87-29.07,10.23-43.27q13.93-58.93,27.87-117.88c.51-2.17.57-4.18,3.74-4.17,20.64.1,41.27,0,62.5,0-2,8.29-3.8,16.13-5.64,24l.87.68c1.09-1,2.17-2,3.28-3,23.67-21.36,51.32-29.5,82.64-24,16.36,2.89,27.8,12.18,32.17,28.89a4.64,4.64,0,0,0,.47,1.1c8.91-6.08,17.41-12.85,26.77-18.09,22.42-12.55,47.12-14.56,72.16-13.35a192.35,192.35,0,0,1,30.16,3.79c19.48,4.07,35.71,13.51,46.41,31.8,8.22-13.16,20-21,33.72-26.45,21.37-8.42,43.67-10.64,66.22-9a199.19,199.19,0,0,1,39.66,6.78c17.51,5,27.32,17.91,31,36.15l-65,6.42c-3-10.74-11.14-14.36-21-14.31a80.32,80.32,0,0,0-20.08,2.53c-6.14,1.64-9.55,6.88-9.23,11.65.42,6.28,4.66,9.7,10.11,10.89,11,2.41,22.28,3.78,33.31,6.18,11.5,2.51,23.14,4.9,34.2,8.78,27.11,9.53,29.65,36.15,21.91,54-6.73,15.47-19.08,25.35-34,32.2-17.08,7.83-35.34,10.28-53.91,11.14-21,1-41.93.47-62.45-5-10.7-2.85-20.16-7.71-27-16.2-38.8,25.07-80.69,25.47-123.49,16.81-21.91-4.44-31.29-12.15-48.28-35.08-2.85,12.13-5.6,23.8-8.41,35.73h-69.85c2.86-12.45,5.7-24.71,8.49-37q7.53-33,15-66.11a26.76,26.76,0,0,0,.6-3.43c1.08-11.2-3.6-16.25-14.84-16-11,.3-19.26,5.7-26.06,13.81-9.22,11-13.76,24.16-17,37.84-5.36,22.47-10.56,45-16,67.42-.34,1.43-2.25,3.52-3.45,3.54C1351.57,993,1329.27,992.9,1306.06,992.9Zm259.34-66.59c-.27,14.5,7.09,26.93,18.61,31,16.07,5.73,30.69,2.68,43.16-8.92,2.87-2.68,5.55-3.78,9.22-3.4,6.34.65,12.69,1.64,19,1.72,9.75.13,19.51-.28,29.26-.67,5.43-.21,10.84-.79,16.26-1.27,11-1,21.94-2,33.28-3,2.72,11.67,10.35,17.75,21.55,19.57a41.46,41.46,0,0,0,10.3.56c7.63-.72,15.09-2.31,21.33-7.21,4.38-3.44,5.59-8.15,4.64-13.41-.84-4.67-4.25-7.09-8.54-8.07-6.93-1.57-13.9-3-20.92-4.12-14.42-2.19-28.78-4.56-42.36-10.12-4.68-1.92-9.08-4.55-13.61-6.87-.41,2.84-1.09,5.29-1,7.72.11,5.52-2.51,6.59-7.67,6.57-42.28-.23-84.56-.13-126.84-.13Zm6.52-30.5h67.68c5.38-15.57-1.83-29.61-17.28-33.75C1596.29,855.09,1576.44,875.41,1571.92,895.81Z"/><path class="cls-3" d="M856.25,767.46c11.21,64,22.34,127.5,33.47,191l.73.15c1.6-6.55,3.26-13.08,4.8-19.64q12.63-53.61,25.2-107.25c.56-2.42,1-4.2,4.28-4.18,21.49.15,43,.08,64.47.1a16.23,16.23,0,0,1,2.31.4c-3,12.94-6,25.68-9,38.41q-14.38,61.14-28.72,122.3c-.66,2.84-1.39,4.24-4.72,4.22-42-.19-84-.22-125.94-.31-.65,0-1.3-.12-2.48-.23-1.19-12-2.38-24-3.61-36.39-1.84-.09-3.46-.23-5.07-.23-23.82,0-47.64.06-71.47-.1-3.46,0-5.34,1-6.89,4.14q-7.41,15-15.47,29.61a6.73,6.73,0,0,1-4.8,3.08c-25.49.2-51,.14-76.47.12a23.13,23.13,0,0,1-2.4-.3c1-1.74,1.63-3.17,2.46-4.51q67.38-108.24,134.7-216.51c1.79-2.86,3.68-4,7.13-4C804.36,767.54,830,767.46,856.25,767.46Zm-51.81,59.36-1-.17c-14,27-28.07,54-42.25,81.21h51.06C809.61,880.64,807,853.73,804.44,826.82Z"/><path class="cls-1" d="M496.74,621.44c65.23-23.77,131-44.78,201.11-50.52C707,623,715.92,674.34,725,726.15H506.88C503.51,691.36,500.15,656.66,496.74,621.44Z"/><path class="cls-3" d="M0,725.28c23.88-12.41,47.68-25,71.65-37.21,89.66-45.71,181-87.66,275.31-123,53.57-20.09,107.86-37.93,163.39-51.84,45.57-11.41,91.56-20.47,138.56-23.28,11.43-.68,22.93-.1,34.85-.1,1.42,8.39,2.82,16.7,4.3,25.43l-27.37,4.05c-39.34,5.85-78.18,14.17-116.78,23.69-80.31,19.81-158.8,45.34-236,74.84a26,26,0,0,1-8.69,1.63q-16.74.27-33.48,0c-2.89,0-4.84.68-5.72,3.47-4.51,14.2-15.16,20.7-28.51,26.18-55.22,22.66-109.07,48.39-162.41,75.19a21,21,0,0,1-9,2.15c-18.32.19-36.65.1-55,.1H.3Z"/><path class="cls-3" d="M1204,992.68h-70.16l53.68-227.9h70.17C1239.75,840.86,1221.9,916.63,1204,992.68Z"/><path class="cls-3" d="M1090.76,827.63c-2.75,11.21-5.29,21.61-7.84,32l.86.37c3.44-4.2,6.81-8.45,10.34-12.57,10.67-12.5,23.11-22,40.22-23.63,9.87-.95,19.16,1,28.69,5-1.32,2.66-2.5,5.17-3.78,7.61-6.49,12.37-13.08,24.68-19.46,37.1-1.38,2.69-2.6,3.83-6,3.25-24.45-4.15-42.19,5.06-53.21,27.31-7.47,15.07-10.23,31.55-14.13,47.68-3,12.6-5.87,25.26-9.05,37.82-.34,1.35-2.42,3.21-3.7,3.22-21.66.18-43.32.11-65,.08a8.71,8.71,0,0,1-1.62-.53c1.53-6.8,3-13.7,4.63-20.57q16.35-69.91,32.83-139.78c.38-1.63,2.27-4.13,3.48-4.15C1048.65,827.56,1069.3,827.63,1090.76,827.63Z"/><path class="cls-3" d="M1260.55,827.89h70.17c-13,55.13-25.82,109.86-38.72,164.77h-70.17C1234.79,937.53,1247.65,882.78,1260.55,827.89Z"/><path class="cls-3" d="M379.84,619.55c99-45.18,199.43-85.7,309.58-97.17,2.47,14.11,4.8,27.45,7.21,41.27-8.48,1.24-16.64,2.44-24.8,3.61a1187.3,1187.3,0,0,0-130.35,26.79c-28.61,7.46-57,15.92-85.46,23.82a42.12,42.12,0,0,1-10.75,1.61C423.46,619.63,401.65,619.55,379.84,619.55Z"/><path class="cls-3" d="M1340.31,771.18a35,35,0,0,1-34.91,35c-18.89,0-34.53-15.71-34.65-34.77-.12-18.9,15.58-34.85,34.43-35A35,35,0,0,1,1340.31,771.18Z"/><path class="cls-3" d="M1001.64,771.52a34.65,34.65,0,1,1-34.15-35.12A34.74,34.74,0,0,1,1001.64,771.52Z"/><path class="cls-4" d="M218,702.89c-3.89,7.29-7.73,14.61-11.72,21.85a3.75,3.75,0,0,1-2.63,1.74,231.67,231.67,0,0,1-28.38-1l41.78-23.61C217.39,702.24,217.71,702.57,218,702.89Z"/><path class="cls-1" d="M12.73,652.37a2,2,0,0,1-.23.4s-.19,0-.29,0l.6-.26Z"/><path class="cls-5" d="M1639.6,895.81h-67.68"/></g></g></g></svg>