<svg xmlns="http://www.w3.org/2000/svg" viewBox="0 0 517.35 59.51"><defs><style>.cls-1{fill:#ec6a19;}.cls-2{fill:#f09154;}.cls-3{fill:#f7be9b;}.cls-4{fill:#f08d4e;}.cls-5{fill:#f8cfb5;}.cls-6{fill:#ec6b19;}.cls-7{fill:#fffffe;}</style></defs><g id="Capa_2" data-name="Capa 2"><g id="Capa_1-2" data-name="Capa 1"><g id="I5KZqR.tif"><path class="cls-1" d="M470.47,48.65c-.25.13-.51.26-.75.41a79.21,79.21,0,0,1-11.17,5.68,47.76,47.76,0,0,1-8.1,2.51,28.18,28.18,0,0,1-5.64.64A17.71,17.71,0,0,1,438,56.71a10.85,10.85,0,0,1-4.67-3.4,9.39,9.39,0,0,1-1.82-4.25,15.72,15.72,0,0,1,.25-5.8,20.71,20.71,0,0,1,4.42-8.92,32.61,32.61,0,0,1,7-6.2,55.88,55.88,0,0,1,10-5.27,92.54,92.54,0,0,1,14.92-4.68q4.4-1,8.87-1.68c2.57-.37,5.15-.66,7.75-.85a92.4,92.4,0,0,1,9.27-.22c2.39.06,4.78.14,7.16.3,2.64.18,5.28.43,7.91.71s5.16.65,7.73,1a6,6,0,0,1,.61.14v.15L506.16,36.16,493.31,57.33c-.12.2-.25.39-.4.64l-.75,0-14.89-.06-7.94,0c-1.07,0-2.13,0-3.19-.06-.11-.25.05-.41.14-.58,1.32-2.59,2.66-5.17,4-7.76.12-.23.21-.47.32-.71l.06-.17Zm-9.64-5.11a4.38,4.38,0,0,0,.5,2.22,1.49,1.49,0,0,0,1.24.83,4.67,4.67,0,0,0,1.62-.1,10.39,10.39,0,0,0,2-.78,22.47,22.47,0,0,0,3.23-2,56.44,56.44,0,0,0,8-7.28,31.94,31.94,0,0,0,3.59-4.6A15.27,15.27,0,0,0,482,30a4.45,4.45,0,0,0,.37-1.19c.12-.74-.08-1-.82-1.24a7.59,7.59,0,0,0-3.25-.12,14.24,14.24,0,0,0-3.72,1.11,28.8,28.8,0,0,0-11.24,8.91,14.12,14.12,0,0,0-1.91,3.3A7.26,7.26,0,0,0,460.83,43.54Z"/><path class="cls-2" d="M91.9,59.36v.15H87.53v-.12Z"/><path class="cls-3" d="M0,43.14l.26,0c0,.69,0,1.38,0,2.07l-.25,0Z"/><path class="cls-4" d="M87.53,59.39v.12H85.81a.59.59,0,0,0,0-.13Z"/><path class="cls-5" d="M85.79,59.38a.59.59,0,0,1,0,.13H84.56a.33.33,0,0,0,0-.14Z"/><path class="cls-1" d="M345.05,49a1.43,1.43,0,0,0-.28.13,43.86,43.86,0,0,1-8.18,4,69.69,69.69,0,0,1-12.75,3.54,35.69,35.69,0,0,1-7.51.66,13.48,13.48,0,0,1-4.13-.72,8.18,8.18,0,0,1-5.63-6.85,14.93,14.93,0,0,1,.23-5.57,24.56,24.56,0,0,1,6.32-11.88,36.73,36.73,0,0,1,8.19-6.44,59.7,59.7,0,0,1,11.05-5A92.31,92.31,0,0,1,345,17.54c2.5-.48,5-.87,7.54-1.18,1.81-.22,3.62-.36,5.43-.53,2.8-.28,5.61-.35,8.41-.36,2.26,0,4.52.1,6.78.18,1,0,2.08.11,3.12.17q4.2.27,8.38.78l6.88.83a1,1,0,0,1,.69.25L367.77,58c-8,0-16.08,0-24.11-.11-.9,0-1.81,0-2.73-.07a2.06,2.06,0,0,1,.32-.83q1.78-3.6,3.59-7.18c.11-.23.2-.47.29-.71,0,0,.1-.09.09-.11S345.1,49,345.05,49Zm9.53-21.64a11.36,11.36,0,0,0-4,.75,22.55,22.55,0,0,0-4.46,2.2,29.21,29.21,0,0,0-7.93,7.18,15.22,15.22,0,0,0-1.94,3.37,7.07,7.07,0,0,0-.54,3.34,4.49,4.49,0,0,0,.48,1.56,1.46,1.46,0,0,0,1.23.82,3.69,3.69,0,0,0,1.62-.12c.66-.23,1.32-.47,2-.76A18.94,18.94,0,0,0,343.86,44a52.31,52.31,0,0,0,10.19-9.58A23.28,23.28,0,0,0,356.4,31a7.06,7.06,0,0,0,.78-1.86,2.57,2.57,0,0,0,.08-.62c0-.49-.16-.67-.64-.84A5.53,5.53,0,0,0,354.58,27.37Z"/><path class="cls-1" d="M191,58.29H163.75a2.26,2.26,0,0,1-.33,0,1.85,1.85,0,0,1,.37-.71q3.66-5.74,7.33-11.49l6.2-9.73a21.3,21.3,0,0,0,1.85-3.42c.19-.46.31-.94.46-1.41a2.32,2.32,0,0,0,.07-.38,1.11,1.11,0,0,0-1.3-1.33,4.32,4.32,0,0,0-1.07.21,14.77,14.77,0,0,0-1.66.67,23.78,23.78,0,0,0-6.8,5A146.93,146.93,0,0,0,158.37,48a85.93,85.93,0,0,0-6.45,9.92c-.12.21-.24.4-.36.62l-.39,0L124,58c-.05,0-.09,0-.13-.06s0-.11,0-.15Q136.2,38,148.53,18.18l1.87-.09.94,0,12.71-.24,7.64-.15,7.48-.16c2.73-.05,5.46-.12,8.19-.16,2.42-.05,4.83-.11,7.25-.09a25.54,25.54,0,0,1,6,.77,15.22,15.22,0,0,1,3.07,1.11,9.53,9.53,0,0,1,2.11,1.45A6.79,6.79,0,0,1,208,25.44a12.77,12.77,0,0,1-.73,4.67,29.43,29.43,0,0,1-2.94,6.18c-1.8,3-3.63,6-5.44,9q-3.75,6.16-7.48,12.33C191.28,57.82,191.16,58,191,58.29Z"/><path class="cls-1" d="M85.79,59.38H84.56a61.43,61.43,0,0,1-11.42-2,34.54,34.54,0,0,1-6.79-2.69,17.81,17.81,0,0,1-4.43-3.28,9.9,9.9,0,0,1-2.72-9,17.93,17.93,0,0,1,3.53-7.71,30.14,30.14,0,0,1,6.22-6,51.87,51.87,0,0,1,9.79-5.6A75,75,0,0,1,94,18.17c2.08-.44,4.18-.79,6.3-1a47.83,47.83,0,0,1,6.77-.33,52.58,52.58,0,0,1,15.07,2.62,27.59,27.59,0,0,1,5.44,2.49,15.09,15.09,0,0,1,4.08,3.47,10,10,0,0,1,2.11,7.44A17.87,17.87,0,0,1,129.9,42a30.62,30.62,0,0,1-6,5.77,53.17,53.17,0,0,1-10.68,6.08,72.13,72.13,0,0,1-15.08,4.65c-1.78.35-3.58.59-5.39.78-.29,0-.57,0-.86,0l-4.37,0ZM93.51,48A8.33,8.33,0,0,0,96,47.58a13.1,13.1,0,0,0,3.78-2,20.35,20.35,0,0,0,6.5-8,12.93,12.93,0,0,0,1.15-4.19,6.84,6.84,0,0,0-.56-3.57A4.35,4.35,0,0,0,104,27.37a7.2,7.2,0,0,0-3.39,0,12.21,12.21,0,0,0-5,2.32,20.35,20.35,0,0,0-6.48,8.24,12.21,12.21,0,0,0-1.08,4.36,6.82,6.82,0,0,0,.53,3.12,4.28,4.28,0,0,0,2.56,2.35A6.7,6.7,0,0,0,93.51,48Z"/><path class="cls-6" d="M254.44,41.85a10.14,10.14,0,0,0-2.05-2.35c-.74-.7-1.49-1.38-2.29-2a30.68,30.68,0,0,0-2.54-1.81c-.85-.54-1.74-1-2.64-1.49s-1.86-.88-2.85-1.34c.16-.24.28-.43.41-.61a43.68,43.68,0,0,1,11.88-10.79,54.26,54.26,0,0,1,12.31-5.6,76,76,0,0,1,10.52-2.53c2.56-.44,5.14-.77,7.72-1,1.84-.17,3.68-.29,5.53-.37,2.2-.09,4.41-.12,6.62-.18.22,0,.44,0,.74,0a1.68,1.68,0,0,1-.49.48L288,19.62l-25,19.7L239.9,57.58a1.72,1.72,0,0,1-1.13.42c-3.66,0-7.33-.07-11-.11-4.5,0-9-.09-13.49-.15-.6,0-1.19,0-1.82-.05,0-.19-.06-.34-.07-.48a3.73,3.73,0,0,1,0-.47V.85c0-.28,0-.56,0-.81.24-.11.34,0,.46.12a45.09,45.09,0,0,1,7.6,6.67A48,48,0,0,1,230.27,24a65.67,65.67,0,0,1,2.53,10.35c.45,2.69.76,5.4.95,8.12S234,48,234,50.76v.94c.27,0,.28-.23.37-.37a20.4,20.4,0,0,1,3-4,17.62,17.62,0,0,1,8.49-4.83,25.3,25.3,0,0,1,6.88-.69C253.3,41.86,253.84,41.85,254.44,41.85Z"/><path class="cls-6" d="M.25,45.19c0-.69,0-1.38,0-2.07A19.77,19.77,0,0,1,5.42,30.94,31.56,31.56,0,0,1,12.53,25a48.78,48.78,0,0,1,9.33-4.47,65,65,0,0,1,12.45-3.12,53.55,53.55,0,0,1,8-.59c2.42,0,4.83.12,7.24.36a68.17,68.17,0,0,1,12.9,2.54,55.12,55.12,0,0,1,6,2.19c.24.1.47.22.74.35a2.74,2.74,0,0,1-.21.42l-6.51,8.86a2.54,2.54,0,0,1-.19.21c-.18,0-.38-.08-.57-.14A54.36,54.36,0,0,0,55,29.82a37.58,37.58,0,0,0-5.48-.74c-1,0-2-.12-3-.1a26.92,26.92,0,0,0-8.94,1.53A17.33,17.33,0,0,0,31.63,34a13.51,13.51,0,0,0-3.81,6,7,7,0,0,0-.3,1.37A3.62,3.62,0,0,0,29,44.87a6.88,6.88,0,0,0,2.41,1.07,15.52,15.52,0,0,0,3.39.44A34.4,34.4,0,0,0,40.67,46,87.88,87.88,0,0,0,54.25,42.9a1.89,1.89,0,0,1,1-.21c0,.31-.19.49-.32.71q-2.76,4.47-5.54,8.94c-.43.71-.9,1.4-1.3,2.13a2,2,0,0,1-1,.87,40.35,40.35,0,0,1-4.5,1.52,66.24,66.24,0,0,1-7.63,1.59,68.84,68.84,0,0,1-12.67.74A40.53,40.53,0,0,1,11.4,57.48a21.72,21.72,0,0,1-4.9-2.19,13.94,13.94,0,0,1-3.69-3.2A11.83,11.83,0,0,1,.29,45.66C.28,45.5.27,45.35.25,45.19Z"/><path class="cls-6" d="M373.49,53.87c.29-.65,3.91-6,6.43-9.52.11-.15.23-.27.37-.43l.65.47a18.31,18.31,0,0,0,6.55,3.18,22.28,22.28,0,0,0,6.81.56,4.68,4.68,0,0,0,1.72-.46A1.66,1.66,0,0,0,397,45.6,4.68,4.68,0,0,0,396.2,44a20.43,20.43,0,0,0-1.35-1.72c-.7-.76-1.45-1.48-2.2-2.2a33.52,33.52,0,0,1-3.44-3.61,13,13,0,0,1-1.87-3,6.33,6.33,0,0,1,0-5.15,12.66,12.66,0,0,1,3.58-4.74,21.63,21.63,0,0,1,5.61-3.32,39.68,39.68,0,0,1,7.91-2.33,58.8,58.8,0,0,1,7.49-1c2.41-.17,4.82-.27,7.24-.21,2.68.08,5.35.24,8,.58a62.91,62.91,0,0,1,10,2,27.49,27.49,0,0,1,4.31,1.59c.84.4,1.65.88,2.46,1.34a4.57,4.57,0,0,1,.48.35.54.54,0,0,1,0,.11l0,.06-.42.35-8.17,6.65c-.22-.05-.42-.1-.61-.16a70.62,70.62,0,0,0-8.46-2.1,32.58,32.58,0,0,0-6.83-.55,11.29,11.29,0,0,0-2.31.33,4.4,4.4,0,0,0-1.5.63,1.81,1.81,0,0,0-.77,2.36,5,5,0,0,0,.58,1.1,9.14,9.14,0,0,0,2,2.06c.88.68,1.79,1.33,2.72,2,1.55,1,3.1,2.09,4.55,3.28a19.58,19.58,0,0,1,2.57,2.5,7.73,7.73,0,0,1,1.4,2.32,3.47,3.47,0,0,1-.39,3.27c-.08.13-.17.26-.26.39a23.84,23.84,0,0,1-7,6.66,32.57,32.57,0,0,1-9.06,3.87,48.29,48.29,0,0,1-7.05,1.29,59.53,59.53,0,0,1-9.81.23,62.52,62.52,0,0,1-21.29-4.94Z"/><path class="cls-1" d="M266.73,57.77c0-.05,0-.11,0-.14q12.47-20,24.91-40l.13-.07.07,0,.39,0h25.66a.53.53,0,0,1,.16,0c.09.24-.1.39-.2.55l-4.77,8.05L294.84,56.89l-.55.89C293.48,57.87,267.32,57.86,266.73,57.77Z"/><path class="cls-7" d="M470.47,48.65l.17,0-.06.17Z"/><path class="cls-7" d="M345.05,49c.05-.06.1-.13.17,0s-.06.07-.09.11A.6.6,0,0,0,345.05,49Z"/></g></g></g></svg>