<svg xmlns="http://www.w3.org/2000/svg" viewBox="0 0 550.66 91.59"><defs><style>.cls-1{fill:#0161aa;}.cls-2{fill:#0a67ad;}.cls-3{fill:#0162aa;}.cls-4{fill:#0262aa;}.cls-5{fill:#0564ab;}.cls-6{fill:#f9fbfc;}.cls-7{fill:#fefefe;}.cls-8{fill:#106aaf;}</style></defs><g id="Capa_2" data-name="Capa 2"><g id="Capa_2-2" data-name="Capa 2"><g id="XU2swh.tif"><path class="cls-1" d="M530.08,0c0,.29,0,.58,0,.87V50.5c-1.48-.31-2.86-.66-4.27-.87-4.38-.65-8.76-1.34-13.16-1.83a134.9,134.9,0,0,0-16.58-.69,2.08,2.08,0,0,1-1-.27,37.29,37.29,0,0,0-13.37-4.16,61.18,61.18,0,0,0-11.87-.37,75.27,75.27,0,0,0-12.91,2,97.72,97.72,0,0,0-18.45,6.45l-.76.34a10.67,10.67,0,0,1,0-1.51c0-.19.3-.4.51-.5a133.81,133.81,0,0,1,15.16-5.75,154.07,154.07,0,0,1,23.33-5.28,172.49,172.49,0,0,1,30-1.7,148.78,148.78,0,0,1,16.06,1.31l.61.1,0-.15c-.21-.07-.42-.15-.64-.2a118.23,118.23,0,0,0-17.34-2.82c-5.2-.41-10.41-.73-15.62-.85-3.85-.09-7.7.22-11.56.29a8.55,8.55,0,0,1-2.23-.34,57.36,57.36,0,0,0-15.68-1.32,83.11,83.11,0,0,0-22.07,4.26c-.14,0-.29.08-.54.15,0-.69,0-1.33,0-2,0-.17.34-.37.56-.45A138.08,138.08,0,0,1,453,29.67,156.71,156.71,0,0,1,471.35,26a167,167,0,0,1,27-1.55,131.46,131.46,0,0,1,16.34,1.28.84.84,0,0,0,.54-.11c-1.48-.26-3-.56-4.44-.79a158,158,0,0,0-59.72,2,22.35,22.35,0,0,1-2.73.19l-10.6,1v-1l8.37-.92v-.22l-8.4-1.29c0-.06,0-.23,0-.41V.33c0-.11,0-.22,0-.33ZM484,38.53a48.27,48.27,0,0,1,7.19,4.12,12.17,12.17,0,0,0,1.93.9,22.2,22.2,0,0,0-4.64-4.4,3.18,3.18,0,0,0-2.88-.79A10.45,10.45,0,0,1,484,38.53Zm-11.5-7,0-.18a26.54,26.54,0,0,0-6.75-2.83,1.51,1.51,0,0,0-.6,0l-3.07.53Z"/><path class="cls-2" d="M550.66,87.25c-.09.24-.18.48-.28.72a4.92,4.92,0,0,1-4.47,3.4,4.87,4.87,0,0,1-5-2.64,4.75,4.75,0,0,1,.41-5.47,5,5,0,0,1,5.19-1.88,4.82,4.82,0,0,1,3.92,3.52,4.73,4.73,0,0,0,.2.47Zm-.81-1a4.37,4.37,0,1,0-4.4,4.3A4.35,4.35,0,0,0,549.85,86.3Z"/><path class="cls-1" d="M437.74,70.06a1.45,1.45,0,0,1,0-.16c-.09-2.11-.09-2.11,1.86-3.17a132,132,0,0,1,32.12-12.24,154.77,154.77,0,0,1,19.49-3.37,164.84,164.84,0,0,1,25.23-.87c4.29.18,8.58.61,12.87.93.24,0,.48.07.76.11V91.37h-10.5c-.39-1-.74-2-1.19-3a22.16,22.16,0,0,0-12-11.42,36,36,0,0,0-11.57-2.7c-10.62-.84-20.83,1.17-30.78,4.64a107.24,107.24,0,0,0-18.75,8.26c-2.07,1.2-4,2.58-6.05,3.85a9.56,9.56,0,0,1-1.45.62c0-.4,0-.6,0-.79q0-8.05,0-16.11a.76.76,0,0,1,.46-.84A123.13,123.13,0,0,1,461.78,65a81.51,81.51,0,0,1,22.74-2.62,43.84,43.84,0,0,1,22.29,6.47,24.29,24.29,0,0,1,9.89,11.35c.32.78.51,1.61.78,2.42.54,1.66,1.1,3.32,1.65,5l.25-.05c0-.3,0-.61,0-.92s-.07-.67-.13-1c-.9-5.53-2.41-10.86-5.55-15.59a27.66,27.66,0,0,0-14.28-10.74A47.82,47.82,0,0,0,481,56.85c-15.23.66-29.24,5.41-42.45,12.78Zm59.82-18.2V52a4,4,0,0,0,.45.26,28.13,28.13,0,0,1,10.45,9,30.44,30.44,0,0,0,2.26,2.58,1.64,1.64,0,0,0,0-.33q-.13-.37-.3-.75c-1.86-4.14-4.79-7.5-7.9-10.73-.16-.16-.41-.37-.61-.36C500.46,51.71,499,51.79,497.56,51.86Zm21.83,36,0,0h0Z"/><path class="cls-1" d="M223.7,61h-1.13c-2.94,0-5.87,0-8.81,0a.87.87,0,0,1-.93-.62c-1.25-2.74-2.55-5.46-3.8-8.2a.85.85,0,0,0-.9-.59q-9,0-18,0a.84.84,0,0,0-.9.57c-1.22,2.76-2.49,5.49-3.71,8.25a.81.81,0,0,1-.88.59c-3.12,0-6.23,0-9.34,0-.2,0-.39,0-.66,0,.11-.25.18-.46.27-.66Q184,40.89,193.12,21.48a.79.79,0,0,1,.85-.54c3.47,0,6.95,0,10.42,0a.79.79,0,0,1,.86.53q9.09,19.44,18.19,38.87C223.53,60.52,223.59,60.7,223.7,61ZM199.19,30.64c-2.13,4.63-4.19,9.11-6.29,13.66h12.17l.34,0Z"/><path class="cls-1" d="M102.49,58.88V70.64h-9v-.81q0-16.41,0-32.81a19.83,19.83,0,0,0-.8-5.88,4.62,4.62,0,0,1-.1-.51,5.24,5.24,0,0,1,.53-.05c2.62,0,5.24,0,7.86,0,.43,0,.64.1.72.55.12.68.34,1.33.49,1.9,1.55-.71,3.06-1.51,4.63-2.12a18.82,18.82,0,0,1,9.21-.75,29,29,0,0,1,5,1,10.68,10.68,0,0,1,7.75,8.45,29.57,29.57,0,0,1,0,12.32,10.52,10.52,0,0,1-7.35,8.32,24.07,24.07,0,0,1-14.08.65A40.79,40.79,0,0,1,102.49,58.88Zm18-12.93c-.14-1.43-.21-2.66-.4-3.86a6.44,6.44,0,0,0-5.55-5.82,15.24,15.24,0,0,0-5.94.16A7,7,0,0,0,103,42a15.73,15.73,0,0,0,0,7.44A7.15,7.15,0,0,0,108,55a13.79,13.79,0,0,0,6.57.36,6.24,6.24,0,0,0,5.36-5.2C120.27,48.71,120.36,47.23,120.52,46Z"/><path class="cls-1" d="M45.11,53.47a15.7,15.7,0,0,1-3.59,3.64,22.65,22.65,0,0,1-10.47,4,41.14,41.14,0,0,1-15.48-.46C7.14,58.72,2,53.52.43,45A21.66,21.66,0,0,1,3.27,29a17.86,17.86,0,0,1,10.58-7.77,37.23,37.23,0,0,1,22.4.38,17.54,17.54,0,0,1,8.48,6l.43.61c-.76.3-1.48.59-2.2.86-2.23.86-4.46,1.73-6.69,2.56a.75.75,0,0,1-.68-.07,11.15,11.15,0,0,0-7.15-4.13,21,21,0,0,0-9,.23,10.88,10.88,0,0,0-8,7.38A16.72,16.72,0,0,0,11.73,47a10.62,10.62,0,0,0,7.6,6.77,20.06,20.06,0,0,0,11-.22,10.55,10.55,0,0,0,5.07-3.38A.69.69,0,0,1,36,50c3,1.11,6,2.25,9,3.38A1.1,1.1,0,0,1,45.11,53.47Z"/><path class="cls-1" d="M385.23,54.25c-.31,2-.61,4-.92,6-1.23.21-2.47.46-3.73.64a56.42,56.42,0,0,1-12.59.55,24.47,24.47,0,0,1-8.25-1.92,11.71,11.71,0,0,1-6.95-8.71,24.21,24.21,0,0,1,.1-10.58,11.55,11.55,0,0,1,7.76-8.64,28.71,28.71,0,0,1,17.18-.7c5.2,1.39,8.14,5,9.18,10.21a36.34,36.34,0,0,1,.4,7.68H361.69A6.57,6.57,0,0,0,367,55a19.74,19.74,0,0,0,6.67.46c3.72-.36,7.43-.82,11.14-1.24Zm-7-11.59a6.39,6.39,0,0,0-4.74-6.26,13.2,13.2,0,0,0-7.79.47c-2.67,1-3.74,3.11-4.08,5.79Z"/><path class="cls-1" d="M168.71,60.94h-8.9c-.17-.74-.35-1.48-.5-2.16-5.66,3.34-11.58,3.51-17.66,1.59a9.37,9.37,0,0,1-5.53-4.21,8.44,8.44,0,0,1,3.16-11.63,19.19,19.19,0,0,1,7.45-2.25c3.91-.47,7.78,0,11.66.33l.4,0c.33-3.23.34-4.91-3.19-6.07a15.26,15.26,0,0,0-6.45-.4,86.62,86.62,0,0,0-11.41,2.4l-.61.12c.17-1.17.33-2.26.5-3.36.12-.77.23-1.54.39-2.31a.87.87,0,0,1,.45-.54C143.18,31,148,29.72,153,29.94a23.7,23.7,0,0,1,9.31,2,9,9,0,0,1,5,5,8.85,8.85,0,0,1,.49,2.88c0,4.94,0,9.89,0,14.83a19.24,19.24,0,0,0,.76,5.69A5.29,5.29,0,0,1,168.71,60.94ZM159,48.22c-3.28,0-6.44,0-9.58,0a7.39,7.39,0,0,0-3.87,1.21A2.82,2.82,0,0,0,144,52a3.22,3.22,0,0,0,3.12,3.38,20.44,20.44,0,0,0,7.51-.54c2.16-.59,3.74-1.83,4.14-4.16A20.17,20.17,0,0,0,159,48.22Z"/><path class="cls-1" d="M68.27,30a25,25,0,0,1,10.41,2,13.06,13.06,0,0,1,7.71,9.67,19.59,19.59,0,0,1-.34,9.68c-1.4,4.68-4.64,7.56-9.2,9.07A29.23,29.23,0,0,1,65.5,61.54,21.71,21.71,0,0,1,57,59.35a13.19,13.19,0,0,1-7.31-10.64,18.89,18.89,0,0,1,.84-9.25c1.64-4.37,4.94-6.94,9.28-8.32A28.37,28.37,0,0,1,68.27,30Zm-.38,25.66c1.1-.09,2-.12,2.84-.23,3.62-.44,6-2.45,6.73-5.77a17.33,17.33,0,0,0,.05-7.45,6.89,6.89,0,0,0-5.43-5.65,16,16,0,0,0-7.85,0,6.89,6.89,0,0,0-5.43,5.64,17.88,17.88,0,0,0-.1,6.8,7.06,7.06,0,0,0,6,6.25C65.78,55.48,67,55.54,67.89,55.65Z"/><path class="cls-3" d="M321,60.94h-9v-.76q0-10.68,0-21.34c0-2.77.12-5.55-1-8.26a5.57,5.57,0,0,1,.58-.07c2.64,0,5.29,0,7.93,0,.49,0,.66.15.72.62.1.72.27,1.44.43,2.24.31-.24.56-.45.82-.64A14.1,14.1,0,0,1,328.93,30a26.11,26.11,0,0,1,9.71.9,8.92,8.92,0,0,1,6.54,7.79,32.78,32.78,0,0,1,.36,4.74c0,5.64,0,11.28,0,16.91,0,.18,0,.35,0,.57H336.6V60.2c0-5.61,0-11.23,0-16.84a18.28,18.28,0,0,0-.49-4,4.05,4.05,0,0,0-3.81-3.25,16.15,16.15,0,0,0-6.84.6A5.9,5.9,0,0,0,321,42.62c-.06,5.81,0,11.63,0,17.44Z"/><path class="cls-1" d="M393.66,59.68V52.8c.71.3,1.38.59,2,.85a29,29,0,0,0,11.52,2.18,10.91,10.91,0,0,0,4.26-.81,2.56,2.56,0,0,0,1.58-3.33,2.71,2.71,0,0,0-1.9-1.76c-1.94-.53-3.88-1-5.85-1.46a32.23,32.23,0,0,1-8.07-2.37,7.94,7.94,0,0,1-.68-13.61,16.32,16.32,0,0,1,7.19-2.39,42.2,42.2,0,0,1,15.37,1.28.68.68,0,0,1,.61.81c0,1.86,0,3.71,0,5.57,0,.19,0,.38,0,.47-1.84-.65-3.64-1.4-5.5-1.9a19.26,19.26,0,0,0-9.3-.35,5.53,5.53,0,0,0-1.83.79,1.93,1.93,0,0,0,0,3.41,13.44,13.44,0,0,0,4.63,1.69c2.55.6,5.11,1.12,7.64,1.77A11.29,11.29,0,0,1,418,44.75c3.24,1.77,4.44,4.63,4.22,8.18-.24,3.94-2.55,6.25-6.12,7.46a28.82,28.82,0,0,1-10.28,1.15,51.67,51.67,0,0,1-11.47-1.68Z"/><path class="cls-1" d="M445.3,91.21c2.28-1.1,4.54-2.26,6.85-3.29a90.9,90.9,0,0,1,22.65-6.68,67.22,67.22,0,0,1,18.14-.68,37.8,37.8,0,0,1,15.67,4.74A20.86,20.86,0,0,1,515,91c.08.1.14.2.25.37H445.36Z"/><path class="cls-4" d="M255.12,60.94h-9v-.8c0-7.89,0-15.79,0-23.68a17.49,17.49,0,0,0-.75-5.29c0-.15-.08-.3-.12-.45s0-.08,0-.16a1.34,1.34,0,0,1,.3,0c2.71,0,5.42,0,8.13,0a.51.51,0,0,1,.6.46c.17.74.4,1.46.63,2.28,4.74-3.92,10.11-3.73,15.69-2.57.32,2,.64,4,1,6.08l-3.7-.44a18.45,18.45,0,0,0-7.72.32,6.5,6.5,0,0,0-5.11,6.75V60.94Z"/><path class="cls-1" d="M276.1,21h9v.81q0,16.68,0,33.35a16.34,16.34,0,0,0,.74,5.15c.06.19.1.38.17.62-.22,0-.4,0-.57,0-2.6,0-5.2,0-7.8,0-.42,0-.67-.09-.74-.54a30.79,30.79,0,0,1-.74-4.6c-.07-11.39,0-22.77,0-34.16Z"/><path class="cls-4" d="M228.25,30.53h8.94v.78c0,7.94,0,15.88,0,23.82a16.72,16.72,0,0,0,.79,5.35,2.65,2.65,0,0,1,.11.43,3.74,3.74,0,0,1-.53.06c-2.6,0-5.2,0-7.8,0-.43,0-.67-.11-.74-.55a26,26,0,0,1-.75-4.33c-.07-8.36,0-16.73,0-25.09C228.23,30.87,228.24,30.74,228.25,30.53Z"/><path class="cls-1" d="M304,61c-3,0-5.81,0-8.63,0a.76.76,0,0,1-.52-.44,13.63,13.63,0,0,1-.81-4.6q0-12.37,0-24.76c0-.19,0-.39,0-.62H303v.81q0,10.64,0,21.27C303,55.4,302.83,58.21,304,61Z"/><path class="cls-4" d="M437.69,60.42c0-1.82,0-3.54,0-5.26,0-.18.27-.43.47-.51a108.8,108.8,0,0,1,16.55-5.39,81.71,81.71,0,0,1,22.08-2.41c2.52.1,5,.38,7.56.71A139.25,139.25,0,0,0,437.69,60.42Z"/><path class="cls-4" d="M232.46,28.23c-.75-.1-1.67-.17-2.57-.33a2.85,2.85,0,0,1-1.16-.49c-1.18-1-1.12-2.32-1-3.64a2.53,2.53,0,0,1,2-2.44,12.35,12.35,0,0,1,6,0,2.45,2.45,0,0,1,1.94,2.14,6.81,6.81,0,0,1,.11,1.27c0,2.08-.93,3.09-3,3.34C234.06,28.12,233.34,28.16,232.46,28.23Z"/><path class="cls-4" d="M298.51,28.25c-.95-.12-1.91-.19-2.86-.36a2.29,2.29,0,0,1-2-2.11,9.58,9.58,0,0,1,0-2.27,2.56,2.56,0,0,1,2.23-2.28,13.1,13.1,0,0,1,5.4,0,2.61,2.61,0,0,1,2.27,2.67c.21,2.86-.63,3.88-3.47,4.2-.51.06-1,.07-1.54.11Z"/><path class="cls-5" d="M437.71,42.89V40a88.53,88.53,0,0,1,28.79-4.59A138.18,138.18,0,0,0,437.71,42.89Z"/><path class="cls-6" d="M544.37,86.6a.92.92,0,0,1,1.28.44c.29.53.68,1,1,1.52a.86.86,0,0,0,1.24.43l-1.61-2.46a4.91,4.91,0,0,0,.54-.1A1.41,1.41,0,0,0,548,84.82a1.26,1.26,0,0,0-1.26-1.31c-1-.07-2,0-3.1,0v5.56h.75Z"/><polygon class="cls-7" points="519.39 87.88 519.38 87.83 519.41 87.83 519.39 87.88"/><path class="cls-8" d="M544.37,86.6v2.46h-.75V83.5c1.06,0,2.08-.06,3.1,0A1.26,1.26,0,0,1,548,84.82a1.41,1.41,0,0,1-1.18,1.61,4.91,4.91,0,0,1-.54.1L547.87,89a.86.86,0,0,1-1.24-.43c-.3-.52-.69-1-1-1.52A.92.92,0,0,0,544.37,86.6Zm0-2.32v1.36c.68,0,1.34,0,2,0,.39,0,.76-.17.78-.66s-.39-.66-.81-.68C545.76,84.25,545.14,84.28,544.41,84.28Z"/></g></g></g></svg>