<svg xmlns="http://www.w3.org/2000/svg" viewBox="0 0 935.75 217.94"><defs><style>.cls-1{fill:#002c6a;}</style></defs><g id="Capa_2" data-name="Capa 2"><g id="Capa_1-2" data-name="Capa 1"><g id="Pib0kp.tif"><path class="cls-1" d="M427.54,217.94c-9.54-5.36-11.19-9.2-8.81-20.74.91-4.45,1.91-8.88,2.93-13.31A22.64,22.64,0,0,1,444,166.27q14,0,27.95,0c7.17,0,8.08-1.08,7.26-9.15H441.46c-5.31,0-8.39-2.37-10.37-8.37,1.53-.14,2.93-.37,4.34-.37,20.29,0,40.59-.2,60.88.06,9.78.12,14.87,3.21,16.57,11.18.7,3.29-.38,7.07-1.1,10.54-2.33,11.28-5,22.49-7.28,33.78-.86,4.23,2.3,5.22,7.35,5.44l-11.38,8.57Zm48.68-43.88c-5.65,0-10.29-.29-14.86.17-1.42.15-3.44,2.13-3.8,3.62-2.25,9.14-4.18,18.36-6.06,27.58-.59,2.89.39,4.85,3.92,4.67,3.16-.16,6.42.42,9.45-.21a7.34,7.34,0,0,0,4.57-3.89,68.08,68.08,0,0,0,2.84-11.31C473.62,188.06,474.83,181.41,476.22,174.06Z"/><path class="cls-1" d="M275.71,217.94c-10.46-5.41-11.11-10.43-9-19.71,2.59-11.23,4.15-22.72,7.29-33.78,2.81-9.87,10.39-15.56,22.21-16,16.28-.55,32.59-.26,48.89-.1,11.77.12,17.22,6.67,15.36,18.2a124.92,124.92,0,0,1-3.23,15.75c-1.72,5.79-4,11.64-10.07,14.39-3.18,1.44-6.67,2.92-10.08,3.05-10.29.39-20.62.1-30.93.17-3,0-6.11.12-6.59,4.22-.47,3.94.39,6.1,5.23,6,14.58-.29,29.17-.1,44.26.93l-9.44,6.84Zm44.93-25.8c2.49-11.64,4.94-23.06,7.49-35-5.41,0-9.88.2-14.31-.07-3.27-.2-4.6,1.67-5.12,4.17-1.89,9-3.31,18.18-5.44,27.16-.81,3.41.55,3.74,3,3.75C310.92,192.17,315.54,192.14,320.64,192.14Z"/><path class="cls-1" d="M0,213c2-8.26,4.23-16.48,6-24.78,3.51-16,6.24-32.27,10.44-48.12,1.79-6.77.45-11.81-4-17.32h85c.75,7.2.5,7.49-6.06,7.5-11,0-22,.1-33-.05-4.15-.06-6.07,1-6.77,5.67-1.26,8.33-3.64,16.48-5.46,24.72a40,40,0,0,0-.38,5.6H87c-4.79,7.44-11.52,8.46-19.14,7.95-6.63-.44-13.32,0-20-.13-3-.05-4.66.4-5.3,4.08-1.48,8.46-3.88,16.76-5.67,25.18-1.18,5.52,0,6.8,5.73,6.8,11.41,0,22.82,0,35.64,0l-9.4,7.87H0Z"/><path class="cls-1" d="M519.45,217.94c1.84-9.58,3.58-19.17,5.57-28.72s4.51-19.29,6.26-29c.38-2.16-1.36-4.79-2.4-7.07-.61-1.36-1.78-2.46-3.28-4.45,2.18-.16,3.25-.31,4.33-.31,23.79,0,47.59-.33,71.37.13,11.34.22,15.65,4.19,16.17,13.62.19,3.44-.9,7-1.44,10.43-.2,1.28-.57,2.53-.79,3.81-1,5.61-.72,5.93,5.87,7.16-4.56,4.74-8.6,9-15.81,8.55-7.8-.45-15.64-.12-23.46-.1-3.17,0-4.9-.3-3.68-4.54,2.37-8.25,3.94-16.73,5.78-25.13.33-1.52.36-3.11.58-5.16-5.32,0-10.15-.33-14.89.18-1.54.17-3.76,2.3-4.12,3.88-3.91,17.43-7.49,34.93-11.24,52.39a24.74,24.74,0,0,1-1.86,4.36Z"/><path class="cls-1" d="M83.91,217.94c3.47-4.82,7.71-8,14.12-7.93,11,.2,22-.09,33,.13,4.29.09,6.31-1.68,7-5.71s1.47-7.89,2.34-12.47H107.76C94.82,192,89.14,184.91,92,172.4c1.37-6,2.16-12.08,7-16.83a23.93,23.93,0,0,1,16.75-7.1c21.31-.3,42.62-.12,63.92-.09a14.65,14.65,0,0,1,2.66.55c-4.78,5.49-9.74,8.73-17.15,8.33-10.29-.57-20.63,0-30.95-.2-3.49-.05-5.52.41-5.67,4.71s-1.47,8.51-2.41,13.46H160c11.1,0,16.34,6.13,14.71,17.13-1.35,9.1-3.71,17.63-12.55,22.55-2,1.14-4.23,2-6.35,3Z"/><path class="cls-1" d="M210.77,217.94c-12.79-4.88-12.14-11.86-9.47-24.61,2.36-11.28,5-22.5,7.52-33.75a10,10,0,0,0-.18-2.37h-24.9c4.83-4.6,8.14-8.65,14-8.85,2.5-.08,5,.19,7.48-.07,2.16-.23,5.76-.51,6.11-1.6,1-3.16,2.2-6.83-.58-10-1.28-1.46-2.34-3.12-4-5.39L251,122.84c-2.07,9-3.88,16.84-5.85,25.43h25.29c-4.44,5.66-8.71,8.84-15,8.87-12.28,0-12.29.09-14.76,12-2.53,12.25-4.89,24.53-7.62,36.74-.77,3.44.55,4.18,3.42,4.18a121.91,121.91,0,0,1,19.68,1.07l-8.46,6.8Z"/><path class="cls-1" d="M366.61,217.94c.57-5,.74-10.16,1.79-15.1,4.25-20.17,9.08-40.22,12.9-60.46.61-3.23-2.83-7.22-4.6-11.32l43.14-8.18c-1.73,8.47-3.14,15.75-4.72,23q-6.22,28.55-12.59,57.05c-1.08,4.87,1.75,6.29,6.67,6.5l-9.63,8.51Z"/><path class="cls-1" d="M7.25,105.14Q25,74.75,42.73,44.46c3.61-6.18,7.54-12.23,10.54-18.7,1.17-2.52.66-6.12.09-9.07-.76-4-.17-5.86,4.45-5.78,11.3.21,22.62.32,33.91-.06,4-.14,5.39,1.79,5.93,4.89,2.79,16,5.38,32.06,8.18,48.08,2.26,13,4.54,25.92,7.2,38.81.57,2.77.31,3.71-2.41,3.71-12.14,0-24.28.12-36.41-.16-1.43,0-3.39-2-4.1-3.51a22.26,22.26,0,0,1-2-8c-.25-4.81-2.28-6.59-7.17-6.35-7.47.35-15,.27-22.44,0-3.83-.13-6.24,1.23-7.87,4.59-1.06,2.19-2.49,4.2-3.73,6.31C22.59,106.6,16.09,108.64,7.25,105.14ZM59.18,45.55h-1.7C51.74,57.11,44,67.65,39.14,80.27H65.42Z"/><path class="cls-1" d="M537.31,37.06c1.53-.06,3.11-.19,4.69-.19,23.29,0,46.59.05,69.88,0,11.59,0,18.7,8.25,15.62,19.06C624.21,67.41,623,79.51,620,91.14c-1.39,5.42,1.23,6.21,5.67,6.9-4.16,5.19-8.36,8.67-15.1,8.39-8-.34-16-.15-24-.05-3.26,0-4.13-.65-3.29-4.26,3.86-16.6,7.35-33.28,10.86-50,.4-1.88.06-3.91.06-6.52-5,0-9.93-.19-14.84.15-1.08.07-2.68,1.87-3,3.11-3.82,17.28-7.57,34.58-11.05,51.94-.77,3.85-2,5.75-6.33,5.59-8.14-.3-16.3-.07-24.45-.1-1.43,0-2.85-.18-4.94-.32,2.56-11.86,5-23.2,7.46-34.52,1.7-7.77,4.14-15.45,4.92-23.3C542.37,44.93,539.24,41.32,537.31,37.06Z"/><path class="cls-1" d="M365.68,106.35c-8.14,0-16.3-.2-24.44.05-10.55.32-18.17-6.08-15.39-19,2.31-10.79,4.67-21.56,6.92-32.37,2-9.72,12-18,22.35-18.1,16.63-.14,33.27-.19,49.9,0,10.3.13,18.07,7.17,14.75,19.33-3,10.94-4.77,22.21-7.28,33.29a21.93,21.93,0,0,1-20.86,16.79C383,106.41,374.33,106.35,365.68,106.35Zm1.45-7.78c3.82-.33,9,1.7,10.39-4.71C380.7,79,383.68,64,387.08,49.17c.74-3.22-.62-3.47-2.86-3.52-3.81-.07-7.65.16-11.45-.08-2.86-.19-3.74,1.33-4.24,3.63-3.3,15-6.64,30.05-9.89,45.09-.52,2.42.16,4.32,3.21,4.28C363.51,98.55,365.17,98.57,367.13,98.57Z"/><path class="cls-1" d="M747.42,36.86h5.79c19.3,0,38.6.21,57.9-.07,14.29-.2,21.84,6.48,17.7,22.43-2.9,11.14-5.31,22.43-7.34,33.75-.3,1.69,2.66,4,4.62,6.66-3.18,2.85-7,6.89-13.69,6.81-20.29-.25-40.59-.09-60.89-.09-13.19,0-18.84-6.92-16.12-19.74,1-4.61,1.92-9.22,3-13.8,2.31-10,12.47-18.63,22.29-18.13,9.13.46,18.3.1,27.45.1,8.15,0,8.54-.43,7.81-9.15H773.19c-4.16,0-8.34-.31-12.47.07C754.46,46.26,750.19,44,747.42,36.86Zm29.45,61.71c3.9-.24,9.08,1.52,10.37-5.26q2.55-13.4,5.62-26.69c.7-3-.38-4-3.1-4.05-3.32,0-6.67.21-10-.08-3.69-.33-5,1.62-5.7,4.7-2,9-4,18.07-5.88,27.12-.52,2.46.2,4.31,3.24,4.26C773.11,98.55,774.77,98.57,776.87,98.57Z"/><path class="cls-1" d="M717.13,98.58c-3.94,4.26-7.58,8-14,7.9-18.14-.38-36.29-.11-54.44-.14-9.65,0-15.6-8-13.42-17.53,2.54-11.09,5.18-22.18,7-33.4,1.42-8.93,11.82-18.68,23.41-18.58,15.65.13,31.3,0,47,0,13.33,0,18.67,6,16.49,18.91a156.25,156.25,0,0,1-4,18,20.62,20.62,0,0,1-19.92,14.61c-10.16,0-20.31,0-30.47,0-3.58,0-6.08,1.1-6.49,5.07-.34,3.38.53,5.21,4.55,5.17C687.53,98.47,702.33,98.58,717.13,98.58ZM696.85,46.19c-17.2-2.19-17.2-2.19-21,13.17,0,.15-.2.28-.23.44-1.29,6.75-2.58,13.5-4,20.86,4.6,0,8.06-.21,11.49,0,4.43.34,7.88,0,7.72-5.8-.06-1.87.87-3.75,1.26-5.65C693.66,61.67,695.22,54.08,696.85,46.19Z"/><path class="cls-1" d="M206,98.58c-5.22,4.23-8.95,8-15.24,7.86-18-.26-35.93-.08-53.89-.1-10.65,0-17-7.32-14.82-17.6,2.37-11.27,5.38-22.4,7.7-33.68,2.47-12,12-17.9,22.39-18.11,16.46-.34,32.93-.19,49.4-.05C210.1,37,215,41,217.24,48.84c.17.63.55,1.37.37,1.9-3.33,9.75-2.08,20.9-8.91,29.56-3.75,4.77-8.44,8.11-14.85,8.12-10.65,0-21.29,0-31.94,0-4.72,0-7.4,2.42-6.95,6.78.32,3.12,3,3.39,5.63,3.38,13.47,0,26.95,0,40.42,0ZM176.78,80.41l7.46-34.78c-5.22,0-9.53.23-13.8-.07-3.65-.26-5.06,1.59-5.68,4.68-.26,1.26-.49,2.54-.75,3.8-1.8,8.68-3.6,17.36-5.46,26.37Z"/><path class="cls-1" d="M228.23,36.86h5.3c23.29,0,46.58-.11,69.86.07,6,0,11.66,1.29,15.14,7.22,2.35,4,1.78,8.05,1,12.17-.48,2.38-1.28,4.69-1.82,7.06-1.46,6.42-1.44,6.42,5.63,8.66-4.27,4.91-8.48,8.9-15.64,8.52-7.63-.41-15.3-.2-23,0-3.27.07-4.95-.48-4-4.34,2-8,3.69-16.13,5.44-24.22.4-1.86.53-3.79.87-6.31-5.51,0-10.49-.32-15.38.2-1.38.15-3.2,2.58-3.63,4.26-2,8-3.63,16.16-5.37,24.25-2,9.36-3.84,18.77-6.18,28.05a6.31,6.31,0,0,1-4.56,3.77c-8.8.37-17.62.13-26.44.2-3.28,0-4-1.58-3.35-4.44C226,84.67,230,67.43,233.49,50.11c.51-2.5-1.05-5.52-2-8.17C230.92,40.36,229.66,39,228.23,36.86Z"/><path class="cls-1" d="M836.18,106.35c5.58-5.81,11-8.39,18.22-7.93,9.78.62,19.63,0,29.45.22,3.75.08,5.95-1.09,6.69-4.87.83-4.25,1.85-8.47,2.92-13.3h-33c-12.89,0-18-7.06-15.49-19.79,1.66-8.63,4.34-16.17,12.42-20.43a25.46,25.46,0,0,1,11-3.23c21.46-.3,42.94-.15,64.41-.13.59,0,1.19.11,2.92.28-4.58,4.74-8.6,8.37-14.6,8.43-11.48.12-23,.09-34.45,0-2.87,0-4.69.43-4.9,3.92a28.67,28.67,0,0,1-2,9c-2.06,5,.72,5.26,4.41,5.23,9.66,0,19.32.24,29-.08,10.23-.34,16.39,6.38,14.64,17.73-.4,2.55-1.28,5-1.87,7.55-2.34,9.92-11.53,17.38-21.57,17.39q-32.21,0-64.41,0Z"/><path class="cls-1" d="M469,98c-4.88,6.16-10.33,9.19-18.15,8.48s-15.86-.16-24.86-.16c1.44-7.31,2.64-14,4.07-20.56,3.78-17.43,7.79-34.82,11.41-52.28.73-3.56,1.1-7.61-2.83-10.32-.88-.61-1.14-2.1-1.86-3.52,11.94-2.29,23.36-4.79,34.89-6.6,8.07-1.27,8.39-.81,6.69,7.51-4,19.7-8.31,39.35-12.51,59-.75,3.48-1.72,6.93-2.4,10.43C462.27,96.21,462.59,96.61,469,98Z"/><path class="cls-1" d="M484.27,37.5a40.9,40.9,0,0,1,4.51-.62c11,0,22,0,32.92,0,3.35,0,5,.18,3.91,4.74-4,16.91-7.19,34-10.84,51-1,4.82,2.71,4.58,5.89,5.68-4.06,4.93-8.2,8.48-14.95,8.2-8-.34-16-.14-23.95-.06-3.13,0-4.21-.46-3.35-4.21C482.09,86,485,69.68,488.84,53.59,490.37,47.29,489.08,42.5,484.27,37.5Z"/><path class="cls-1" d="M500.9,25.71c4.82-8.34,9.13-16,13.68-23.47A5.26,5.26,0,0,1,518.37.13c7-.21,13.94-.1,21.76-.1-6.4,8.28-12.33,16.12-18.49,23.78a6.25,6.25,0,0,1-4.21,1.82C512.14,25.84,506.84,25.71,500.9,25.71Z"/></g></g></g></svg>