<svg xmlns="http://www.w3.org/2000/svg" viewBox="0 0 2869 636.45"><defs><style>.cls-1{fill:#186543;}.cls-2{fill:#a09d9c;}.cls-3{fill:#a09c9c;}.cls-4{fill:#a19d9c;}.cls-5{fill:#325b4b;}.cls-6{fill:#ddf8ef;}.cls-7{fill:#2f5e4b;}</style></defs><g id="Capa_2" data-name="Capa 2"><g id="Capa_1-2" data-name="Capa 1"><g id="wFObIp"><path class="cls-1" d="M2869,140.13c-1.32,6.18-2.47,12.4-4,18.53-7.11,29-23.49,51.61-47.26,69.26-18,13.34-38.3,21.54-60.29,28.05l57.61,126.19H2810q-53.23,0-106.49,0c-3.11,0-4.75-.52-6.2-3.95C2687.4,355,2677,332,2666.88,308.86c-5.41-12.3-10.66-24.68-16.19-36.93a5.35,5.35,0,0,0-3.87-2.65c-14-.2-28-.12-42.49-.12q-4.17,15.7-8.33,31.3c-7,26.25-14,52.5-21.22,78.71a5,5,0,0,1-3.65,2.84c-34,.15-68,.12-103,.12q50.59-188.32,101-376h8.22c45.16,0,90.33-.49,135.49.2,26.35.4,52.69,2.36,78.13,10.6,21.33,6.92,40.24,17.63,55,34.72,11,12.82,17.65,28,21,44.56.67,3.31,1.32,6.63,2,9.94Zm-242.82,46c20.89,0,40.7-.17,60.51,0a106.67,106.67,0,0,0,41.12-7.15c19.67-7.79,34-23.06,33.24-45.41-.5-15.3-11.58-29.33-26-32.28a212.47,212.47,0,0,0-34.31-4c-16.77-.65-33.58-.17-50.24-.17C2642.41,126.87,2634.4,156.13,2626.18,186.12Z"/><path class="cls-1" d="M0,376.13c4-14.34,7.94-28.69,12-43,3.93-14,8.62-27.63,17.69-39.41,7.93-10.3,18.41-15.8,30.92-17.52a150.21,150.21,0,0,1,20.25-1q59.25-.12,118.49,0h6.12c-.85,4.16-1.39,7.95-2.41,11.61-4.23,15.18-8,30.52-13.06,45.42-7.9,23.24-22.58,40.47-46.86,47.89a44,44,0,0,1-12.61,2c-43.5.14-87,.08-130.5.08Z"/><path class="cls-1" d="M1362,168.7c-19.29,72-38.22,142.66-57.16,213.32H1200.22c4.4-16.68,8.7-33.19,13.13-49.66,4.76-17.75,9.7-35.45,14.47-53.19q14.4-53.52,28.69-107.07Q1272.83,111,1289.1,49.91c3.6-13.46,7.32-26.9,10.89-40.37.64-2.42,1.67-3.5,4.4-3.49,30.49.1,61,0,91.48.19,1.4,0,3.43,1.65,4.09,3,6.34,13.26,12.41,26.65,18.63,40,5.93,12.7,12,25.31,17.91,38,5.31,11.5,10.29,23.17,15.63,34.66,5.27,11.34,10.92,22.5,16.22,33.83,8.18,17.47,16.19,35,24.3,52.52.6,1.3,1.39,2.51,2.69,4.82,2.23-8.36,4.18-15.67,6.14-23q9.82-36.62,19.66-73.23,14.44-53.75,29-107.46c.37-1.36,2.52-3.18,3.84-3.19,33.48-.17,67-.14,101.78-.14q-50.61,188.51-101,376H1508.5c-14,0-28-.11-42,.08-3.15,0-4.65-1-5.94-3.77-7.38-16.1-15-32.1-22.48-48.15q-19.42-41.65-38.79-83.32c-6.78-14.52-13.73-29-20.57-43.46-4.6-9.71-9.14-19.45-13.73-29.17C1364.26,172.81,1363.39,171.32,1362,168.7Z"/><path class="cls-1" d="M489.28,6.11H597.67c10.67,0,21.34-.31,32,.06C659,7.21,688.4,8.36,716.4,18.8c14.94,5.57,28.78,12.86,40.73,23.74,18,16.38,27.7,36.79,30.87,60.55,3.27,24.54,1.4,48.62-8,71.75a118.55,118.55,0,0,1-22.26,35.23c-21.57,23.74-49.14,36.81-80.18,45.88,19.14,41.82,38.26,83.61,57.63,126-1.81.1-3.21.24-4.61.24-35.65,0-71.31,0-107,.07-3,0-4.7-.67-6-3.67-7.8-18.29-15.79-36.5-23.79-54.71-6.7-15.23-14.15-30.17-20-45.72-3-8-7.42-9.55-15-9.13-11.28.64-22.63.17-34.38.17-3.47,13.05-6.9,26-10.38,39q-9.31,34.68-18.68,69.35c-.69,2.58-1.11,4.77-4.92,4.75-33-.18-66-.11-99-.12-.65,0-1.3-.08-3.08-.2Q438.87,193.83,489.28,6.11Zm57,180c20.13,0,39.28-.17,58.42,0,14.84.17,29.22-1.7,43.13-7.12,18.9-7.37,34.16-23.68,33.42-45.42-.49-14.14-11.74-29.12-26.13-32.56-14.13-3.38-28.44-4-42.85-3.94-14,.05-27.92,0-41.64,0C562.48,126.9,554.47,156.17,546.28,186.12Z"/><path class="cls-1" d="M1029.79.25c24.08-1.22,47.23,2.69,69.7,10.57a169.4,169.4,0,0,1,52.68,29.8A157.34,157.34,0,0,1,1192.34,91c7.25,14.29,12.71,29.37,14.57,45.38,1.51,12.94,3.09,26,2.9,39-.37,24.34-5.7,47.91-14.3,70.69a214.53,214.53,0,0,1-31.83,56.67,235.5,235.5,0,0,1-37.58,38.1A214.87,214.87,0,0,1,1088,365.5c-22.34,11.27-45.88,19.31-70.95,21.53-15.33,1.36-30.85,2.74-46.15,1.83-28.83-1.7-56.24-9.13-81.75-23.48-20.58-11.58-37.79-26.6-51.3-45.76-6.4-9.07-13.07-18.41-17-28.64a211.26,211.26,0,0,1-11.56-42.55,202.74,202.74,0,0,1-2-42.5,198.32,198.32,0,0,1,9.79-51.21,220.7,220.7,0,0,1,24.12-51.47c6.49-10,14.4-19.19,21.78-28.66,11-14.12,24.79-25.48,39.28-35.52a215.36,215.36,0,0,1,73.4-33C993.51,1.89,1011.54-.86,1029.79.25Zm-7.85,93.47c-4.92.47-9.86.8-14.75,1.44a91.83,91.83,0,0,0-48.72,22.11,123.42,123.42,0,0,0-35.64,50.25c-9.55,25.27-12.52,50.89-3.82,77,6.35,19.09,18.45,33.56,36.56,42.18,16.26,7.74,33.6,9.81,51.64,7.5,21.18-2.72,39.19-11.7,54.8-25.79a118.6,118.6,0,0,0,27.72-37.73c11.93-25.18,16.9-51.26,10.26-78.85-4-16.47-12.28-30.22-25.49-40.94C1059.17,98.5,1041.31,94,1021.94,93.72Z"/><path class="cls-1" d="M2448.1,300.34q-8,30.23-15.93,60.45c-1.83,7-3.58,14-5.4,21.18H2122.28L2223.17,6.24h301.32c-1.43,5.6-2.72,10.88-4.13,16.12-6.13,23-12.36,45.92-18.4,68.92-1,3.9-3,5-7,5q-92.74-.23-185.49-.11h-6.1c-5.09,18.41-10.18,36.87-15.4,55.75h178.85c-1.94,7.29-3.71,14-5.5,20.7-5.09,19-10.37,37.95-15.14,57-1,3.82-2.4,4.61-5.94,4.6-56.17-.1-112.33,0-168.5-.18-4.13,0-6.24,1-7.29,5.14-4.39,17.33-9,34.61-13.56,51.91l.09,2.21a40.83,40.83,0,0,0,5.77.8q92.82.06,185.66.12c2.25,0,4.51,1.29,6.77,2-.11.65-.22,1.29-.32,1.93C2448.61,298.87,2448.35,299.61,2448.1,300.34Z"/><path class="cls-1" d="M1816.75,382H1710.93c25.53-94.58,51-188.9,76.59-283.79H1675.35c1.74-6.93,3.24-13.41,5-19.82,6.15-22.63,12.49-45.22,18.47-67.9.91-3.42,2.17-4.45,5.63-4.45q160,.13,320,.07c1.48,0,3,.13,4.94.22-2.27,9.06-4.37,17.8-6.68,26.48-5.4,20.29-11.08,40.5-16.22,60.85-1,3.85-2.5,4.55-6,4.54-34.16-.1-68.33,0-102.49-.17-4.1,0-6,1.32-6.92,5-8.12,31-16.2,61.94-24.47,92.86-10.7,40-21.6,79.86-32.33,119.82C1828.35,337.71,1822.62,359.75,1816.75,382Z"/><path class="cls-1" d="M1972.9,381.81q9-33.35,18-66.55,9-33.51,18-67,12.36-46.11,24.67-92.25,14.78-55.45,29.51-110.94c3.21-12,6.79-23.94,9.83-36,.88-3.49,3-2.91,5.27-2.91q38.49,0,77,0h23.73c-4.71,17.9-9.27,35.48-13.95,53-6,22.36-12,44.69-18.06,67q-14,52.08-28,104.19-15.53,58-31,116c-2.88,10.76-5.91,21.48-8.82,32.24-.62,2.27-1.43,3.59-4.31,3.58-33.32-.13-66.64-.09-99.95-.1A13.74,13.74,0,0,1,1972.9,381.81Z"/><path class="cls-1" d="M69.07,126.76c-.16-2.17-.67-3.75-.31-5.08C75.11,98.26,81.31,74.79,88.09,51.5,92.31,37,99.39,24,112.36,15.27a45.46,45.46,0,0,1,25.58-8.16q150.1-.51,300.21-1c6.09,0,6.74.83,5.15,6.66-5,18.36-9,37.1-15.35,55-8.14,22.78-23.75,39-48.17,44.91A54.85,54.85,0,0,1,367,114.08c-82,.08-163.93.22-245.9-.06C103,114,86,117.24,69.07,126.76Z"/><path class="cls-1" d="M394.83,143.16c-5.84,21.46-9.51,43.64-20.11,63.56-10.47,19.7-25,34.74-47.73,39.87a51.2,51.2,0,0,1-11.19,1.48q-116.42.13-232.82.06c-15.71,0-30.65,3.13-44.71,10.32-1.56.8-3.59.71-5.4,1,.09-1.84-.14-3.77.33-5.51Q41,225,49,196.09C53.74,179.25,60,163,73.3,151a35.27,35.27,0,0,1,23.54-9L99,141.3h7a40.83,40.83,0,0,0,5.77.8q135.11.06,270.22.08C386.27,142.18,390.55,142.82,394.83,143.16Z"/><path class="cls-2" d="M2367.43,484.13c12.92,0,25.41-.05,37.89.09a5.26,5.26,0,0,1,3.55,1.91q27.24,34.73,54.31,69.59l4.75,6.13V484.47h41.67V634.13h-10.07c-8,0-16,.13-24-.11a7.42,7.42,0,0,1-5.06-2.21c-12.93-16.32-25.68-32.77-38.45-49.2-7.45-9.58-14.86-19.19-23.1-29.83v81h-41.51Z"/><path class="cls-2" d="M2068.46,582.86l34.79,50.68a34.24,34.24,0,0,1-4,.55c-13.66,0-27.33.18-41-.12a9.14,9.14,0,0,1-6.34-3.42q-12.78-18.31-24.89-37.08c-2.19-3.39-4.6-4.75-8.53-4.42-3.61.31-7.26.07-11.36.07v44.6h-42.66V484.13h5.79c25.16,0,50.32-.36,75.47.13,14.77.29,28.4,5,39.22,15.55,8.1,7.9,12.17,18.05,13,29.22,1,14.24-.81,28.1-11.1,39C2081.58,573.51,2074.92,577.7,2068.46,582.86Zm-61.28-27.74c9.4,0,18.36.32,27.27-.14a40.23,40.23,0,0,0,12.82-3.05c5.67-2.3,7.49-7.32,7.79-13.22.33-6.6-1.75-12-7.76-14.85a29.75,29.75,0,0,0-11.32-3.1c-9.52-.44-19.08-.15-28.8-.15Z"/><path class="cls-3" d="M2593.12,519.93V541h71.55v34h-71.41v22.88h79.31v35.89H2551.39V484.59h120.28v35.34Z"/><path class="cls-4" d="M1849.11,633.87h-45.53c-3.11-7.54-6.51-15.36-9.53-23.33-1-2.68-2.4-3.48-5.13-3.46-16.33.1-32.66.14-49,0-2.87,0-4.2,1-5.15,3.47-3,7.72-6.13,15.4-9.28,23.27h-45l64.09-151.67c12.5,0,25-.13,37.46.16,1.6,0,3.93,1.91,4.61,3.49q25,58.5,49.76,117.15C1840.7,613.05,1844.77,623.27,1849.11,633.87ZM1780.25,574c-5.31-13.56-10.36-26.48-15.68-40.06L1748.75,574Z"/><path class="cls-4" d="M2697.29,612l24.49-29.1c8.64,7.21,18,12.61,28.71,15.48,10,2.68,20,4.57,30.21.91,3.7-1.33,6.56-3.88,6-7.52-.44-2.82-2.73-6.53-5.19-7.62a143.53,143.53,0,0,0-21.08-7c-12.94-3.47-26-6.51-37.62-13.62-13.66-8.33-19.48-24.88-17.29-39.43,1.39-9.21,4.21-17.49,10.53-24.65a50.18,50.18,0,0,1,27.25-16.1,100,100,0,0,1,57.65,3.87c7.67,2.86,14.72,7.43,21.89,11.53,1.06.6,2.12,3.47,1.61,4.24-6.38,9.58-13,19-19.71,28.51-10.16-6.67-20-12.12-31.41-13.66a78.57,78.57,0,0,0-15.55-.62c-5.67.37-9.34,3.69-9.77,7.64s3.16,8.69,8.16,10.17c7.59,2.24,15.32,4,22.95,6.1,11.92,3.3,23.8,6.46,34.32,13.61,12.91,8.78,18.27,24.66,15.93,39.09-1.25,7.69-3.3,14.83-7.8,21.19-8.52,12-20.87,18-34.82,20-31.19,4.43-60.38-.67-85.88-20.57C2699.8,613.58,2698.64,612.91,2697.29,612Z"/><path class="cls-2" d="M2134.46,484.3h41.44V597.08h72.75v36.63H2134.46Z"/><path class="cls-3" d="M2282.3,633.73V483.41h42.36V633.73Z"/><path class="cls-3" d="M1879.42,483.31h42.15V633.78h-42.15Z"/><path class="cls-5" d="M2449.19,296.2c-2.26-.69-4.52-2-6.77-2q-92.84-.17-185.66-.12a40.83,40.83,0,0,1-5.77-.8l1.05-.38h16q45.87.07,91.72.14c24.43,0,48.85-.09,73.28-.14h15C2448.39,294,2448.79,295.1,2449.19,296.2Z"/><path class="cls-6" d="M2444,292.92h0Z"/><path class="cls-6" d="M2260,292.93h0Z"/><path class="cls-6" d="M2437,292.92h0Z"/><path class="cls-6" d="M2268,292.92h0Z"/><path class="cls-6" d="M2252,292.92l-1.05.38-.09-2.21Z"/><path class="cls-5" d="M2448.1,300.34c.25-.73.51-1.47.77-2.21C2448.61,298.87,2448.35,299.61,2448.1,300.34Z"/><path class="cls-7" d="M98,140.89l1.05.41-2.17.74C97.21,141.66,97.59,141.28,98,140.89Z"/><path class="cls-6" d="M2448,292.91h0Z"/></g></g></g></svg>