<svg xmlns="http://www.w3.org/2000/svg" viewBox="0 0 507.67 110.92"><defs><style>.cls-1{fill:#d6202a;}.cls-2{fill:#d7222c;}.cls-3{fill:#d7212b;}.cls-4{fill:#eabd40;}.cls-5{fill:#d7222b;}</style></defs><g id="Capa_2" data-name="Capa 2"><g id="Capa_1-2" data-name="Capa 1"><g id="wVR1fS.tif"><path class="cls-1" d="M361.76,110.84c2.56-3,4.66-5.68,6.89-8.18,14-15.76,29.39-30,47.26-41.37C436.19,48.35,458.08,39.64,482,36.22c4.48-.64,9-1,14.07-1.55-1.45,4.07-2.62,7.53-3.92,10.94a157.4,157.4,0,0,1-13.69,28.15c-8.56,13.6-20.58,22.62-35.68,27.87a144.68,144.68,0,0,1-34.67,7.45c-8.94.81-17.91,1.33-26.88,1.71C375,111.05,368.7,110.84,361.76,110.84Z"/><path class="cls-2" d="M88.74,36.81a61.66,61.66,0,0,1,5.93,4.51A12.84,12.84,0,0,1,93.33,61a23.91,23.91,0,0,1-15,5.14c-13-.19-26-.08-39,0-1.59,0-2.21-.29-2.46-2.11A208.61,208.61,0,0,1,35.7,24.22c.23-4.17.83-8.31,1.39-12.45a2.05,2.05,0,0,1,1.51-1.28c13-.07,26-.16,39,0a28.14,28.14,0,0,1,8.8,1.93c8.54,3.07,11.33,11.37,6.5,19.13A56.16,56.16,0,0,1,88.74,36.81ZM52,56.84c8.35,0,16.46.16,24.55-.08,3.06-.08,5.32-1.3,5.63-6.76.16-2.93-1.35-5.08-4.54-5.86a17.23,17.23,0,0,0-3.92-.47c-5.23-.06-10.47,0-15.7,0H52ZM52,34c7.28,0,14.28,0,21.28,0,4.07,0,6.58-2.57,6.58-6.61s-2.29-6.19-6.59-6.2q-9.63,0-19.26,0c-.64,0-1.28.08-2,.13Z"/><path class="cls-3" d="M232.54,43.4,247,66.11c-6.23,0-11.95,0-17.68-.07-.55,0-1.25-.84-1.61-1.44-3.1-5.27-6.17-10.55-9.16-15.87a4.27,4.27,0,0,0-4.41-2.42c-5,.18-10,0-15.08,0-.46,6.61-.9,13.08-1.36,19.74-4.86,0-9.21.05-13.54-.07-.47,0-1.27-1-1.29-1.55-.39-12.27-.81-24.53-.94-36.8,0-5.13.61-10.26.85-15.39.07-1.43.56-1.88,2-1.88,13.89,0,27.78-.24,41.65.14,7.53.2,16.47,5.61,16.56,16.45C243,34.8,239.84,40.08,232.54,43.4ZM198.8,35.91c.74.05,1.31.11,1.89.12,6.12,0,12.25,0,18.37,0a7.44,7.44,0,0,0,7.54-7.59c.05-3.86-3.52-7.3-7.61-7.3H198.8Z"/><path class="cls-2" d="M285.75,66.11c2.24-5.09,4.06-9.91,6.42-14.46C299,38.52,306,25.52,313,12.44a3.28,3.28,0,0,1,3.42-2c4.58.15,9.16.1,13.74,0A2.64,2.64,0,0,1,332.9,12c6.83,13.46,13.73,26.88,20.49,40.37,2.16,4.32,4,8.83,6,13.49a10.71,10.71,0,0,1-1.47.22c-5.09,0-10.19,0-15.28,0a2,2,0,0,1-2.32-1.49,47,47,0,0,0-2.46-5.9,2.84,2.84,0,0,0-2.07-1.37q-13.4-.15-26.8,0a2.65,2.65,0,0,0-1.91,1.28c-1,2-1.65,4.1-2.63,6.07a2.69,2.69,0,0,1-1.88,1.34C297.15,66.15,291.69,66.11,285.75,66.11Zm37.16-44-.57,0-9.87,23.58h20.17Z"/><path class="cls-2" d="M113.7,10.54H165v10.2H129.6c0,4.37,0,8.46.09,12.54,0,.37,1.3,1,2,1,6.86.08,13.73.05,20.59.05h11v9.25H129.59c0,4.29,0,8.37.09,12.45,0,.31,1.21.83,1.86.84,5.61.06,11.23,0,16.84,0h16.56V66H113.75A234.81,234.81,0,0,1,113.7,10.54Z"/><path class="cls-4" d="M507.67.33c-2,5.88-3.88,11.44-5.86,17a2.17,2.17,0,0,1-1.59,1.09c-26.29,2.45-49.64,12.58-71.37,27-2.21,1.46-4.42,2.92-6.64,4.36-.15.1-.42,0-1,0,2.92-3.38,5.51-6.7,8.44-9.68,8.25-8.41,16.45-16.88,25.05-24.93C462.88,7.46,473,3.25,484,1.21,491.75-.22,499.51-.19,507.67.33Z"/><path class="cls-5" d="M1.27,10.44c5.05,0,9.61,0,14.18,0,1.64,0,1.41,1.26,1.5,2.18.31,3.14.7,6.29.73,9.43.08,10.81.11,21.63,0,32.44-.05,3.79-.62,7.58-1,11.62-4.82,0-9.45,0-14.07-.06-.39,0-1.06-.75-1.11-1.21C1,59.65.38,54.47.16,49.27-.07,43.7,0,38.11.14,32.54.38,25.28.87,18,1.27,10.44Z"/><path class="cls-2" d="M275.94,66.11c-4.84,0-9.48,0-14.11-.07a2,2,0,0,1-1.34-1.42c-.52-11.66-1.18-23.31-1.31-35-.07-6.28.79-12.57,1.25-19H276A479.85,479.85,0,0,1,275.94,66.11Z"/></g></g></g></svg>