<svg xmlns="http://www.w3.org/2000/svg" viewBox="0 0 513.54 226.14"><defs><style>.cls-1{fill:#67686c;}.cls-2{fill:#68686d;}.cls-3{fill:#67686b;}.cls-4{fill:#696a6d;}.cls-5{fill:#6a6b6e;}.cls-6{fill:#6a6b6d;}.cls-7{fill:#686a6b;}.cls-8{fill:#6a6a6f;}.cls-9{fill:#f9f9fa;}.cls-10{fill:#f6f6f7;}.cls-11{fill:#f7f7f7;}.cls-12{fill:#1aad46;}.cls-13{fill:#7dd096;}.cls-14{fill:#62c780;}.cls-15{fill:#fad832;}.cls-16{fill:#fefefe;}</style></defs><g id="Capa_2" data-name="Capa 2"><g id="Capa_1-2" data-name="Capa 1"><g id="bhI4mb.tif"><path class="cls-1" d="M222,198.21c4.56,2.38,6.26,6.47,7.5,10.84,1.3,4.64,2.56,9.29,3.83,13.93.17.62.26,1.26.44,2.16-4.2,0-8.18.09-12.15-.09-.63,0-1.5-1.2-1.75-2-1.16-3.81-2.18-7.67-3.17-11.53-2-7.82-4.54-9.57-13-8.67V225H190.91c0-.91-.11-1.71-.11-2.52,0-17,0-34.1-.07-51.15,0-2.4.77-3.1,3.09-3.26,8-.53,15.91-1.27,23.89,0,7.65,1.26,12.57,5.54,13.91,12.33A15.11,15.11,0,0,1,224.14,197C223.51,197.33,222.88,197.7,222,198.21Zm-18.31-4.67a86.64,86.64,0,0,0,9.23-1,7.33,7.33,0,0,0,6.07-7.71c-.06-4-2.35-6.82-6.59-7.45a35.76,35.76,0,0,0-7.17-.07,2.09,2.09,0,0,0-1.47,1.41C203.67,183.45,203.72,188.16,203.72,193.54Z"/><path class="cls-1" d="M39.55,225.17c1.2-4,2.28-7.62,3.39-11.24,4.47-14.62,9-29.22,13.38-43.85.52-1.73,1.27-2.41,3.12-2.36,4.24.13,8.49.1,12.73,0a2.15,2.15,0,0,1,2.51,1.73q8.37,27.14,16.83,54.25a8.76,8.76,0,0,1,.16,1.21H77.79c-1.16-3.93-2.4-8-3.51-12-.49-1.8-1.36-2.54-3.31-2.47-3.91.16-7.83.13-11.73,0a2.38,2.38,0,0,0-2.75,2.14c-1,3.69-2,7.37-3.09,11-.19.61-1,1.47-1.5,1.49C47.92,225.22,43.94,225.17,39.55,225.17Zm25.86-46.46-.53,0c-1.9,7.2-3.8,14.41-5.82,22.09,3.63,0,6.85-.07,10.06,0,1.9.06,2.55-.32,1.88-2.4-1.61-5.06-3-10.19-4.44-15.29C66.14,181.69,65.79,180.2,65.41,178.71Z"/><path class="cls-2" d="M179.58,201c-6.45,0-12.52.08-18.58,0-2.08-.05-2.8.59-2.69,2.67.14,2.91.12,5.83,0,8.74-.08,1.8.6,2.25,2.31,2.22,6.16-.08,12.32,0,18.48,0h2.81v10.52H145.52c0-.87-.12-1.66-.12-2.46,0-17.39,0-34.79-.05-52.18,0-2,.49-2.71,2.62-2.69,10.07.11,20.15.05,30.22.06.74,0,1.47.06,2.37.11v10.67h-2.81c-5.75,0-11.49.05-17.23,0-1.6,0-2.28.48-2.21,2.13.09,2.49.11,5,0,7.49-.07,1.65.54,2.18,2.16,2.16,5.58-.07,11.16,0,16.74-.06,1.86,0,2.5.52,2.4,2.4C179.47,195.3,179.58,198,179.58,201Z"/><path class="cls-3" d="M97.28,222.38c.85-3.45,1.69-6.87,2.49-10.16,3.82,1,7.29,2.18,10.86,2.68a27.45,27.45,0,0,0,8.13-.33,5.49,5.49,0,0,0,1.83-10.18c-2.28-1.32-4.84-2.16-7.16-3.42-3.7-2-7.87-3.58-10.84-6.39-8.28-7.84-5-21.27,5.91-25.61,8.09-3.19,16.26-2.67,24.41.1,1.53.52,1.4,1.45,1.1,2.51-.77,2.79-1.63,5.55-2.41,8.19-3.51-.72-6.86-1.63-10.28-2a18.32,18.32,0,0,0-6.14.58,4.75,4.75,0,0,0-3.89,4.35,4.9,4.9,0,0,0,3,5c2.52,1.26,5.15,2.31,7.72,3.48,2,.93,4.11,1.8,6.07,2.87,6,3.33,9,8.46,8.56,15.38-.51,7.38-4.7,12.24-11.41,14.64-9.06,3.23-18.15,2.45-27-1.06A6.45,6.45,0,0,1,97.28,222.38Z"/><path class="cls-1" d="M12.87,214.12h22.6v10.81H0V167.81c4,0,7.94-.07,11.9.11.35,0,.93,1.54.93,2.36.06,13.57,0,27.13,0,40.69Z"/><path class="cls-4" d="M303.78,225.14a62.14,62.14,0,0,1-6.93-.09c-.67-.08-1.48-1.16-1.76-2-1.65-4.79-3.25-9.6-4.69-14.45-.6-2-1.56-2.69-3.7-2.62-5.07.18-10.15.1-15.23,0a2,2,0,0,0-2.31,1.64c-1.61,5.15-3.4,10.24-5,15.41-.47,1.53-1.11,2.2-2.76,2.06s-3.47,0-5.69,0c1-3.06,1.91-5.85,2.85-8.62,5.3-15.57,10.64-31.13,15.89-46.73a2.52,2.52,0,0,1,2.81-2.07c7.12,0,7,0,9.25,6.75,5.37,16,10.87,31.91,16.32,47.86C303.12,223.11,303.37,223.88,303.78,225.14Zm-24.27-50q-3.94,12.15-8.05,24.76h16Z"/><path class="cls-5" d="M451.42,206c-.67,7.2,4.1,13.17,10.82,13.79a36.19,36.19,0,0,0,7.21,0,64.73,64.73,0,0,0,7-1.53c.37,1.37.84,2.85,1.12,4.36a1.54,1.54,0,0,1-.79,1.27c-8.74,2.6-17.54,4-25.56-1.8-6.23-4.52-7.9-11.3-7.44-18.6.5-7.75,3.13-14.64,10.5-18.35,10.3-5.19,23.83-1.7,25.66,14.07a61.53,61.53,0,0,1,0,6.83H451.42Zm21.15-5.72c.69-6.46-3.53-11.69-9.53-12s-11.52,5.3-11.66,12Z"/><path class="cls-4" d="M434.54,225h-7.46v-5.3c0-6.66.05-13.31,0-20-.08-5.68-3.36-9.87-7.85-10.31a10.53,10.53,0,0,0-11.8,8.71,17.48,17.48,0,0,0-.28,3.47c0,7.07-.08,14.14,0,21.21,0,1.91-.59,2.52-2.43,2.36-1.63-.14-3.28,0-5.12,0V184c1.92,0,4.36-.7,5.69.22,1.12.77,1,3.41,1.41,5.41a15.12,15.12,0,0,0,1.22-1.14,15.67,15.67,0,0,1,17.42-4.6c5.31,1.92,9.1,7.45,9.19,13.92C434.64,206.81,434.54,215.78,434.54,225Z"/><path class="cls-6" d="M488.22,217.8a65.73,65.73,0,0,0,7.57,2.24,15.68,15.68,0,0,0,5.67-.16,5.82,5.82,0,0,0,1.91-10.66,69.33,69.33,0,0,0-6.52-3.08c-3.49-1.55-6.75-3.4-8.38-7.06-2.66-6,1-13.22,7.61-15.24a21.42,21.42,0,0,1,13.93.66c1.7.63,2.28,1.43,1.36,3.14a22.6,22.6,0,0,0-1.14,3.15,33.32,33.32,0,0,0-4.93-1.54,20.42,20.42,0,0,0-5.68-.17,5,5,0,0,0-4.63,4.25,5.08,5.08,0,0,0,2.87,5.59c1.37.77,2.85,1.35,4.28,2a47.47,47.47,0,0,1,5.62,2.67c4.82,3.07,6.58,7.39,5.46,12.83-.94,4.59-5.13,8.21-10.42,9.15a27.88,27.88,0,0,1-14-1.2c-1.84-.62-2.71-1.45-1.66-3.45A19.36,19.36,0,0,0,488.22,217.8Z"/><path class="cls-3" d="M367,225h-7.24V165H367Z"/><path class="cls-7" d="M351.74,183.24v7.13c-4.54-.77-8.28.52-10.41,4.39a18.45,18.45,0,0,0-2.16,7.76c-.31,6.55-.12,13.12-.13,19.69V225H331.7c-.05-.62-.15-1.26-.15-1.89-.11-12.39-.17-24.77-.34-37.15,0-1.68.49-2.24,2.11-2.13,1.39.1,2.8,0,4.41,0,.14,2.42.26,4.62.44,7.7C341.27,185.68,345.18,182.21,351.74,183.24Z"/><path class="cls-6" d="M387.29,225h-7.5c0-.84-.12-1.64-.12-2.43,0-12.05,0-24.1-.05-36.15,0-2.13.64-2.68,2.69-2.61,5,.18,5,.08,5,5V225Z"/><path class="cls-8" d="M319,225h-7.25a4,4,0,0,1-.3-1c0-12.47.11-24.94.06-37.42,0-2.15.59-2.9,2.83-2.8,5.56.25,4.76-.64,4.77,4.79,0,11.3,0,22.61,0,33.92C319.15,223.28,319.08,224,319,225Z"/><path class="cls-8" d="M388.05,172.46c0,2.88-1.72,4.55-4.68,4.56a4.61,4.61,0,0,1-4.71-4.69,4.73,4.73,0,0,1,4.84-4.61C386.33,167.75,388.05,169.54,388.05,172.46Z"/><path class="cls-8" d="M310.66,172.43a4.48,4.48,0,0,1,4.65-4.73,4.56,4.56,0,0,1,4.76,4.87,4.47,4.47,0,0,1-4.68,4.45A4.38,4.38,0,0,1,310.66,172.43Z"/><path class="cls-9" d="M203.72,193.54c0-5.38-.05-10.09.07-14.8a2.09,2.09,0,0,1,1.47-1.41,35.76,35.76,0,0,1,7.17.07c4.24.63,6.53,3.41,6.59,7.45a7.33,7.33,0,0,1-6.07,7.71A86.64,86.64,0,0,1,203.72,193.54Z"/><path class="cls-10" d="M65.41,178.71c.38,1.49.73,3,1.15,4.46,1.46,5.1,2.83,10.23,4.44,15.29.67,2.08,0,2.46-1.88,2.4-3.21-.1-6.43,0-10.06,0,2-7.68,3.92-14.89,5.82-22.09Z"/><path class="cls-10" d="M279.51,175.17l8,24.76h-16Q275.56,187.32,279.51,175.17Z"/><path class="cls-11" d="M472.57,200.31H451.38c.14-6.7,5.69-12.3,11.66-12S473.26,193.85,472.57,200.31Z"/><g id="rvbrRa.tif"><path class="cls-12" d="M208.13,117.09c-2.31-.5-4.62-1-6.92-1.51-16.28-3.79-29.75-12.4-41.19-24.28-7.56-7.85-14.87-15.94-22.22-24A124,124,0,0,0,71.39,28.81C60.23,26.35,49,24.27,37.78,22a6.23,6.23,0,0,1-2.31-.87h2.78q57.3,0,114.61,0c3.5,0,7,.59,10.49.9l0,0,1,.41c.86.45,1.75.85,2.59,1.35a117.14,117.14,0,0,1,24.44,19.13c8.3,8.7,16.4,17.59,24.51,26.47A105.28,105.28,0,0,0,236.93,87.3a86.73,86.73,0,0,0,26.34,10.83A90.72,90.72,0,0,0,287,107.57c13.74,3.15,27.59,5.8,41.39,8.66a23.76,23.76,0,0,1-3,.39q-28.08.07-56.16.09-29.28,0-58.55-.06a3.73,3.73,0,0,0-1.17.44Z"/><path class="cls-12" d="M260.16,21.19c16.72,0,33.45-.43,50.15.08,14.17.44,26.63,6.28,38.05,14.42,7,5,12.94,11.19,18.75,17.5,7.74,8.41,15.2,17.12,23.48,25a123.25,123.25,0,0,0,61.48,31.72c10.76,2.17,21.53,4.26,32.3,6.39a30.45,30.45,0,0,1-3.28.36q-27.93.06-55.88.08-29.26,0-58.53,0a3.67,3.67,0,0,0-1.18.43h-1.36a8,8,0,0,0-1.38-.47c-14.53-2.11-27.22-8.2-38.42-17.53.82,0,1.65-.1,2.48-.1l54.7-.06h11.24a1.22,1.22,0,0,0-1-.8c-11.86-2.4-23.76-4.63-35.57-7.24a126.4,126.4,0,0,1-63.8-35.36C281.39,44.36,270.9,32.65,260.16,21.19Z"/><path class="cls-13" d="M328.38,116.23l2.3.86H269.17l0-.38q28.08,0,56.16-.09A23.76,23.76,0,0,0,328.38,116.23Z"/><path class="cls-13" d="M425.21,116.7q27.94,0,55.88-.08a30.45,30.45,0,0,0,3.28-.36l2.32.83h-61.5C425.19,117,425.2,116.83,425.21,116.7Z"/><path class="cls-14" d="M269.2,116.71l0,.38H209.48a3.73,3.73,0,0,1,1.17-.44Q239.93,116.65,269.2,116.71Z"/><path class="cls-14" d="M425.21,116.7c0,.13,0,.26,0,.39H365.5a3.67,3.67,0,0,1,1.18-.43Q395.95,116.66,425.21,116.7Z"/><path class="cls-15" d="M324.34,99.09c-12.18,0-24.36,0-36.54-.09-6.69,0-13.37-.22-20.06-.39-1.49,0-3-.32-4.47-.48A86.73,86.73,0,0,1,236.93,87.3a105.28,105.28,0,0,1-21.07-17.92c-8.11-8.88-16.21-17.77-24.51-26.47a117.14,117.14,0,0,0-24.44-19.13c-.84-.5-1.73-.9-2.59-1.35l-1-.41,0,0c-3.67-2-7.27-4.09-11-5.89-12.46-6-25.94-8.54-39.35-11.27C105.89,3.46,98.79,2.17,91.7.81A2.6,2.6,0,0,1,90.28.06h2.47c39.56,0,79.12-.16,118.68.05,13.62.08,25.91,5,37.17,12.45,4,2.64,7.72,5.74,11.56,8.63,10.74,11.46,21.23,23.17,32.27,34.34a126.4,126.4,0,0,0,63.8,35.36c11.81,2.61,23.71,4.84,35.57,7.24a1.22,1.22,0,0,1,1,.8H381.52l-54.7.06C326,99,325.16,99.06,324.34,99.09Z"/><path class="cls-16" d="M163.32,22l1,.41Z"/></g></g></g></g></svg>