<svg xmlns="http://www.w3.org/2000/svg" viewBox="0 0 2477.31 923.04"><defs><style>.cls-1{fill:#133348;}.cls-2{fill:#e03332;}.cls-3{fill:#0f3045;}.cls-4{fill:#103045;}.cls-5{fill:#0f3044;}.cls-6{fill:#f5af42;}.cls-7{fill:#e65b59;}.cls-8{fill:#113246;}.cls-9{fill:#c3202b;}.cls-10{fill:#d0282e;}.cls-11{fill:#d93031;}.cls-12{fill:#ed9c3e;}.cls-13{fill:#e78e3b;}.cls-14{fill:#d25a32;}.cls-15{fill:#d86b35;}.cls-16{fill:#df7b38;}.cls-17{fill:#950c11;}.cls-18{fill:#cb4d2f;}.cls-19{fill:#16354a;}.cls-20{fill:#153549;}.cls-21{fill:#d86f32;}.cls-22{fill:#e34d4b;}.cls-23{fill:#de3f3f;}.cls-24{fill:#a11716;}.cls-25{fill:#af281c;}.cls-26{fill:#bc3a23;}.cls-27{fill:#fbfcfc;}</style></defs><g id="Capa_2" data-name="Capa 2"><g id="Capa_1-2" data-name="Capa 1"><g id="ETSODJ.tif"><path class="cls-1" d="M1107.69,923c-3.15-.67-6.3-1.37-9.46-2-12.82-2.5-22.88-10.72-26.5-22l10.38-2.85c5.86,13.86,20.91,18.67,39.33,16.27a45.84,45.84,0,0,0,13.59-4.36c4.17-2,6.2-6,5.5-10.82-.65-4.49-4.21-6.18-8-7.17-11.56-3-23.17-5.85-34.75-8.8-7.64-2-12.93-6.46-13.59-14.6-.67-8.35,3.14-14.92,10.31-19.08a32.81,32.81,0,0,1,10.7-3.79c12.64-2.21,25.19-2,37.23,3.15,6.45,2.74,11.66,6.92,14.85,13.76l-9.81,3.49c-11.85-13.77-26.85-14-42.62-10.69a15.82,15.82,0,0,0-6.87,3.81c-4.93,4.49-3.64,11.43,2.71,13.36,8.07,2.46,16.41,4.06,24.6,6.18a127.73,127.73,0,0,1,13.32,4c14.92,5.67,17.84,21.66,6,32.55-6.17,5.69-13.87,7.55-21.91,8.54a33.67,33.67,0,0,0-4,1Z"/><path class="cls-1" d="M1995.35,923c-3-.65-6-1.27-8.93-2-12.3-2.9-22.14-8.89-27.06-21.88l11-3.28c3.78,10.81,12.42,15.06,22.36,16.08,7.63.78,15.52-.18,23.21-1.06,2.93-.34,6-2.16,8.37-4.08,6.76-5.43,5.26-14.09-3-16.53-7.15-2.13-14.56-3.36-21.82-5.11-4.68-1.13-9.3-2.49-14-3.73-7.38-2-12.68-6.07-13.48-14.1-.83-8.37,2.57-15.1,9.8-19.28a36.54,36.54,0,0,1,12.1-4.25c11.28-1.85,22.56-1.66,33.5,2.22,7.58,2.69,13.86,7,17.6,14.88l-9.92,3.35c-9.91-14.34-33.64-14.63-44.84-9.72a14.91,14.91,0,0,0-6.78,6.68c-2,4.06.15,8,4.72,9.4,6.81,2.1,13.81,3.56,20.7,5.39,5.93,1.58,12,2.87,17.7,5,14.35,5.34,17.48,20.56,6.72,31.57-6.31,6.45-14.48,8.42-23,9.44a35.82,35.82,0,0,0-4,1Z"/><path class="cls-2" d="M1052.71,154.76c-15,2.29-29.88,4.72-44.85,6.86-29.65,4.22-59.27,8.73-89,12.28-28.75,3.43-57.57,6.76-86.46,8.4-31.73,1.8-63.58,2.33-95.37,2.09-26.64-.19-53.52-2-78.85-10.83-43.91-15.23-79.88-40.2-96.63-86.23C555.23,70,552.9,51.84,552,33.51c-.47-9.47-.41-19-.59-28.44a19.24,19.24,0,0,1,2.66,3.3,103.3,103.3,0,0,0,24,31.39c15.78,14,34.39,22.5,54.05,28.9A245.18,245.18,0,0,0,686.46,80c19.62,1.73,39.25,4.35,58.89,4.6,28.9.37,57.82-.92,86.72-1.73,11.76-.33,23.51-1.17,35.25-2,18.51-1.25,37-2.65,55.51-4,13.87-1,27.76-1.87,41.62-3.1,20.76-1.84,41.5-3.94,62.25-5.93,5.61-.33,11.23-.55,16.83-1,6.73-.55,13.45-1.29,20.17-1.95-.33,1.78-.78,3.55-1,5.35-1.41,12.12-2.72,24.26-4.16,36.39C1056.65,122.68,1054.66,138.72,1052.71,154.76Z"/><path class="cls-3" d="M978.14,703.25c-24,0-50.3-1.61-75.53-10C871.88,683,849.35,663.17,836,633.4c-3-6.61-1.72-8.89,5.46-10.32,15.33-3.06,30.69-6,46-9.08,3.3-.68,5.64.15,7,3.07,10.85,22.28,30.37,32.37,53.27,36.87,21.61,4.25,43.43,4.52,64.77-1.84,6.39-1.9,12.49-5.37,18.15-9a22.48,22.48,0,0,0,9.93-16.11c1.74-11.82-2.36-19.78-13.87-23.23-14.94-4.47-30.29-7.53-45.43-11.35-23.15-5.85-47.18-8.95-68.71-20-8.77-4.52-17.46-9.92-24.71-16.55-15.75-14.39-17.76-33.3-13.58-53,6.82-32.05,28.23-50.59,58.34-60.24,24.61-7.89,50.06-8.74,75.62-7.71,24.62,1,48.43,5.66,71.23,15.51,20.42,8.82,35.79,22.67,45.57,42.65,3.38,6.91,2.28,9.35-5.1,10.75-16.17,3-32.39,5.88-48.57,8.95-3.42.64-5.91-.09-7.46-3.26-5.68-11.61-15.12-18.71-27.17-22.68-25.72-8.46-51.8-10.65-78.09-3.24-11.83,3.34-21.05,10.05-22.63,23.62-1.07,9.21,3,16.88,11.93,19.45,23.14,6.63,46.39,12.92,69.75,18.71,17.43,4.33,34.89,8.26,51.14,16.29,33.23,16.41,41.88,45.25,30.19,79.82-9.85,29.11-31.83,45.31-60.41,53.74C1019.71,700.8,1000.18,702.57,978.14,703.25Z"/><path class="cls-3" d="M598.1,441.64c8,0,16,0,24,0,6.67,0,8.44,2.18,7,8.52-10.17,43.69-20.5,87.34-30.43,131.08a149.64,149.64,0,0,0-3.4,26.18c-.86,18.34,8.72,32.42,27.56,38.9a125.66,125.66,0,0,0,79.48,1.34c19.63-6,31.33-20.42,36.51-39.71,6.21-23.09,11.54-46.41,17-69.69,7.15-30.23,14.11-60.51,21.07-90.78.92-4,3-5.93,7.25-5.9,16.33.12,32.65,0,49,.07,5.78,0,7.89,2.3,6.6,7.72-13.3,56.08-26.36,112.22-40.24,168.16a116.56,116.56,0,0,1-24.32,48.11C760,683.4,740.33,692.83,718,697.8c-43.24,9.61-86.17,9.35-128.74-3.6a130.79,130.79,0,0,1-16.66-6.59c-27.52-12.68-40.45-35-41.55-64.54-.75-20,3.77-39.3,8.29-58.6,9-38.33,17.77-76.71,26.62-115.07,1.64-7.1,2.4-7.76,9.69-7.76Z"/><path class="cls-3" d="M140.66,600.12c-17,0-34,.17-51-.11-5.23-.08-7.4,2-8.49,6.83C75.24,633.6,69.06,660.3,63,687c-1.81,8-2.22,8.32-10.2,8.32q-22.72,0-45.47,0c-6.42,0-8.27-2.23-6.87-8.26Q28.13,567.67,55.75,448.23c1.19-5.13,3.67-6.67,8.63-6.66,49.64.13,99.29-.12,148.93.3a168.94,168.94,0,0,1,34.59,3.78c25.56,5.6,39.62,23.06,43.69,48,5.37,33-4.33,61.44-29.89,83.33-14.64,12.53-32.62,18.66-51.72,20.2-23,1.85-46.17,2.7-69.26,4Zm2.09-44.68v-1c16.46,0,33,.71,49.37-.18,20-1.09,32.83-13.67,35.54-33.39,2.63-19.06-7.4-34.43-27.34-34.69-28.62-.37-57.24-.39-85.86-.56-3.94,0-5.47,2.47-6.25,5.86q-6.37,27.66-12.8,55.3c-1.48,6.43.26,8.64,6.89,8.66C115.78,555.46,129.26,555.44,142.75,555.44Z"/><path class="cls-4" d="M2051.82,442.46c30,0,60-.33,89.93.15,12.81.21,24.85,4.63,35.68,11.5,15.39,9.77,22.68,24.57,23.77,42.24,2.86,45.91-23.07,77.73-69.55,85.91-5.56,1-11.19,1.56-16.82,2.14-6.55.68-8.32,4.12-4.77,9.82,18.77,30.22,37.61,60.39,56.25,90.69,1.39,2.25,2.47,5.89,1.58,8-.7,1.61-4.68,2.42-7.24,2.52-8,.31-16-.06-24,.19-4,.13-6.37-1.43-8.39-4.82-19.48-32.7-39.15-65.28-58.57-98-2.42-4.07-5.1-5.76-9.89-5.73q-47,.29-94,0c-5.27,0-7.63,1.74-8.83,7-7,30.94-14.46,61.78-21.72,92.67-2,8.4-2.19,8.62-11,8.62-6.33,0-12.66,0-19,0s-8-2.26-6.54-8.49q8.25-35.69,16.55-71.36,19.42-83.73,38.74-167.49c1.12-4.89,3.48-6.49,8.27-6.47,29.81.12,59.63.06,89.45.06Zm8.68,31v-.91h-67.4c-7,0-7.83.6-9.49,7.44q-8,32.91-16,65.81c-1.92,7.94-.45,9.82,7.82,9.82,35.29,0,70.57.22,105.86-.1a410.42,410.42,0,0,0,43.8-2.33c18.93-2.21,33.3-11.46,38.57-31,3.85-14.24,3.83-28.11-7.57-39.52-7.36-7.36-17.16-8.87-26.74-9.08C2106.42,473.14,2083.45,473.48,2060.5,473.48Z"/><path class="cls-4" d="M2344.22,633.2c-23.82,0-47.64.09-71.45-.08a9.5,9.5,0,0,0-8.71,4.41c-12.81,17.83-25.91,35.45-38.71,53.29-2.52,3.52-5.3,4.93-9.58,4.78-8-.28-16,.11-24-.2-2.39-.09-6.12-1-6.73-2.55-.8-2,.2-5.51,1.65-7.46q60.89-81.6,122.06-163c19-25.29,38-50.54,56.81-75.93,2.56-3.45,5.34-4.92,9.61-4.8,8.65.25,17.32.19,26,0,4.47-.08,6.93,1.48,8.21,6.06Q2442.93,567.42,2476.7,687c1.71,6.08-.08,8.45-6.36,8.49-8.33.06-16.66-.11-25,.07-4.25.09-6.28-1.74-7.31-5.79-4.19-16.4-8.61-32.75-12.93-49.13-1.85-7-2.36-7.44-9.45-7.44Zm9.5-29.27q25.49,0,51,0c7.51,0,9.19-2.22,7.29-9.49q-6.45-24.57-12.93-49.14c-4.88-18.47-9.71-36.95-14.81-55.35-.52-1.9-2.52-4.37-4.2-4.7s-3.9,1.58-5.78,2.68c-.66.38-1,1.28-1.53,1.95q-38,51.68-75.89,103.42c-1.49,2-3,5.92-2.1,7.38,1.21,1.9,4.87,3.09,7.49,3.13C2319.4,604.06,2336.56,603.93,2353.72,603.93Z"/><path class="cls-5" d="M386.37,695.51H292.94c-8.09,0-9.58-1.76-7.81-9.45q25.62-111.16,51.28-222.33c1.27-5.5,2.55-11,3.75-16.52.83-3.79,2.92-5.63,7-5.61,16.65.1,33.31,0,50,.07,5.54,0,7.39,2.49,6.13,8q-21.83,94.92-43.68,189.83C357.82,647,359.33,649,367,649q60.71,0,121.41,0c8.14,0,9.41,1.57,7.61,9.53-2.3,10.2-4.87,20.35-6.92,30.61-1,4.89-3.42,6.48-8.25,6.46C449.33,695.44,417.85,695.51,386.37,695.51Z"/><path class="cls-4" d="M1274.64,673.26c14.76-2.22,29.72-3.58,44.24-6.85,28.91-6.52,48.11-24.25,55.59-53.2,7.78-30.06,14.88-60.3,22-90.52,5.88-24.9,11.48-49.87,17-74.84,1-4.56,3.31-6.43,8-6.27,6.82.23,13.66,0,20.49.07,6,.05,8,2.26,6.66,8-12.64,54.36-25.17,108.75-38.13,163a137.57,137.57,0,0,1-18.26,42.91c-15.32,23.7-38,36.2-64.84,41.89-39.81,8.44-79.62,8.8-119.11-2.18A88.2,88.2,0,0,1,1176,679c-18.79-15.22-26.08-35.45-25.51-59.07.47-18.94,5.25-37.13,9.49-55.43q13.35-57.53,26.62-115.07c1.68-7.26,2.25-7.77,9.66-7.77,6.33,0,12.66,0,19,0s8,2.32,6.66,8.38c-10.53,46-21.38,91.91-31.4,138a136.25,136.25,0,0,0-3,35.1c.87,18,11.56,30.29,27.5,38.05,13.22,6.44,27.48,8.85,42,9.95,5.79.44,11.64.07,17.47.07C1274.51,671.89,1274.58,672.58,1274.64,673.26Z"/><path class="cls-6" d="M1553.51,144.56a59.21,59.21,0,0,1,5.92-.55c31.12.3,62.28-.1,93.37,1.14,62.36,2.5,124.37,8.62,185.34,22.7,27.41,6.32,54.3,14.35,80,25.89a11.91,11.91,0,0,1,4.49,3.09h-4.39c-23.62,0-47.29-1-70.86.1-31.22,1.39-62.49,3.23-93.51,6.84-46.86,5.46-93.56,12.32-140.24,19.19-23.49,3.46-46.78,8.24-70.16,12.42,1-10.32,1.93-20.66,3.11-31,1.11-9.64,2.62-19.24,3.73-28.88C1551.54,165.22,1552.47,154.88,1553.51,144.56Z"/><path class="cls-7" d="M1026.7,67.86c-20.75,2-41.49,4.09-62.25,5.93-13.86,1.23-27.75,2.09-41.62,3.1-18.5,1.35-37,2.75-55.51,4-11.74.79-23.49,1.63-35.25,2-28.9.81-57.82,2.1-86.72,1.73-19.64-.25-39.27-2.87-58.89-4.6A245.18,245.18,0,0,1,632.1,68.66c-19.66-6.4-38.27-14.93-54.05-28.9a103.3,103.3,0,0,1-24-31.39,19.24,19.24,0,0,0-2.66-3.3c-.12-1.47-.24-2.93-.42-5.07,1.81.66,3.15,1.06,4.41,1.63,39.67,18,81.38,28.73,124.27,35.45C742.76,47,806.31,47.92,870,46.5c32.46-.72,64.89-2.43,97.34-3.69l24.43-1c1.37,1.51,2.48,3.42,4.14,4.47,9.2,5.8,18.58,11.31,27.76,17.14C1025,64.34,1025.69,66.36,1026.7,67.86Z"/><path class="cls-8" d="M1796.5,441.75h112.41c8.31,0,9.84,1.94,7.9,9.89-1.11,4.52-2.53,9-3.22,13.57-.82,5.47-3.83,6.95-9,6.92-29.15-.14-58.29-.07-87.43-.07-9,0-9,0-10.94,8.56q-24,103.89-47.84,207.79c-1.17,5.09-3.41,7.36-8.85,7-6.64-.41-13.32-.07-20-.11s-8.31-2.24-6.81-8.71q8.07-34.95,16.19-69.88,15.69-67.71,31.34-135.42c1.69-7.33.09-9.25-7.65-9.25q-41.72,0-83.43,0c-8.5,0-9.82-1.65-8-9.78,1.06-4.69,2.37-9.36,3.09-14.11.76-5,3.54-6.5,8.27-6.48,29.81.1,59.62.05,89.43.05Z"/><path class="cls-4" d="M1553.81,695.52h-94c-7.77,0-9.11-1.66-7.33-9.34q27.54-119.2,55.08-238.41c.92-4,2.88-6.1,7.16-6,7.33.12,14.67-.05,22,0,5.67.08,7.62,2.55,6.38,7.94q-23.49,101.73-47,203.45a40,40,0,0,0-1.21,5.34c-.31,3.29,1.19,5.47,4.62,5.87a41.45,41.45,0,0,0,5,.09h147.43c8.29,0,9.63,1.76,7.76,10-1.11,4.86-2.36,9.7-3.23,14.6s-3.25,6.58-8.19,6.55C1616.78,695.43,1585.3,695.52,1553.81,695.52Z"/><path class="cls-9" d="M1266.64,39.17c26.19,3.39,52.44,6.4,78.56,10.32,12.77,1.92,25.33,5.33,37.91,8.42,10.87,2.66,16.76,9.75,17.63,20.75,2,25.69,3.91,51.39,5.86,77.08l.07-.07c-18.62-12.73-40.23-15.4-61.72-16.59-27-1.5-54.22-1.07-81.33-1.45-3,0-6,0-9,.06.66-4.72,1.42-9.43,2-14.17,1.15-10,2.15-20,3.29-30q1.8-15.94,3.74-31.88C1264.57,54.16,1265.63,46.67,1266.64,39.17Z"/><path class="cls-10" d="M1266.64,39.17c-1,7.5-2.07,15-3,22.5q-2,15.93-3.74,31.88c-1.14,10-2.14,20-3.29,30-.55,4.74-1.31,9.45-2,14.17-20.42,1-40.86,1.79-61.26,3-17.92,1.05-35.8,2.55-53.7,3.86.1-4.39-.09-8.8.35-13.15,1.06-10.48,2.44-20.93,3.64-31.4q1.68-14.75,3.28-29.48,1.88-17.32,3.72-34.66c23.91.17,47.83.06,71.73.63C1237.16,36.84,1251.89,38.24,1266.64,39.17Z"/><path class="cls-11" d="M1150.67,35.86q-1.86,17.32-3.72,34.66-1.62,14.74-3.28,29.48c-1.2,10.47-2.58,20.92-3.64,31.4-.44,4.35-.25,8.76-.35,13.15l-78.62,9.34c-2.78.33-5.57.58-8.35.87,2-16,3.94-32.08,5.84-48.12,1.44-12.13,2.75-24.27,4.16-36.39.21-1.8.66-3.57,1-5.35l6-.05,47-4.16c-2.24-2.37-3.27-3.9-4.69-4.87-6.4-4.41-13-8.52-19.32-13.07-1.74-1.26-2.64-3.67-3.93-5.55Z"/><path class="cls-12" d="M1553.51,144.56c-1,10.32-2,20.66-3.16,31-1.11,9.64-2.62,19.24-3.73,28.88-1.18,10.31-2.09,20.65-3.11,31q-35.25,7.06-70.5,14.13a16.76,16.76,0,0,1-2.46.15c.65-6.23,1.24-12.47,2-18.69,2.64-23.1,5.41-46.18,7.93-69.3.49-4.5.09-9.11.1-13.67Z"/><path class="cls-13" d="M1480.54,148c0,4.56.39,9.17-.1,13.67-2.52,23.12-5.29,46.2-7.93,69.3-.72,6.22-1.31,12.46-2,18.69l-76,16q3-25,6-49.93l18-5a62.5,62.5,0,0,0,25.73-13.36,9.93,9.93,0,0,0,2.68-4.59c1.84-6,3.36-12.1,5.15-18.12,2.6-8.79-1.2-15.92-5.67-22.92,4-.65,7.9-1.5,11.89-1.9C1465.74,149.1,1473.14,148.6,1480.54,148Z"/><path class="cls-14" d="M1245.63,297.57l-69,8.93c.34-1.77.77-3.53,1-5.32q3.52-30.27,7-60.56l34.95-6.13,35.07-3.7c-1,4.09-2.3,8.14-3,12.29-1,6.33-1.67,12.73-2.37,19.12C1248.05,274,1246.86,285.78,1245.63,297.57Z"/><path class="cls-15" d="M1245.63,297.57c1.23-11.79,2.42-23.59,3.69-35.37.7-6.39,1.35-12.79,2.37-19.12.66-4.15,2-8.2,3-12.29l16.92-1.21c8-.62,16-1.18,24-1.87,6.69-.58,13.36-1.31,20.05-2l7,0c-.74,6.69-1.52,13.39-2.22,20.09q-1.94,18.36-3.8,36.75Z"/><path class="cls-16" d="M1316.61,282.63q1.89-18.37,3.8-36.75c.7-6.7,1.48-13.4,2.22-20.09l31-3.07c3.77-.33,7.58-.45,11.31-1,7.58-1.18,15.13-2.61,22.69-3.94l13-2q-3,25-6,49.93c-19.52,4.33-39,8.7-58.57,13C1329.56,280.09,1323.08,281.32,1316.61,282.63Z"/><path class="cls-17" d="M1136.65,307.45l-3-.1-3.41-.36c-13-.65-25.75-2.59-37.83-7.55-7.8-3.2-15-7.51-17.65-16.3-3.13-10.31,1.32-18.84,8.11-25.71a71,71,0,0,1,18-13c16.48-8.38,34.34-12.42,52.61-14.77l3.13-.72,2.82-.29c4.67-.37,4.75,2.38,3.81,5.7-1.16,4.11-2.42,8.21-3.63,12.31-3.77,1.66-7.58,3.2-11.29,5-9.35,4.53-17.79,10.12-23.51,19.21-7.71,12.24-5.31,24.36,6.62,32.35A65,65,0,0,1,1136.65,307.45Z"/><path class="cls-18" d="M1136.65,307.45a65,65,0,0,0-5.18-4.23c-11.93-8-14.33-20.11-6.62-32.35,5.72-9.09,14.16-14.68,23.51-19.21,3.71-1.79,7.52-3.33,11.29-5l25-6q-3.5,30.28-7,60.56c-.21,1.79-.64,3.55-1,5.32Z"/><path class="cls-19" d="M1592.16,888l20.15,32.73c-4.31,0-7.63.34-10.82-.15-1.41-.22-2.93-1.89-3.78-3.27-5.3-8.64-10.37-17.43-15.68-26.06-.83-1.34-2.5-3-3.83-3-10-.26-19.94-.14-30.2-.14-2.52,11-5,21.79-7.43,32.44h-10.83c3.44-15,6.8-29.72,10.18-44.42,2.16-9.39,4.51-18.74,6.45-28.17.62-3,1.92-3.64,4.7-3.62,16.16.11,32.32,0,48.48.08,12.37.09,19.89,5.55,21.42,15.23a23.19,23.19,0,0,1-15.52,25.5C1601.4,886.43,1597.09,887,1592.16,888Zm-42-9.92c15.95,0,31.35,0,46.74-.07a15,15,0,0,0,5.73-1.47c5.39-2.35,8.25-8.27,7.2-14.45-.85-5.05-3.67-7.81-10.37-8-14.4-.37-28.83-.11-43.52-.11C1554,862.19,1552.05,870.15,1550.14,878.08Z"/><path class="cls-19" d="M1403.15,911.11h62.19l-2.1,9.18h-73.07c5.84-25.53,11.6-50.7,17.31-75.68h70.21a32.21,32.21,0,0,0-1,5.14c-.07,3.49-1.77,4.3-5.06,4.27-16.65-.16-33.31-.07-50-.07h-5.28c-1.69,7.48-3.32,14.7-5.07,22.43h56.76c.41,8.51-.21,9.18-8.06,9.18-15.66,0-31.31.07-47-.06-3,0-4.39.69-5,3.88C1406.74,896.52,1404.9,903.57,1403.15,911.11Z"/><path class="cls-19" d="M1764.71,844.43c-.07,1-.07,1.45-.15,1.94-1.27,7.58-1.27,7.58-8.84,7.58h-52.21c-1.7,7.48-3.35,14.71-5.11,22.44h57.95l-2.13,9.17c-17.72,0-35.2.15-52.66-.11-4.36-.07-6.14,1.21-6.85,5.49-1.09,6.53-2.84,12.95-4.44,20h62.22c-.82,3.47-1.5,6.35-2.22,9.38h-73c5.87-25.43,11.69-50.59,17.53-75.88Z"/><path class="cls-19" d="M806.84,844.37h70.09c-.54,3.2-1,6.16-1.63,9.58H858.14c-12.33,0-24.66.14-37-.08-4-.08-6.35.54-6.92,5.26-.66,5.56-2.35,11-3.73,17.1h57.81c-.69,3.32-1.23,6-1.92,9.33h-5.28c-16.16,0-32.32.13-48.47-.11-3.6-.05-4.95,1.12-5.6,4.46-1.36,7-3,13.84-4.68,21.13h62c-.66,3.18-1.25,6-1.91,9.13H789.36C795.18,894.91,801,869.77,806.84,844.37Z"/><path class="cls-20" d="M646.89,920.47H636.67L654,845.07c9.32-2.13,10.62-1.64,15.78,5.78q18.21,26.22,36.44,52.43c.92,1.32,1.94,2.59,3.45,4.61,5-21.6,9.73-42.38,14.54-63.31h10.23L717,920.19c-7.05,1.8-11.47-.06-15.54-6.25-11.49-17.51-23.84-34.45-35.86-51.61-1-1.47-2.14-2.9-3.88-5.26C656.61,878.82,651.74,899.7,646.89,920.47Z"/><path class="cls-20" d="M1237.06,920.74c13.73-18.33,26.77-35.74,39.82-53.14,5.08-6.78,10.4-13.4,15.19-20.38,3.29-4.79,7.84-2.61,11.79-2.57,1.23,0,3,3.36,3.55,5.44,6.33,22,12.48,44,18.67,66.06.36,1.26.64,2.53,1.16,4.58-3.5,0-6.6.28-9.61-.14-1.14-.16-2.56-1.78-3-3-1.62-5-2.9-10.16-4.41-15.62-14.86,0-29.64-.06-44.42.11-1.33,0-3,1.23-3.89,2.36a93.67,93.67,0,0,0-8.18,11.29c-2.41,4.14-5.53,5.78-10.19,5.07A51.91,51.91,0,0,0,1237.06,920.74Zm33.48-28h37.25c-3.29-12.41-6.46-24.42-9.88-37.31C1288.44,868.36,1279.64,880.35,1270.54,892.75Z"/><path class="cls-20" d="M1897.42,920.61h-11.65L1880.45,902c-15,0-29.77,0-44.56.09a5.5,5.5,0,0,0-3.55,2c-2.33,2.8-4.39,5.84-6.55,8.79-6.29,8.62-6.29,8.63-18,7.51.9-1.38,1.62-2.61,2.47-3.74L1861.71,848c2.3-3.07,10-5.15,13.3-3.44a3.91,3.91,0,0,1,1.5,2.31C1883.45,871.24,1890.35,895.64,1897.42,920.61ZM1878,893l-9.85-37.55c-9.46,12.9-18.28,24.93-27.52,37.55Z"/><path class="cls-20" d="M919.44,920.74c1.54-2.21,2.52-3.69,3.59-5.12l50.63-67.48c2.45-3.26,9.6-5.31,13.26-3.64a3.77,3.77,0,0,1,1.69,2.21q10.26,36.42,20.41,72.9c0,.13-.1.31-.27.8h-11c-1.7-6-3.46-12.13-5.27-18.46-14.94,0-29.58-.05-44.22.1a6.08,6.08,0,0,0-4,2.17,80.54,80.54,0,0,0-7.93,10.87c-2.66,4.64-6.17,6.56-11.41,5.69A38.46,38.46,0,0,0,919.44,920.74Zm33.27-27.88h37.35c-3.26-12.39-6.43-24.45-9.85-37.43Z"/><path class="cls-21" d="M1400.59,215.76l-13,2c.15-1,.25-1.94.45-2.9q2.19-10.26,4.41-20.51c8.16-5.88,15.09-12.77,15.67-23.47.28-5-.92-10.13-1.45-15.2l-.07.07q10.28-1.17,20.55-2.34c1.8-.2,3.6-.32,5.41-.48-.17,2.29,0,4.67-.55,6.86-4.4,17-8.94,34-13.44,51Z"/><path class="cls-19" d="M442.34,911.2h50.51c-.74,3.26-1.4,6.14-2.11,9.26H429.35C435.2,895,441,869.87,446.82,844.57h10.79C452.54,866.72,447.52,888.62,442.34,911.2Z"/><path class="cls-22" d="M1069.68,64.85l-6,.05c-6.72.66-13.44,1.4-20.17,1.95-5.6.46-11.22.68-16.83,1-1-1.5-1.68-3.52-3.08-4.41-9.18-5.83-18.56-11.34-27.76-17.14-1.66-1.05-2.77-3-4.14-4.47,8.58-.57,17.15-1.24,25.73-1.68,8.42-.44,16.85-.66,25.28-1,1.75,2.43,3.06,5.42,5.33,7.19,5.93,4.61,12.39,8.55,18.38,13.09C1068,60.64,1068.62,63,1069.68,64.85Z"/><path class="cls-23" d="M1069.68,64.85c-1.06-1.82-1.69-4.21-3.24-5.38-6-4.54-12.45-8.48-18.38-13.09-2.27-1.77-3.58-4.76-5.33-7.19l46-2c1.29,1.88,2.19,4.29,3.93,5.55,6.3,4.55,12.92,8.66,19.32,13.07,1.42,1,2.45,2.5,4.69,4.87Z"/><path class="cls-16" d="M1418.57,210.74c4.5-17,9-34,13.44-51,.56-2.19.38-4.57.55-6.86l13.9-1.17c4.47,7,8.27,14.13,5.67,22.92-1.79,6-3.31,12.11-5.15,18.12a9.93,9.93,0,0,1-2.68,4.59A62.5,62.5,0,0,1,1418.57,210.74Z"/><path class="cls-19" d="M563.94,920.6H552.86c1.88-8.24,3.69-16.21,5.52-24.18,3.53-15.34,7.26-30.64,10.48-46,1-4.75,2.81-7,7.75-6.07a31.16,31.16,0,0,0,4.73,0C575.46,870.12,569.7,895.37,563.94,920.6Z"/><path class="cls-24" d="M1184.63,240.62l-25,6c1.21-4.1,2.47-8.2,3.63-12.31.94-3.32.86-6.07-3.81-5.7,12.73-1.63,25.45-3.35,38.2-4.83,5.57-.64,11.19-.79,16.78-1.17l7.68.48c-.93,4.15-1.74,7.75-2.55,11.35Z"/><path class="cls-14" d="M1392.45,194.34q-2.21,10.26-4.41,20.51c-.2,1-.3,1.93-.45,2.9-7.56,1.33-15.11,2.76-22.69,3.94-3.73.58-7.54.7-11.31,1q1-7.4,2-14.78Z"/><path class="cls-25" d="M1219.58,234.49c.81-3.6,1.62-7.2,2.55-11.35l-7.68-.48,42.09-3.13c4.55-.33,9.1-.63,13.65-.94.78,1.62,2,3.19,2.2,4.87.2,2-.51,4.07-.82,6.12l-16.92,1.21Z"/><path class="cls-26" d="M1271.57,229.58c.31-2.05,1-4.13.82-6.12-.18-1.68-1.42-3.25-2.2-4.87q13.56-1.35,27.12-2.69c6.75-.65,13.51-1.26,20.26-1.89l-1.94,11.73c-6.69.66-13.36,1.39-20.05,2C1287.58,228.4,1279.57,229,1271.57,229.58Z"/><path class="cls-18" d="M1315.63,225.74q1-5.87,1.94-11.73l38-6.07q-1,7.4-2,14.78l-31,3.07Z"/><path class="cls-19" d="M570.51,839.66c7.88-13.84,9.4-14.73,22.74-12.85C585,830.87,581.46,840.57,570.51,839.66Z"/><path class="cls-19" d="M1440.1,839.84c7.27-13.91,7.56-14.1,21.5-13.11C1454.76,831.18,1450.86,840.2,1440.1,839.84Z"/><path class="cls-24" d="M1156.65,229l-3.13.72Z"/><path class="cls-18" d="M1130.27,307l3.41.36Z"/><path class="cls-27" d="M952.71,892.86l27.5-37.43"/></g></g></g></svg>