<svg xmlns="http://www.w3.org/2000/svg" viewBox="0 0 713.28 88.55"><defs><style>.cls-1{fill:#050505;}.cls-2{fill:#373737;}.cls-3{fill:#060606;}.cls-4{fill:#040404;}.cls-5{fill:#fedd24;}.cls-6{fill:#080808;}.cls-7{fill:#fede2d;}</style></defs><g id="Capa_2" data-name="Capa 2"><g id="Capa_1-2" data-name="Capa 1"><g id="zKA4mZ.tif"><path class="cls-1" d="M0,3,55,3c12.2,0,24.44,7.46,27,17.56,3.26,13,1.13,26.23-10.64,34.22-2.33,1.58-4.76,3-7.36,4.65,5.39,8.76,10.8,17.58,16.69,27.16-4.28,0-7.87.24-11.39-.13a5.51,5.51,0,0,1-3.46-2.7q-5.55-10-10.69-20.19c-1.25-2.48-2.67-3.71-5.71-3.61-7.79.26-15.6.09-23.89.09V86.38H11.42V34H25.26V51.74c11.07,0,21.69.31,32.28-.14,5.33-.22,11.9-8.63,13.25-15.5a20.8,20.8,0,0,0-20.5-24.87c-11.83,0-23.67-.27-35.49.12-5.28.18-9.33-.94-12.3-5.43A10,10,0,0,0,0,4Z"/><path class="cls-2" d="M552,1c0-.33,0-.67,0-1h62a.78.78,0,0,1,.3.8Z"/><path class="cls-3" d="M108.09,3.15h13.38c.1,1.29.29,2.55.29,3.8,0,16-.19,31.92.06,47.87.3,18.76,20.11,30.24,35.92,20.92,8-4.69,11.67-12.12,11.87-21.14.24-10.78.06-21.58.06-32.71h13.12c0,12.2.64,24.34-.17,36.37-1,14.67-12,25.7-27.86,29.17a44.15,44.15,0,0,1-31.83-4.68c-9.18-5.11-14.36-13.23-14.68-23.4C107.67,40.79,108.09,22.19,108.09,3.15Z"/><path class="cls-3" d="M456.36,12.15l-7.09,9.11c-8.1-7.14-17.17-11.7-28.15-10-8.48,1.36-14.74,6.63-19.94,13.14-10.35,13-8.14,32.89,4.88,45.1,11.47,10.75,29.3,10.22,43-1.62l7.09,7.88C441.45,91,411,92.05,396.17,78.1c-19-17.87-20.75-43.8-4.5-62.32C408.57-3.51,438.08-2.16,456.36,12.15Z"/><path class="cls-1" d="M367.15,86.6a8.25,8.25,0,0,1-1,.34c-13.22.7-13,.61-18.29-12.55-8.35-20.83-17-41.54-25.92-63.2-5.26,12.67-10.11,24.5-15.06,36.28-4.81,11.45-10.05,22.72-14.4,34.33-1.72,4.56-4.07,5.81-8.4,5.28a64.16,64.16,0,0,0-6.91,0c2.92-6.76,5.62-13,8.33-19.29,8.83-20.34,17.73-40.65,26.43-61,1.25-2.92,2.81-3.77,5.91-3.75,13.81.12,13.75,0,18.86,12.08q14.15,33.38,28.42,66.69C365.76,83.23,366.38,84.75,367.15,86.6Z"/><path class="cls-1" d="M552.31,86.56a7.6,7.6,0,0,1-1.07.36c-12.58.75-12.58.74-17.36-10.84-8.79-21.34-17.59-42.67-26.72-64.8C501.9,23.86,497,35.72,492,47.56c-5.18,12.36-10.33,24.74-15.68,37a5,5,0,0,1-3.55,2.35,96.53,96.53,0,0,1-10,.11,34.58,34.58,0,0,1,1.18-3.87C475,57.69,486.17,32.24,497.15,6.71c1.27-2.95,2.85-3.93,6-3.73,4.31.27,8.65.06,13.56.06C528.45,30.68,540.3,58.43,552.31,86.56Z"/><path class="cls-3" d="M272.81,3.33v8.41H245.06V86.67H230.89V12H203.24V3.33Z"/><path class="cls-4" d="M552,1,614.27.8c9.94,3.21,14.86,11.23,18.79,20,6.63,14.77,13,29.67,19.72,45.13l-6.31,3.71c-5.59-12.71-11.56-24.89-16.32-37.52-4.49-11.89-13.35-15.89-24.82-16-13.81-.13-27.63.08-41.44.45-3.62.09-6-.64-7.3-4.2C555.2,8.53,553.56,4.79,552,1Z"/><path class="cls-5" d="M633.8,76.48l-6.11,2.93c-4.27-9.68-8.55-18.95-12.42-28.39-1.85-4.52-4.78-6.41-9.52-6.35-8.64.11-17.29.1-25.94,0-8.24-.07-13.75-5.87-13.74-14.87h17.31c7.65,0,15.31.19,23-.06,5.67-.18,9.37,2.72,11.36,7.34C623.26,50,628.37,63.12,633.8,76.48Z"/><path class="cls-6" d="M712.29,54.68c-4.67-1.85-9.49-3.39-14-5.63-5.44-2.73-10.35-2.56-15.55.57-6,3.58-12.2,6.75-18.74,10.33-1.88-3.9-3.77-7.84-5.88-12.21,9.28-4.71,18.12-9.62,27.35-13.62,2.57-1.11,7.27-.66,9.34,1.06,6.56,5.46,12.34,11.85,18.43,17.88Z"/><path class="cls-6" d="M616.69,86.38c-1.27-.78-3.08-1.26-3.72-2.4-2.9-5.18-5.15-10.75-8.31-15.75a10.31,10.31,0,0,0-6.5-4.08c-4.22-.64-8.61-.21-12.93-.11-3.9.08-6.52-1.65-8.82-6.29,5.09,0,9.44-.1,13.78,0,14.84.39,13.63-3.36,20.88,13.13,2,4.67,4.33,9.26,6.5,13.89C617.27,85.32,617,85.85,616.69,86.38Z"/><path class="cls-7" d="M171.3,3.3h11.33V14.53l-12-10.14Z"/></g></g></g></svg>