<svg xmlns="http://www.w3.org/2000/svg" viewBox="0 0 1712 594"><defs><style>.cls-1{fill:#fde934;}.cls-2{fill:#231f20;}.cls-3{fill:#241f20;}.cls-4{fill:#242020;}.cls-5{fill:#252120;}.cls-6{fill:#312c1f;}.cls-7{fill:#fce834;}.cls-8{fill:#f4e132;}.cls-9{fill:#282420;}.cls-10{fill:#eedc31;}</style></defs><g id="Capa_2" data-name="Capa 2"><g id="Capa_1-2" data-name="Capa 1"><g id="LT6Ete"><path class="cls-1" d="M0,0H1712V594H0ZM505,398.78c.93.58,1.46.73,1.73,1.09C517,413.49,531.32,421.18,547.16,426c35.18,10.6,70.53,8.89,105.41-1.12,83.53-24,134-99.08,126.31-179.68-3.4-35.4-21.43-61.3-53.92-76.56-17.1-8-35.29-11.74-54-13.17-38.68-2.94-74.93,4.2-107.38,26.42-6.26,4.28-12,9.3-18.57,14.41,2.47-11.78,4.83-23,7.17-34.23a7.89,7.89,0,0,0-1.51-.45c-31.33,0-62.66,0-94-.14-2.92,0-3.48,1.36-4,3.79-5.5,26-11.15,52.05-16.7,78.07q-25.83,121-51.62,242.06c-2.17,10.2-4.31,20.4-6.51,30.86H479.76c4.23-19.78,8.4-39.29,12.58-58.79S500.72,418.52,505,398.78ZM400.61,237.27c3.8-28.37-6.39-49.92-30.16-64.49-10.89-6.69-22.8-10.84-35.12-13.84-34.84-8.47-70.28-8.9-105.8-7.3-24.5,1.1-48.78,4-72.3,11.45C114.9,176.46,86.16,202.34,78.36,248c-4.36,25.5,3.92,44.63,27.34,55.56a138.85,138.85,0,0,0,37.53,11.2c34.23,5.19,68.69,8.87,103,13.38a89.71,89.71,0,0,1,18.39,4.3c7.46,2.66,9.87,8.32,7.95,16-2.27,9.1-8.48,14.7-16.93,17.55-22.43,7.56-45.34,7.08-68,1.58-14.63-3.56-19-10.43-19.79-25.5,0-.26-.32-.52-.51-.81H49.55c0,9-1.11,18,.22,26.52,3.38,21.78,17.52,35.61,36.41,45.15,20.2,10.2,42,14.63,64.29,17.06a493.82,493.82,0,0,0,86.32,1.8c28.84-1.91,57.29-6.09,84.33-16.87,37.13-14.81,62.62-39.48,68.54-81,3.72-26-7.37-47.16-31.46-58-18.3-8.2-37.78-11.63-57.49-13.9-27.95-3.21-55.94-6-83.87-9.37a116.7,116.7,0,0,1-22.77-5.12c-7.58-2.52-9.8-8.39-7.44-16,1.81-5.84,5.58-10.14,10.62-13.41,7.63-4.93,16.2-6.83,25.07-7.57,15.84-1.32,31.62-1.53,47,3.5,10.84,3.54,17.81,10.19,17.62,22.44,0,.25.38.49.63.79ZM1571.15,360h-4.52c-15,.05-30,.56-44.93,0-13.33-.49-17.37-6.07-15.48-19.17.09-.66.26-1.31.39-2q8-38.1,15.9-76.2c2.35-11.2,4.81-22.38,7.27-33.83h67.09c4.81-22.46,9.56-44.65,14.45-67.47h-67.44l17.68-82.17h-101.4a19.73,19.73,0,0,0-1,2.75c-5.37,24.87-10.83,49.73-15.92,74.66-.83,4.06-2.39,5.07-6.22,4.95-8.49-.25-17-.08-25.49-.08H1389c-4.83,22.59-9.56,44.66-14.44,67.49H1428c-4.94,23.12-9.9,45.53-14.5,68-5.13,25.08-10.74,50.1-14.66,75.38-4.18,27,6.67,42.75,32.67,50.81a19.92,19.92,0,0,0,3.36.92c10.88,1.34,21.81,3.91,32.66,3.67,28.45-.62,56.88-2.43,85.3-4,1.79-.1,4.69-1.79,5-3.21C1562.43,400.65,1566.68,380.65,1571.15,360ZM1352.28,162.35c-.75-.43-1-.72-1.3-.72-32.48-.06-65-.13-97.45,0-1.16,0-3,1.82-3.34,3.12-1.34,4.79-2.18,9.73-3.22,14.61q-22.79,107.37-45.57,214.74c-2,9.18-3.82,18.38-5.74,27.64a15.45,15.45,0,0,0,2.09.4c32,0,64,0,96,.11,3.52,0,3.9-1.75,4.47-4.45q24.24-114.46,48.61-228.88C1348.69,180,1350.48,171.1,1352.28,162.35Zm-570,259.54H884l55.15-260.07H837.42Zm242.66.09c18.42-86.78,36.78-173.3,55.22-260.2h-99q-27.57,130-55.21,260.2Zm30.76-129.27c1-.28,1.41-.27,1.55-.48a17.11,17.11,0,0,0,1.5-2.54c8.31-18.09,22.16-30.55,40-38.73,24.16-11.07,49.7-12.91,75.74-10.43,7.38.71,14.71,2,22.33,3.12,6.62-30.87,13.18-61.53,19.82-92.55-3.27-.33-6.06-.68-8.86-.89-26.17-2-49.61,6.17-71.32,19.89-37.72,23.83-63.07,57.08-75,100.29C1059.45,277.69,1057.65,285.05,1055.67,292.71ZM1270.11,70.39c-4.33,20.47-8.62,40.71-13,61.27h101.75l13-61.27Zm-413.27,0c-4.3,20.28-8.61,40.57-13,61.22H945.68l12.89-61.22Zm764.58,112c-.12,11.93,8.81,21.35,20.38,21.5s20.6-8.95,20.78-21.06-8.47-21.46-20.09-21.7C1630.63,160.88,1621.55,170.05,1621.42,182.38Z"/><path class="cls-2" d="M505,398.78c-4.26,19.74-8.46,39.19-12.64,58.64s-8.35,39-12.58,58.79H377.85c2.2-10.46,4.34-20.66,6.51-30.86q25.8-121,51.62-242.06c5.55-26,11.2-52,16.7-78.07.51-2.43,1.07-3.8,4-3.79,31.33.12,62.66.1,94,.14a7.89,7.89,0,0,1,1.51.45c-2.34,11.19-4.7,22.45-7.17,34.23,6.55-5.11,12.31-10.13,18.57-14.41C596,159.62,632.27,152.48,671,155.42c18.72,1.43,36.91,5.13,54,13.17,32.49,15.26,50.52,41.16,53.92,76.56,7.74,80.6-42.78,155.72-126.31,179.68-34.88,10-70.23,11.72-105.41,1.12-15.84-4.77-30.14-12.46-40.45-26.08C506.44,399.51,505.91,399.36,505,398.78Zm109.39-174c-17.09,1.46-33.52,4.08-48.23,12.71-29.06,17-40.73,43.76-40.23,76.32.31,20.26,12.5,35.15,31.94,41.19,14.13,4.39,28.58,4.56,43,2.87,21.79-2.53,40.81-10.77,54.61-28.61,12.93-16.71,18.35-36,18.42-56.87.07-20.54-10-35.35-29.38-41.67C634.87,227.57,624.46,226.69,614.37,224.78Z"/><path class="cls-2" d="M400.61,237.27h-113c-.25-.3-.63-.54-.63-.79.19-12.25-6.78-18.9-17.62-22.44-15.37-5-31.15-4.82-47-3.5-8.87.74-17.44,2.64-25.07,7.57-5,3.27-8.81,7.57-10.62,13.41-2.36,7.66-.14,13.53,7.44,16a116.7,116.7,0,0,0,22.77,5.12c27.93,3.37,55.92,6.16,83.87,9.37,19.71,2.27,39.19,5.7,57.49,13.9,24.09,10.81,35.18,31.94,31.46,58-5.92,41.5-31.41,66.17-68.54,81-27,10.78-55.49,15-84.33,16.87a493.82,493.82,0,0,1-86.32-1.8c-22.25-2.43-44.09-6.86-64.29-17.06-18.89-9.54-33-23.37-36.41-45.15-1.33-8.56-.22-17.5-.22-26.52H167.39c.19.29.49.55.51.81.76,15.07,5.16,21.94,19.79,25.5,22.63,5.5,45.54,6,68-1.58,8.45-2.85,14.66-8.45,16.93-17.55,1.92-7.69-.49-13.35-7.95-16a89.71,89.71,0,0,0-18.39-4.3c-34.33-4.51-68.79-8.19-103-13.38a138.85,138.85,0,0,1-37.53-11.2C82.28,292.61,74,273.48,78.36,248c7.8-45.64,36.54-71.52,78.87-84.89,23.52-7.42,47.8-10.35,72.3-11.45,35.52-1.6,71-1.17,105.8,7.3,12.32,3,24.23,7.15,35.12,13.84C394.22,187.35,404.41,208.9,400.61,237.27Z"/><path class="cls-3" d="M1571.15,360c-4.47,20.66-8.72,40.66-13.32,60.58-.33,1.42-3.23,3.11-5,3.21-28.42,1.54-56.85,3.35-85.3,4-10.85.24-21.78-2.33-32.66-3.67a19.92,19.92,0,0,1-3.36-.92c-26-8.06-36.85-23.78-32.67-50.81,3.92-25.28,9.53-50.3,14.66-75.38,4.6-22.47,9.56-44.88,14.5-68h-53.45c4.88-22.83,9.61-44.9,14.44-67.49h22.55c8.5,0,17-.17,25.49.08,3.83.12,5.39-.89,6.22-4.95,5.09-24.93,10.55-49.79,15.92-74.66a19.73,19.73,0,0,1,1-2.75h101.4l-17.68,82.17h67.44c-4.89,22.82-9.64,45-14.45,67.47h-67.09c-2.46,11.45-4.92,22.63-7.27,33.83q-8,38.1-15.9,76.2c-.13.65-.3,1.3-.39,2-1.89,13.1,2.15,18.68,15.48,19.17,15,.55,30,0,44.93,0Z"/><path class="cls-2" d="M1352.28,162.35c-1.8,8.75-3.59,17.67-5.48,26.57q-24.32,114.43-48.61,228.88c-.57,2.7-1,4.46-4.47,4.45-32-.15-64-.09-96-.11a15.45,15.45,0,0,1-2.09-.4c1.92-9.26,3.79-18.46,5.74-27.64q22.77-107.37,45.57-214.74c1-4.88,1.88-9.82,3.22-14.61.36-1.3,2.18-3.12,3.34-3.12,32.48-.13,65-.06,97.45,0C1351.26,161.63,1351.53,161.92,1352.28,162.35Z"/><path class="cls-2" d="M782.25,421.89l55.17-260.07H939.17L884,421.89Z"/><path class="cls-2" d="M1024.91,422h-99q27.68-130.39,55.21-260.2h99C1061.69,248.68,1043.33,335.2,1024.91,422Z"/><path class="cls-4" d="M1055.67,292.71c2-7.66,3.78-15,5.79-22.32,11.88-43.21,37.23-76.46,75-100.29,21.71-13.72,45.15-21.87,71.32-19.89,2.8.21,5.59.56,8.86.89-6.64,31-13.2,61.68-19.82,92.55-7.62-1.08-15-2.41-22.33-3.12-26-2.48-51.58-.64-75.74,10.43-17.82,8.18-31.67,20.64-40,38.73a17.11,17.11,0,0,1-1.5,2.54C1057.08,292.44,1056.63,292.43,1055.67,292.71Z"/><path class="cls-5" d="M1270.11,70.39H1371.9l-13,61.27H1257.14C1261.49,111.1,1265.78,90.86,1270.11,70.39Z"/><path class="cls-5" d="M856.84,70.34H958.57l-12.89,61.22H843.84C848.23,110.91,852.54,90.62,856.84,70.34Z"/><path class="cls-6" d="M1621.42,182.38c.13-12.33,9.21-21.5,21.07-21.26,11.62.24,20.26,9.58,20.09,21.7s-9.15,21.2-20.78,21.06S1621.3,194.31,1621.42,182.38Zm20.38-16.52c-9,.08-15.34,7.11-15.24,16.81s6.57,16.45,15.68,16.37,15.36-7.1,15.21-16.81S1650.94,165.78,1641.8,165.86Z"/><path class="cls-7" d="M614.37,224.78c10.09,1.91,20.5,2.79,30.18,5.94C664,237,674,251.85,673.93,272.39c-.07,20.86-5.49,40.16-18.42,56.87-13.8,17.84-32.82,26.08-54.61,28.61-14.47,1.69-28.92,1.52-43-2.87-19.44-6-31.63-20.93-31.94-41.19-.5-32.56,11.17-59.27,40.23-76.32C580.85,228.86,597.28,226.24,614.37,224.78Z"/><path class="cls-8" d="M1641.8,165.86c9.14-.08,15.5,6.57,15.65,16.37s-6.2,16.73-15.21,16.81-15.57-6.66-15.68-16.37S1632.83,165.94,1641.8,165.86Zm-2.67,20.75,1.47-1.19c1.29,1.27,3.12,2.32,3.76,3.86,1.41,3.4,3.51,4.5,7.17,3.31-.67-1.35-1.31-2.66-2-4s-1.37-2.62-2-3.9c5.83-4.26,4.18-11.77-1.77-12.55-3.83-.51-7.77-.1-11.54-.1v21l4.94-.3Z"/><path class="cls-9" d="M1639.13,186.61v6.12l-4.94.3v-21c3.77,0,7.71-.41,11.54.1,6,.78,7.6,8.29,1.77,12.55.68,1.28,1.38,2.59,2,3.9s1.31,2.62,2,4c-3.66,1.19-5.76.09-7.17-3.31-.64-1.54-2.47-2.59-3.76-3.86ZM1641,175c-.53.38-1.06.76-1.58,1.15v5.62l1.24,1.11,4.72-4Z"/><path class="cls-10" d="M1641,175l4.38,3.86-4.72,4-1.24-1.11v-5.62C1640,175.76,1640.51,175.38,1641,175Z"/></g></g></g></svg>