<svg xmlns="http://www.w3.org/2000/svg" viewBox="0 0 570.62 93.14"><defs><style>.cls-1{fill:#d4e799;}.cls-2{fill:#f58d90;}.cls-3{fill:#ec1c24;}.cls-4{fill:#bdd52f;}.cls-5{fill:#71be44;}.cls-6{fill:#ba151a;}.cls-7{fill:#020202;}.cls-8{fill:#030303;}.cls-9{fill:#040404;}.cls-10{fill:#050505;}.cls-11{fill:#060606;}</style></defs><g id="Capa_2" data-name="Capa 2"><g id="Capa_2-2" data-name="Capa 2"><g id="lG9cJg.tif"><path d="M570.62,66.5l-17.85,0h-6.61V26.7h5.3V62h1.09c5.66,0,11.32,0,17,0a5.83,5.83,0,0,1,1.09.21Z"/><path class="cls-1" d="M.06.18A.37.37,0,0,1,.07,0H86.38a.41.41,0,0,1,0,.16c-.42,0-.83,0-1.25,0L66.49.22H46.42c-.68,0-1.35,0-2,0Z"/><path class="cls-2" d="M86.35.16a.41.41,0,0,0,0-.16h48.07a.12.12,0,0,1,0,.14c-.41,0-.83,0-1.25,0H87.82c-.42,0-.84,0-1.25,0a.33.33,0,0,0-.14,0Z"/><path class="cls-3" d="M86.57.24c.41,0,.83,0,1.25,0h45.41c.42,0,.84,0,1.25,0A33.22,33.22,0,0,1,139,66a29,29,0,0,1-5.18.47c-6.5.06-13,0-19.49,0h-1.23V91.47c0,.36,0,.71,0,1.06,0,0-.11-.09-.12-.15q-2.53-8.8-5.06-17.61-3.4-11.94-6.81-23.89-2.58-9-5.16-18-3.4-11.85-6.77-23.71C88.24,6.21,87.41,3.23,86.57.24ZM113.1,39.93h1.28c6.24,0,12.47,0,18.71,0a6.58,6.58,0,0,0,6.4-8,6.68,6.68,0,0,0-6.9-5.25c-6.2,0-12.4,0-18.6,0-.29,0-.57,0-.89,0Z"/><path class="cls-4" d="M66.49.22,85.1.19c.42,0,.83,0,1.25,0l.08.07c0,.38,0,.77,0,1.15v90.3c0,.35,0,.71,0,1.06q-1.81-6-3.65-11.94c-.34-1.13-.72-2.26-1-3.41-.16-.7-.49-.88-1.18-.88-8.85,0-17.69,0-26.53,0-2.48,0-2.46,0-3.18,2.42-1.35,4.52-2.71,9-4.07,13.53a1,1,0,0,1-.14.25q0-32.61,0-65.2c0-.85.35-.93,1-.92H66.49ZM59.54,49.89H73.43c-2.29-7.6-4.56-15.15-6.83-22.7h-.24Z"/><path class="cls-5" d="M66.49.22v26.4H47.6c-.68,0-1,.07-1,.92q0,32.6,0,65.2c-.2.13-.4.39-.6.39-8.7,0-17.41,0-26.19,0l.11-.57c.06-.08.15-.14.18-.23q1.37-4.74,2.72-9.5L30,57.72Q33,47.34,36,37l7.56-26.49L46.42.22Z"/><path class="cls-4" d="M46.42.22l-2.9,10.25L36,37q-3,10.38-6,20.76L22.83,82.83q-1.35,4.76-2.72,9.5c0,.09-.12.15-.18.23,0-.42,0-.84,0-1.25V28c0-1.33,0-1.33-1.37-1.33H.1c0-.29-.1-.53-.1-.77V.65A3.55,3.55,0,0,1,.06.18H44.39C45.07.19,45.74.21,46.42.22Z"/><path class="cls-6" d="M86.36,92.74c0-.35,0-.71,0-1.06V1.38c0-.38,0-.77,0-1.15a.33.33,0,0,1,.14,0c.84,3,1.67,6,2.52,9q3.38,11.87,6.77,23.71,2.56,9,5.16,18,3.42,11.94,6.81,23.89,2.52,8.82,5.06,17.61c0,.06.08.1.12.15.19.71-.31.61-.72.61h-9.53q-7.76,0-15.5,0C87,93.12,86.66,92.87,86.36,92.74Z"/><path class="cls-7" d="M268.11,48.67a12.68,12.68,0,0,1,4.45,7c1,3.58,1.94,7.15,2.93,10.76h-7.84c-.69-2.63-1.38-5.29-2.08-7.94-.18-.68-.35-1.37-.58-2-1.16-3.48-3.06-4.9-6.76-5-1.63-.06-3.26,0-5,0v15H245.8V27.23c2.72-.27,5.45-.63,8.2-.78,3.88-.21,7.78-.32,11.58.75,4.6,1.3,7.89,4,8.81,8.9a11.19,11.19,0,0,1-5.69,12.22ZM253.29,32.9V45.3h4.58a9.05,9.05,0,0,0,1.73,0,23.15,23.15,0,0,0,3.9-1,5.61,5.61,0,0,0,3.56-5.73,5.37,5.37,0,0,0-3.79-5.15C260,32.2,256.65,32.53,253.29,32.9Z"/><path class="cls-7" d="M200.35,26.65h10q7.24,19.88,14.54,39.86H216.4c-1.25-3.53-2.52-7-3.74-10.57a1.13,1.13,0,0,0-1.29-.92c-4.15,0-8.3,0-12.45,0a1,1,0,0,0-1.08.78q-1.62,5-3.33,10c-.09.28-.44.68-.68.69-2.48,0-5,0-7.6,0C191,53.19,195.65,39.93,200.35,26.65Zm4.71,6c-1.78,5.39-3.64,11-5.5,16.61h11.29C208.89,43.66,206.93,38.06,205.06,32.69Z"/><path class="cls-8" d="M358.85,45.94c-.14,7.12-2.28,13-7.82,17.17a21.14,21.14,0,0,1-15.84,4c-6.73-.79-11.92-4-15.13-10.07-4.58-8.61-2.77-22,7.19-28,7.43-4.54,18.93-4.12,25.62,2.38A19.35,19.35,0,0,1,358.61,43C358.75,44.12,358.79,45.21,358.85,45.94Zm-35.48,1.42c.06.59.12,1.75.31,2.88,1.15,6.64,5.88,12.21,13.31,12.7,5.14.35,9.54-1.26,12.67-5.5,3.33-4.51,4-9.65,2.92-15-1.31-6.41-5.8-11.4-12.63-12-5.72-.55-10.45,1.3-13.71,6.2C324.19,39.66,323.45,43.14,323.37,47.36Z"/><path class="cls-9" d="M501.4,28.33c-.48,1.49-.93,2.88-1.33,4.09-2.24-.51-4.36-1.17-6.53-1.45-4.63-.58-9.2-.33-13.44,1.86-5.76,3-8.34,7.9-8.21,14.24C472,52.54,474.2,57,479,60a16.93,16.93,0,0,0,7,2.38,26.58,26.58,0,0,0,10.5-.65,1.14,1.14,0,0,0,1-1.33c-.06-3.15,0-6.3,0-9.44v-1h-9V45.64h14.37v19c-2.37.57-4.77,1.28-7.21,1.7a33.44,33.44,0,0,1-15.75-.62,18.81,18.81,0,0,1-13.66-18.33c-.11-9.95,6-17.78,16-20.23a32.34,32.34,0,0,1,18.23.73C500.71,28,501,28.17,501.4,28.33Z"/><path class="cls-7" d="M368.27,49.37v17.1h-5.34V27c3.2-.21,6.42-.45,9.65-.61a26.56,26.56,0,0,1,8.88.81c4,1.14,6.9,3.41,7.85,7.62a10.31,10.31,0,0,1-6.12,12l-1.48.63c3.38,1.42,4.94,4.17,5.88,7.39,1.05,3.63,2.07,7.27,3.11,10.9.06.21.16.41.29.75-1.82,0-3.54,0-5.25,0-.24,0-.58-.45-.67-.76-.8-2.7-1.54-5.41-2.32-8.12-.32-1.14-.61-2.3-1-3.4a7.23,7.23,0,0,0-6.89-4.83C372.68,49.28,370.52,49.37,368.27,49.37Zm.06-18.6V45.26c2.49,0,4.94.16,7.36-.06a14.39,14.39,0,0,0,4.86-1.32,6.34,6.34,0,0,0,3.6-6.38,6.18,6.18,0,0,0-4.35-6.06,14.1,14.1,0,0,0-4.21-.87C373.17,30.49,370.74,30.69,368.33,30.77Z"/><path class="cls-8" d="M506.08,66.54,510,56.22q5.4-14.32,10.8-28.66a1.2,1.2,0,0,1,1.37-.95c1.61.07,3.22,0,4.83,0a.91.91,0,0,1,1,.68q7.34,19.31,14.72,38.58a5.86,5.86,0,0,1,.19.66c-1.89,0-3.71,0-5.52,0-.21,0-.49-.42-.6-.7-1.42-3.67-2.83-7.35-4.19-11a1.16,1.16,0,0,0-1.31-.9q-7,.06-14,0a1.14,1.14,0,0,0-1.28.93c-1.28,3.65-2.65,7.28-3.93,10.93a1.05,1.05,0,0,1-1.23.83C509.32,66.51,507.75,66.54,506.08,66.54ZM531,49.68c-2.28-6.13-4.53-12.2-6.72-18.08-2.16,5.91-4.38,12-6.61,18.08Z"/><path class="cls-8" d="M428.41,26.66h5.48v1.11c0,7.78-.05,15.55.06,23.32A13.58,13.58,0,0,0,437.13,60c3.72,4.39,14.39,4.61,17.29-3.68A21.72,21.72,0,0,0,455.54,49q0-10.6,0-21.2V26.69h5.37c0,.3,0,.61,0,.92,0,7.45,0,14.91,0,22.36a21.16,21.16,0,0,1-1.62,8.35c-2.26,5.26-6.42,8-12,8.76a20,20,0,0,1-9.06-.66c-5.16-1.71-8-5.52-9.14-10.63a27.8,27.8,0,0,1-.7-5.81c-.07-7.49,0-15,0-22.46Z"/><path class="cls-10" d="M287.32,27c2.27-.2,4.53-.49,6.79-.59,3.75-.18,7.52-.33,11.2.73,4.48,1.29,7.62,3.95,8.51,8.69,1.25,6.71-2.16,12.18-8.75,14.25a27.89,27.89,0,0,1-12.29.71V66.46h-5.46ZM292.79,31V46.49c1.3.13,2.56.31,3.83.37a15.07,15.07,0,0,0,7.88-1.39c3.11-1.66,4.31-4.36,4.09-7.76A6.7,6.7,0,0,0,304,31.52C300.35,30.09,296.58,30.51,292.79,31Z"/><path class="cls-11" d="M406,66.49V31.25H392.28V26.68h32.94v4.49H411.51V66.49Z"/><path class="cls-11" d="M237.39,66.5h-7.61V26.68h7.61Z"/></g></g></g></svg>