<svg xmlns="http://www.w3.org/2000/svg" viewBox="0 0 2505.6 640.01"><defs><style>.cls-1{fill:#c41019;}.cls-2{fill:#010101;}.cls-3{fill:#020202;}</style></defs><g id="Capa_2" data-name="Capa 2"><g id="Capa_1-2" data-name="Capa 1"><g id="_7e21f1.tif" data-name="7e21f1.tif"><path class="cls-1" d="M60.83,507.68c12.4-3.56,24.65-7.1,36.91-10.6L545.5,369.6q16.05-4.56,32.09-9.21c3.11-.91,7.25-1.38,6.38-6-.79-4.18-4.58-3.62-7.74-3.42Q535.6,353.6,495,356.31q-41.37,2.76-82.74,5.62c-16.44,1.11-32.88,2.19-50.86,3.39,2.1-2.08,3.28-3.25,4.47-4.41,18.09-17.64,33.15-37.37,41-61.73,12.46-38.92,6.56-75.84-13.43-110.85C375.44,157,349.91,132.54,321,111.43c-44-32.19-93-54.59-144.11-72.85-1.41-.5-2.82-1-5.3-1.83C225.07,8.39,281.36-3.34,340.57.81c90.38,6.33,166.17,43.72,224.56,113,121.63,144.28,93.33,360.4-60.57,468.11C353.26,687.8,154.07,640.63,60.83,507.68Z"/><path class="cls-1" d="M50.16,491.88C-38.35,357.09-12.5,153.18,149.89,48.74c8.82,8.48,18.38,16.71,26.83,26,32.52,35.61,51.37,78,59.76,125.07,8.79,49.39,5.23,98.09-11.07,145.56-20.44,59.53-61.79,99.84-118.5,125C88.46,478.58,69.11,484.77,50.16,491.88Z"/><path class="cls-2" d="M1875.18,441.3V626.39h-53V361.09c1.27-.06,2.71-.19,4.16-.19,10.66,0,21.32.06,32,0,21-.15,36.77,8.93,47.78,26.52,16.75,26.75,33.65,53.41,50,80.4,15.65,25.83,30.7,52,46,78.06.14.23.45.35.87.67V361.09h53.09V626.58h-4.68c-19.32,0-38.65-.08-58,.08-3.23,0-5-.91-6.71-3.71C1950.3,563.11,1911,505,1877,443.67A26.34,26.34,0,0,0,1875.18,441.3Z"/><path class="cls-3" d="M2305.84,168.34V279.82h-61.47V14.55h61.4V119.42H2418V14.57h61.55V279.75h-61.38V168.34Z"/><path class="cls-2" d="M1434.63,281H1373V14.62c1-.09,1.94-.26,2.88-.26,37.13,0,74.27-.08,111.41.1,15.29.08,30.13,2.95,43.9,9.86,26,13,38.57,35.09,40,63.28,1.79,35.17-14.43,60-46.54,75.09,24.85,38.56,49.71,77.11,75,116.32-13.11,0-25.43-.7-37.61.25-8,.63-15.39,0-22.76-2.87a52.7,52.7,0,0,1-26.8-22.09c-15-24.48-30.12-48.92-45-73.47-1.77-2.91-3.68-4-7.1-3.92-8.44.26-16.9.08-25.67.08Zm1.23-218.8v73c13.9,0,27.58.74,41.15-.19,16.58-1.13,28-10.53,31.15-24.9a59.51,59.51,0,0,0,1-18.78c-1.73-16.74-11.3-27.31-28-28.8C1466.31,61.11,1451.25,62.16,1435.86,62.16Z"/><path class="cls-2" d="M1466.5,625.68c-16.88,0-33.55,1.2-50-.34-15.59-1.47-27.8-10.54-36.15-24q-22.87-36.83-45.41-73.86c-1.76-2.89-3.56-4.15-7-4-8.45.28-16.91.09-25.75.09V627.36h-61.45V360.89h4.4q53,0,105.93,0c14.62,0,28.91,2,42.44,7.62,26.72,11.1,41.29,31.74,44.73,60,3.08,25.23-3.2,48-22.09,65.93-6.76,6.41-15.22,11-23.41,16.84C1417,548.83,1441.79,587.36,1466.5,625.68ZM1304,408v73.79c12.37,0,24.84.15,37.3,0,24.32-.34,38.8-16.29,37.08-40.58-1.43-20.15-12.81-32-33-33.05C1331.92,407.48,1318.42,408,1304,408Z"/><path class="cls-2" d="M1086.48,626.5H1020.3c-3.5-10.9-7-21.9-10.57-32.9-1.37-4.27-2.91-8.49-4-12.82-.71-2.82-2.1-3.53-4.89-3.52q-50.22.13-100.44,0c-2.89,0-4,1-4.82,3.61-2.82,9.2-5.82,18.34-8.85,27.47-3.9,11.75-12.74,18.19-25.07,18.24-14.27,0-28.55,0-43.44,0l99.87-265.69H964c6.83,0,13.67.25,20.48-.1,3.5-.18,4.86,1.1,6,4.21q37.95,103.72,76.09,207.38Zm-98-96.59C976,493.23,963.62,456.8,951.16,420.07c-12.89,36.71-25.66,73.08-38.56,109.84Z"/><path class="cls-2" d="M1699.43,155.41V279.89H1638V14.66h61.17V131.29c2.26-2.6,3.65-4,4.82-5.59q40.15-53.76,80.17-107.62c2.14-2.89,4.31-3.84,7.81-3.81,19.32.17,38.63.08,58.57.08-.9,1.41-1.47,2.51-2.22,3.46q-43.42,55.05-87,110c-3.19,4-3.23,6.63-.06,10.65q52.47,66.66,104.62,133.58c1.59,2,3.14,4.11,5.33,7h-20.74c-8.67,0-17.33-.11-26,0-19,.27-34.11-7.36-45.7-22.26q-37.23-47.86-74.5-95.7C1703,159.46,1701.6,157.94,1699.43,155.41Z"/><path d="M1315.51,14.61v3.23q0,83.37-.07,166.73c0,19.74-3.79,38.75-14.08,55.87-12.84,21.36-32.16,33.34-56.5,38-29.4,5.66-58.63,5.4-87.54-2.44-38.08-10.33-59-40.52-62.73-74.37a202.9,202.9,0,0,1-1.19-21.91q-.15-80.87-.06-161.74V14.69H1155v5.48c0,51.91-.11,103.83.12,155.75a101.75,101.75,0,0,0,2.67,23.67c5.4,22,20.35,34.18,43.11,35.33a80.22,80.22,0,0,0,20.82-1.42c20.68-4.46,33.51-20.22,35.79-43.06.55-5.62.84-11.29.85-16.93q.09-76.62,0-153.25V14.61Z"/><path class="cls-2" d="M2173.45,467.43h89.42V512h-89.39v65.15h105v49.22H2112.91V361.23h165.64c0,8.85.71,17.68-.17,26.36C2277,401.25,2266.82,410,2253,410c-24.65.15-49.3.05-73.95.05h-5.58Z"/><path class="cls-2" d="M2016.13,219.14c10.7,3.8,20.85,7.84,31.28,11,19.83,6,40.06,8.58,60.57,3.9,17.44-4,25.39-15.49,23.32-32.7-1-8.57-6-14.51-13.29-18.12-10.24-5.07-21-9.16-31.31-14-13-6.13-26.56-11.59-38.69-19.21-20.25-12.72-30-32.33-31.65-55.95-1.46-21.28,2.41-41.15,17.44-57.44,12.58-13.63,28.83-20.65,46.66-23.95,31.63-5.86,62.6-2.54,92.95,7.77,3.34,1.13,4.58,2.69,4.51,6.35-.24,14.64-.1,29.28-.1,44-8.88-2.94-17.52-6.27-26.42-8.64-17.67-4.68-35.63-7-53.84-3.57-13.37,2.53-20.94,9.78-22.73,21.16-1.48,9.4,1.13,17.66,9.32,22.52,8.65,5.12,18.16,8.8,27.28,13.13,15.58,7.4,31.48,14.22,46.64,22.39,20.38,11,32,28.46,34.59,51.67,3.13,28.49-3.22,53.58-26.64,72.28a87.33,87.33,0,0,1-41.66,18c-35.41,5.48-70.31,3.51-104.21-9.21-3.16-1.18-4.16-2.64-4.11-6C2016.26,249.38,2016.13,234.3,2016.13,219.14Z"/><path class="cls-2" d="M2328.22,615.29V565.21c4.19,1.7,8.08,3.3,12,4.86,21.2,8.51,43,14.15,66.06,12.39a81.57,81.57,0,0,0,21.74-4.82c10.21-3.73,15.05-12.09,15.78-22.77.72-10.51-2.81-19.43-12.36-24.27-12.26-6.2-25.12-11.2-37.63-16.91-9.65-4.41-19.54-8.46-28.66-13.8-28.78-16.85-39.14-43.13-36.56-75.21,3.09-38.4,29.32-59,64.4-65.57,31.25-5.87,61.93-2.49,92,7.63,3.66,1.23,5.2,2.74,5.1,6.92-.32,14.57-.12,29.15-.12,43.08-11.9-3.47-23.5-7.5-35.41-10.15-16-3.56-32.31-5-48.45-.61-14.11,3.86-20.76,13.92-19.17,27.9.77,6.77,4.18,12.21,9.92,15.31,8.72,4.72,18,8.42,26.94,12.72,16.29,7.82,32.9,15.1,48.7,23.83,19.35,10.69,29.74,28,32.3,49.87,1.44,12.3,1.27,24.58-2.34,36.59-8.34,27.79-28.32,43.26-55,51.38-21.41,6.51-43.42,6.06-65.39,4.52A166.18,166.18,0,0,1,2328.22,615.29Z"/><path class="cls-2" d="M977.56,63.53V279.85H916V63.6H844.18v-49h206c0,9.32,1,18.85-.23,28.11-1.63,12.62-12,20.67-24.82,20.77C1009.46,63.62,993.83,63.53,977.56,63.53Z"/><path class="cls-2" d="M1504.51,361.06c11.49,0,22.82-.63,34,.16,14,1,25.48,13.08,27,27.15a79.77,79.77,0,0,1,.38,8.47q0,87.57,0,175.14v6.36h97.31v47.93H1504.51Z"/><path class="cls-2" d="M1185.18,361.14V626.33h-61.27V361.14Z"/><path d="M1965.23,279.85h-61.17V14.59h61.17Z"/><path d="M1704.36,361.1h61.12V626.35h-61.12Z"/></g></g></g></svg>