<svg xmlns="http://www.w3.org/2000/svg" viewBox="0 0 1160.25 184.31"><defs><style>.cls-1{fill:#070707;}.cls-2{fill:#f8c433;}.cls-3{fill:#060606;}.cls-4{fill:#080808;}.cls-5{fill:#f6c435;}.cls-6{fill:#f9c533;}.cls-7{fill:#f7c434;}.cls-8{fill:#f4c43a;}.cls-9{fill:#101010;}.cls-10{fill:#0f0f0f;}.cls-11{fill:#0e0e0e;}.cls-12{fill:#0a0a0a;}.cls-13{fill:#161616;}.cls-14{fill:#121212;}.cls-15{fill:#efc23b;}.cls-16{fill:#725928;}.cls-17{fill:#242424;}.cls-18{fill:#644f20;}.cls-19{fill:#aa904c;}.cls-20{fill:#4c3d1c;}.cls-21{fill:#d5b762;}</style></defs><g id="Capa_2" data-name="Capa 2"><g id="Capa_1-2" data-name="Capa 1"><g id="s6UWfg.tif"><path class="cls-1" d="M0,58.63c1-3.08,2.56-6.1,3-9.27.7-4.73,3.14-6.87,7.7-6.31,5.25.65,7.58-1.27,7.7-6.65a35.57,35.57,0,0,1,1.9-10.2c.59-1.75,2.47-4.28,3.87-4.35,8.05-.42,16.14-.21,24.71-.21L45.59,43h19c-1,6.38-1.72,12.24-3.19,17.9-.33,1.3-3.33,2.54-5.2,2.7-4.45.4-8.95.13-13.94.13-.47,1.69-1.08,3.34-1.39,5-1.59,8.45-3.11,16.9-4.63,25.35-1.65,9.15,1.59,12.58,11,11.71,1.45-.14,2.92-.16,5.15-.28-.91,6-1.58,11.65-2.76,17.2-.25,1.2-2.29,2.79-3.6,2.87-8.21.55-16.65,2-24.62.72-11.23-1.82-16-9.6-14.51-21.09,1.57-12,3.81-23.82,5.76-35.72.92-5.67.77-5.83-5.16-5.81-2.49,0-5,0-7.46-.08Z"/><path class="cls-2" d="M220.91,103.11c-.07-1.44-.13-2.87-.19-4.29l.06-.1.06-.29.29,0c.9-1.72,2.28-3.36,2.63-5.19,2.46-12.73,4.81-25.48,7-38.27.54-3.26.23-6.67.32-10,1.56-.7,3.1-1.94,4.69-2a134.22,134.22,0,0,1,17.94.08c1.92.18,3.62,2.76,5.42,4.23-.2.59-.39,1.17-.58,1.75,2-1,4-1.94,5.9-3,12-6.63,24.54-7.62,36.85-2.07,8.34,3.76,13.39,11.39,15.05,20.42,3.62,19.7-1.61,36.94-16.58,50.49-4.81,4.35-11.11,7.06-16.72,10.52l-22.47.9-3.41-.95c-3.37-2.93-6.73-5.87-10.74-9.38-.11,2.13-.17,3.22-.23,4.32-2.45,13.34-4.86,26.7-7.45,40-.23,1.2-1.65,2.16-2.51,3.23l-24.37-.46,3-19.86c.49-2.22,1.12-4.42,1.44-6.66C217.86,125.43,219.37,114.26,220.91,103.11Zm63-37.7c-5.06-4.65-13.39-5.1-18.07-1l.85.51c-9.46,4-14.84,11.19-15.49,21.33-.72,11.07,7.09,20.11,19.92,17.65,8.68-1.67,13.05-7.34,16.77-14.26,1.09-2.69,2.36-5.33,3.21-8.1C292.89,75.8,289.26,67.87,283.92,65.41Z"/><path class="cls-1" d="M99.67,43.06c-1.9,11.07-3.73,21.44-5.43,31.82-1,6.19-2,12.4-2.65,18.64-.38,4,0,8.2,4.42,10.16a12.46,12.46,0,0,0,13.1-1.46c4.71-3.43,6.87-8.35,7.87-13.82q3.57-19.52,6.91-39.07c.74-4.36,2.78-6.57,7.56-6.39,7.1.28,14.22.07,22,.07-1,7-1.86,13.44-3,19.85-3.15,17.7-6.6,35.34-9.58,53.07-1.6,9.51-1.28,9.58-11.15,9.56-5.48,0-11-.07-16.45-.14-.28,0-.56-.29-1.1-.58V118c-4.46,2.51-8.43,5.12-12.71,7.08A34.66,34.66,0,0,1,77,127a20,20,0,0,1-15.64-19.86c.22-9,1.61-18.06,3-27q2.43-15.91,5.84-31.68c.44-2,3-5,4.74-5.17C82.94,42.75,91.05,43.06,99.67,43.06Z"/><path class="cls-3" d="M945.33,125.19c2.6-14.63,5.1-28.59,7.52-42.57a61.1,61.1,0,0,0,.67-7.4c.22-4.8-1-8.91-5.9-11-4.13-1.77-9.75,0-13.51,3.79-6.06,6.12-6.42,14.19-7.81,21.9-1.92,10.56-3.65,21.16-5.77,31.67-.29,1.42-2.39,3.47-3.72,3.53-8.26.32-16.54.16-25.44.16,1-5.66,1.77-10.81,2.66-16,3.49-20,6.86-40.1,10.7-60.07.44-2.31,3.36-5.7,5.39-5.89,7.54-.71,15.2-.28,23.23-.28-.33,2.87-.6,5.23-1,8.74,2.92-2,5-3.53,7.24-5a35.83,35.83,0,0,1,22.62-6c13,.85,21.78,9.54,21.42,22.53-.23,8.36-1.8,16.7-3.08,25-1.64,10.63-3.61,21.2-5.39,31.81-.43,2.58-.93,5-4.29,5Z"/><path class="cls-4" d="M1071.61,110.16c-10,11-22.17,16.48-36.36,17.84-8.56.81-17.06.21-25-3.34-13.57-6.11-19.28-17-19.12-31.68.35-32.41,32.72-58.44,64.51-51.51,14.73,3.21,23.94,13.86,24.45,29a109,109,0,0,1-1.26,17.28c-.17,1.35-1.86,3-3.24,3.58a14.85,14.85,0,0,1-5.83.84c-15.64.06-31.28,0-46.92,0-4.45,0-5.25,1.24-3.51,5.31,3.2,7.5,13.18,11.4,22.6,8.62,2.51-.74,5.31-1.64,7.14-3.36,4.29-4,8-3.89,12.29-.12C1064.47,105.32,1068,107.51,1071.61,110.16Zm-17.35-35.77c.87-5.41-.61-9.39-4.7-12.13-5.88-3.93-12.16-3.19-18-.12-4.7,2.5-8.76,6.07-9.69,12.52,9.57,0,18.51,0,27.45,0C1050.83,74.65,1052.31,74.5,1054.26,74.39Z"/><path class="cls-1" d="M617.34,55.69c5.16-5.6,11.56-8.52,18.2-11.08A62.72,62.72,0,0,1,672.28,42c10.48,2.31,17.2,10.86,17,22.65-.17,9.71-1.64,19.42-3,29.07-1.31,9.13-3.07,18.22-5.06,27.23-.37,1.68-2.66,4.09-4.18,4.18-7.26.45-14.55.2-22.17.2v-5.17c-5.51,2.16-10.54,4.54-15.81,6.11a33.78,33.78,0,0,1-23-1.25C603,119.64,601,106.22,607.65,94c5.61-10.33,15.69-15,26.69-17.24,9.06-1.84,18.34-2.64,27.65-3.92,1.45-6-2.06-10.71-8.88-11.5a28.45,28.45,0,0,0-19.43,4.85c-4.51,3-7.3,2.68-10-2C622,61.26,619.6,58.68,617.34,55.69Zm24.72,53c6.85,0,12.34-3,15.27-8.18,4.68-8.33,3.48-10.82-5.85-10.11a44,44,0,0,0-15.92,4.16c-2.24,1.1-3.91,5.75-3.75,8.67.21,3.76,4,5.22,7.77,5.46C640.4,108.71,641.23,108.67,642.06,108.66Z"/><path class="cls-5" d="M414.91,61.44c-7.33-2.37-13.56.43-19.71,4a38.42,38.42,0,0,1-5.76,2.24l-9.92-14.34C383,51,386.12,48,389.88,46.28c12.64-5.67,26-8.23,39.68-5.15,10.78,2.42,17.52,7.12,19.18,20.42,1.79,14.29-2.32,27.82-4.49,41.62-.92,5.85-1.65,11.74-2.84,17.54-.34,1.64-2,3-3.09,4.51L418,123.76c-.24-2.39-.47-4.69-.72-7.26l-4.29,4-10.18,5c-5,0-10.09,0-15.14,0-2.32,0-4.65.06-7,.09l-1.89-.26c-2.08-1.5-4.27-2.86-6.19-4.53-6.33-5.47-7.57-12.71-6.92-20.55,2.73-13.43,12.54-19.7,24.58-22.77,8.28-2.11,17-2.64,25.48-3.82,2-.28,4-.35,5.94-.51,3.37.91,3.53-1.41,3.45-3.61C424.92,64,421.21,61.16,414.91,61.44Zm1.88,39c6-1.77,4.34-7.06,6.08-11.57-8.74-.43-16.51-.56-24,2.65l-4.34,3.65c-5.12,4.24-4.39,9.62,1.67,12.3C402.9,110.42,412.52,107.13,416.79,100.44Z"/><path class="cls-1" d="M1111.1,128.31c-11.93-.21-21.84-2.37-30.65-8.51-3.27-2.29-4.33-4.15-.47-7.09,4.32-3.31,8.14-7.25,12.3-10.78,2.34-2,4.49-2.59,7.16.26,4.26,4.57,9.94,6.36,16.18,6,3.9-.23,7.28-1.63,8-6,.64-4.12-2.22-6-5.57-7.06-3.61-1.2-7.25-2.4-11-3.24-22.94-5.22-21-24.56-11.32-36.32,11-13.36,26-16.3,42.26-14.49,7.48.83,14.47,3.18,20.46,8.11,2.38,2,2.39,2.93,0,4.85-4.23,3.44-8.16,7.23-12.21,10.87-2.62,2.35-5.14,2.43-8,.12-4.9-4-10.57-6-16.68-3.63a9.66,9.66,0,0,0-4.94,5.8c-.3,1.13,2.58,3.84,4.53,4.7,3.61,1.59,7.67,2.13,11.38,3.52,4.14,1.55,8.56,2.95,12.06,5.5,9.18,6.67,10,20.11,2.22,30.91C1137.74,124.5,1124.26,127.64,1111.1,128.31Z"/><path class="cls-3" d="M852.48.83c-1.78,10.6-3.36,20.5-5.11,30.38-3.62,20.45-7.33,40.89-11,61.34-1.72,9.58-3.31,19.19-5.16,28.74-.25,1.34-1.62,3.49-2.53,3.52-8.89.26-17.79.16-27,.16,2.78-15.65,5.52-30.92,8.22-46.19,4.23-23.94,8.5-47.87,12.61-71.84.75-4.36,2.8-6.28,7.29-6.16C837.21,1,844.64.83,852.48.83Z"/><path class="cls-6" d="M478.57,2.08c1-.61,2-1.73,3-1.77C488,.07,494.5,0,501,0c3.88,0,5.63,1.52,4.73,5.93-2.07,10.14-3.63,20.39-5.43,30.59Q496.65,57.13,493,77.73c-2.51,14-5,28-7.71,41.91-.41,2-2.3,3.82-3.51,5.72-1.06-.49-2.12-1.4-3.19-1.4-5.22,0-10.45.44-15.65.18-1.72-.09-3.36-1.85-5-2.84.22-1.42.42-2.83.66-4.24q2.15-12.65,4.32-25.29c1.61-7.94,3.33-15.86,4.8-23.83q3.36-18.25,6.42-36.56C475.7,21.63,477.08,11.85,478.57,2.08Z"/><path class="cls-1" d="M782.07,43c-.39,3.22-.68,5.54-.85,6.92,7-3,13.86-6.23,20.93-8.85,2.3-.85,5.18-.13,8.7-.13-1.72,7.89-3,15.16-5.12,22.17-.36,1.2-4.33,1.79-6.65,1.83-11.77.23-20.54,6.23-22.62,16.16-1.59,7.61-2.82,15.3-4.16,23-1,5.87-1.78,11.79-3.13,17.58-.34,1.43-2.5,3.4-3.89,3.45-8.1.33-16.23.16-25.16.16.9-5.62,1.65-10.78,2.55-15.9,3.6-20.25,7.12-40.52,11-60.71.42-2.13,3.23-5.23,5.14-5.39C766.41,42.67,774.06,43,782.07,43Z"/><path class="cls-7" d="M170.91,44.42c1.65-.51,3.29-1.4,5-1.47,5-.19,10,.15,14.95-.12,4.67-.26,7.29.83,6.14,7.13,1.63-.94,3.5-1.62,4.83-2.87,5.59-5.3,12.74-6.09,19.81-6.86,2.76-.29,4.15,1.67,3.53,4.6-1.2,5.63-2.05,11.38-3.79,16.85-.5,1.55-3.59,3.21-5.49,3.22-7.72,0-15.42,1.44-19.72,7.73-3.52,5.17-4.9,12-6.29,18.35-2.16,9.81-3.34,19.83-5.38,29.67-.37,1.8-2.81,3.17-4.3,4.74-2.05-.36-4.09-.87-6.15-1-5.57-.5-11.15-.86-16.72-1.28.22-1.86.43-3.72.65-5.58.12-.64.25-1.29.37-1.93l.53-3.18.13-2a1,1,0,0,0,0-.74l1.5-6.22.36-2c.15-.67.31-1.33.46-2,.51-3,1-6,1.52-9l.58-3,.45-3,.61-3,.35-2,.66-4c.22-2.13.45-4.26.67-6.4.34-1.21.67-2.42,1-3.63l.69-3.9c.12-.67.23-1.34.34-2,.31-2.14.61-4.29.92-6.43l.89-3.51.45-2.87C170.6,46,170.75,45.21,170.91,44.42Z"/><path class="cls-1" d="M695.49,125.26c1.9-10.82,3.74-21.19,5.55-31.55,2.57-14.65,5.2-29.29,7.65-44,.73-4.4,2.64-6.84,7.45-6.72,7.27.16,14.54,0,22.43,0-.93,5.64-1.71,10.63-2.6,15.6-3.69,20.64-7.48,41.26-11.07,61.91-.45,2.64-1.17,4.61-4,4.65C712.61,125.33,704.35,125.26,695.49,125.26Z"/><path class="cls-1" d="M846.81,125.26c2.74-15.65,5.33-30.58,8-45.51,1.82-10.26,3.82-20.49,5.5-30.77.6-3.66,2.22-5.81,6-5.84,7.61,0,15.21,0,23.51,0-.94,5.74-1.74,11-2.67,16.31-3.65,20.46-7.41,40.89-10.91,61.38-.48,2.81-1.48,4.38-4.23,4.41C863.89,125.31,855.79,125.26,846.81,125.26Z"/><path class="cls-2" d="M334.78,52.56c.14-2.54.28-5.09.47-8.49,2.65-.37,5.5-1,8.38-1.12,4.48-.19,9,0,13.47-.06,6.74-.08,7.28.55,6.17,7-2,11.54-3.87,23.1-5.9,34.64-2.2,12.48-4.43,25-6.92,37.38-.27,1.32-2.34,2.29-3.57,3.43a26.22,26.22,0,0,0-4.71-1c-6.15-.12-12.31,0-18.46-.06l3.51-25.19Z"/><path class="cls-8" d="M607.61,26l1-.2,3.91-1.93c13.38-6.92,27-5.49,40.58-1.54l.2,1.41c-1.78.33-3.57,1-5.33.95-19.86-.52-34.6,9.38-46.18,24C588.33,65.59,576.4,83.73,563,100.71c-6.3,8-14.46,14.49-21.87,21.57-.77.73-2.13.84-3.22,1.24l-3.32,1.81h0l-6.19,0,4.14-6.09,0,0q4.51-5,9-10l0,0,11-14.39,4.13-7.24c1.81-1.77,3.94-3.32,5.38-5.35,7.63-10.73,15.12-21.57,22.59-32.42,2.08-3,3.93-6.22,5.88-9.33l0,0,1.29-1,8.58-8.17h0l8.24-4.05Z"/><path class="cls-9" d="M635,182.3c1.86-9.05,3.47-17.81,5.53-26.46,1.1-4.59,5.62-6,11-4,1,.38,2.54.77,3.35.32,5.55-3.1,10.46-2.64,14.76,2.29a25.09,25.09,0,0,1,3.78-2.57c3.73-1.61,7.54-2.7,11.35-.13s3,6.31,2.45,9.87c-.67,4.4-1.43,8.8-2.47,13.12-2,8.36-3.37,9.15-13.17,7.74.84-4.44,1.7-8.86,2.5-13.3a25.23,25.23,0,0,0,.72-5.88c-.08-1.39-1.07-2.72-1.65-4.08-1.32,1-3.2,1.72-3.81,3-1,2.19-1.28,4.74-1.79,7.15-.34,1.62-.5,3.28-.87,4.89-2,8.79-3,9.42-13.1,8.3,1.22-7.64,2.44-15.28,3.64-22.86-5.17-1.47-6,1.53-6.64,4.21-.89,3.5-1.38,7.1-2.15,10.63C646.56,182.89,644.59,184.1,635,182.3Z"/><path class="cls-10" d="M935.55,150.3c1.66-3.73,3-8.55,5.82-12.25,1.19-1.55,5.5-.75,9.21-1.09-1.39,7.08-2.57,13.32-3.83,19.54-1.44,7.11-3.32,14.16-4.31,21.33-.51,3.7-2.39,4.83-5.41,5.09-5.07.43-10.15.68-15.23.91-4.42.19-7.13-2.1-8.42-6.18-2.89-9.09,2.55-22.3,11.33-26C928,150.29,931.94,150.7,935.55,150.3Zm-11.27,19.24a31.1,31.1,0,0,0,2.75,5.54c.3.39,3.21-.22,3.38-.81a97.58,97.58,0,0,0,2.75-12.67c.1-.7-1.61-2.26-2.61-2.38a3.84,3.84,0,0,0-3.09,1.78A87.17,87.17,0,0,0,924.28,169.54Z"/><path class="cls-11" d="M537.59,165c2.27-5.24,4.58-10.45,6.79-15.71,4-9.56,5.18-10.23,16.46-8.7-3.66,7.67-7.2,15.19-10.83,22.67-2.23,4.59-5,9-6.79,13.72s-4.87,6.24-9.5,6c-2.65-.12-5.31,0-8.45,0-.48-4.59-1-9-1.38-13.38-.64-7.75-1.1-15.51-1.82-23.25-.39-4.2,1.19-6.31,5.49-6.27,8.81.08,7.91-.65,7.87,7.11,0,5.87,0,11.75,0,17.62Z"/><path class="cls-9" d="M1136.42,183.06c1.11-5.8,2.06-10.77,3-15.75.13-.64.63-1.34.48-1.89-.55-2.13-1.29-4.21-2-6.3-1.44,1.73-3.57,3.26-4.19,5.25-1.46,4.71-2.12,9.66-3.28,14.48-.86,3.52-8.45,6.1-11.12,3.74-.64-.56-.78-2.11-.6-3.1,1.46-7.8,3-15.59,4.64-23.34,1-4.53,5.65-6.15,11.33-4.44,1.31.39,2.85-.05,4.29-.06,3.66,0,7.86-1.12,10.85.29,3.42,1.63,3.42,5.93,2.45,9.79-1.25,5-2.65,10-3,15-.35,5.24-3.26,6.26-7.49,6.31C1140.38,183.07,1138.91,183.06,1136.42,183.06Z"/><path class="cls-9" d="M812.24,182.46c1.18-6.12,2.5-11.91,3.31-17.76.24-1.76-.93-3.71-1.46-5.57-1.49,1.45-3.76,2.65-4.31,4.4a66,66,0,0,0-2.67,13.08c-.55,5-3.47,6.52-8,6.4-1.45,0-2.91,0-5.08,0,.71-4,1.28-7.56,1.94-11.06.89-4.7,1.79-9.4,2.8-14.08,1.32-6.12,5.75-8.82,11.37-6.1,2.32,1.13,3.28.09,5-.18,3.4-.52,7.8-1.18,10.22.48,2.06,1.42,2.65,6,2.56,9.2-.12,4.23-1.57,8.41-2.38,12.63C823.89,182.91,822.45,183.91,812.24,182.46Z"/><path class="cls-12" d="M862.56,21.3c.84-12.49,16.35-22.79,27.21-18.09a11.82,11.82,0,0,1,7.16,11.88c-.83,7.17-5,12.19-11.43,15.07-5.58,2.49-11.67,3.79-16.91-.45C866,27.62,864.54,24.15,862.56,21.3Z"/><path class="cls-4" d="M712.46,20C712.6,8.15,728.26-1.54,739,3.55c7.28,3.46,9,13.05,3.21,20.31-4.93,6.14-11.54,9.26-19.69,8C715.92,30.83,712.38,26.58,712.46,20Z"/><path class="cls-10" d="M689.7,171.68c.21-12.54,9.43-21.94,21-21.39,5.31.25,9.29,3.14,10.87,7.85,4.33,13-8.46,27.89-22,25.61C692.93,182.62,689.59,178.54,689.7,171.68Zm21.35-6.82a50.61,50.61,0,0,0-3.4-5.67c-.21-.28-2.71.39-2.87,1a113.31,113.31,0,0,0-2.66,12.6c-.1.71,1.47,2.27,2.37,2.35a3.85,3.85,0,0,0,3.1-1.68C708.92,170.86,709.8,168.05,711.05,164.86Z"/><path class="cls-9" d="M1097.75,183.83c-8.34,0-12.84-4.79-12.42-13.11.63-12.17,10-21,21.58-20.37,5.4.31,9.56,3.49,10.42,8.79C1119.26,171.12,1112.15,183.84,1097.75,183.83Zm9-19.58-3.87-5.22c-1.5,1.51-3.65,2.78-4.34,4.6a22.5,22.5,0,0,0-1,8.24c0,1.12,1.39,3.12,2.18,3.14a5,5,0,0,0,3.92-2C1104.94,170.63,1105.55,167.84,1106.78,164.25Z"/><path class="cls-10" d="M585.85,163.22c-.5,14.2-11.78,23.32-24.44,20-4.27-1.13-6.48-4-7.49-7.79-3.08-11.71,7.31-25.08,19.37-25.13C581.6,150.24,586.14,154.92,585.85,163.22ZM575,165a41,41,0,0,0-3.28-5.69c-.24-.31-3,.43-3.21,1.11a76.56,76.56,0,0,0-2.73,11.76c-.13.92,1.47,2.81,2.5,3a4.31,4.31,0,0,0,3.44-2A69.25,69.25,0,0,0,575,165Z"/><path class="cls-9" d="M790.79,176.22c-4.39,5.3-9.5,7.76-15.87,7.65q-12.18-.19-12.21-12.31c0-12.12,10.12-22.23,21.34-21.26,7.89.68,13,10.25,8.78,16.82-.8,1.24-3.07,1.94-4.75,2.13-3,.33-6-.07-9,.12a9.75,9.75,0,0,0-4.41,1.4c-.32.21.21,3,.95,3.34,1.46.69,3.93,1.29,4.93.54C784.53,171.67,787.29,174,790.79,176.22Zm-14.91-15.17,1.11,2.6,5.63-2.06a21.61,21.61,0,0,0-1.67-3A41.74,41.74,0,0,0,775.88,161.05Z"/><path class="cls-9" d="M622.77,160.63c-1.61-.68-3.18-1.73-4.84-1.93-1.37-.16-2.9,1.09-4.29,1s-3-.92-3.53-1.93.23-2.89,1.08-3.72c3.66-3.61,14.28-5.37,18.28-2.41,2.15,1.59,4.17,5.13,4,7.67a106.42,106.42,0,0,1-3.37,20.9c-.38,1.46-4.55,2.29-7.1,2.75-3,.53-6.08.16-9.1.49-3.6.39-7.1.52-9.21-3s-1.93-7.66.91-10.12c3.47-3,8-4.83,12.16-6.94,1.23-.62,2.86-.47,4.3-.67Zm-4.42,7.58c-1.78,2.33-3.16,3.66-3.8,5.27-.19.49,1.67,1.78,2.59,2.71a26.5,26.5,0,0,0,3.43-4.28C620.83,171.42,619.55,170.12,618.35,168.21Z"/><path class="cls-7" d="M345.65,6.64c3.77-4,8.42-5.21,13.85-4.8,5,.38,8.73,2.72,10.51,7,2,4.88,1.84,10.31-1.81,14.41-2.45,2.75-6.13,4.42-9.26,6.57l-14.35-2,.05,0-2-2.07h0l-1.2-1.9V24l-1.55-3.23c0-1.65,0-3.3,0-5Q342.78,11.25,345.65,6.64Z"/><path class="cls-8" d="M871.14,152.84l10-2.52c-1.4,9.13-2.6,17-3.89,25.4,6.78-.66,7.7-4.48,8.15-8.67q1.82-7.19,3.64-14.38l10.62-2.29c-1.2,6.27-2.11,11.15-3.07,16-.73,3.72-1.62,7.41-2.23,11.15-.74,4.6-3.93,7.29-8,5.28s-7.5-.88-11.28-.12c-3.48.7-6.91.84-8.8-3.12Z"/><path class="cls-11" d="M992.27,159c3.34-5.79,8.55-8.56,15.07-8.68,8.17-.15,11.33,3.54,11.66,13l-.81,4.24-4,1.35c-4.75-.7-9.57-2.51-14,.89l-.15.17-.52,2.15c1.28,2.88,3.79,4.39,6.31,2.63,3.68-2.58,6.41-1.29,9.37.8-2.28,6.4-10.64,9.72-18.9,7.45l-4-2,0,0-2-2-1.86-5c0-1.3,0-2.59,0-3.88q1.19-4.5,2.39-9Zm8.65,2.39,1.16,2.34,5.78-2-2.06-3.48Z"/><path class="cls-13" d="M514,33.19c7.29-5.85,14.67-11.58,21.84-17.57,17-14.19,35.5-15.41,55.28-7,3.47,1.48,6.81,3.25,10.2,4.88-.11.57-.22,1.13-.34,1.69-5.65-.61-11.32-1-16.94-1.86-16.33-2.39-31.69-.19-45.88,8.67-5.87,3.67-11.92,7.08-18,10.38-1.79,1-4,1.17-6,1.73Z"/><path class="cls-14" d="M750.42,153.3c-2.68,4.37-5.91,6.46-10.9,4.75-.78-.26-2,.73-3,1.14a12.05,12.05,0,0,0,1.54,3.23,9.38,9.38,0,0,0,3,1.72c3.41,1.62,6.29,3.59,6.35,7.93.07,4.52-2.2,7.61-6,9.51-6.83,3.4-13.64,3.18-20.37-.54,2.45-5.55,4.84-6.58,10.24-5.3,1.29.3,2.87-.63,4.32-1-.62-1.24-1-2.75-1.94-3.67s-2.6-1.41-3.92-2.13c-5.76-3.13-6.55-9.14-1.82-13.78C733.8,149.38,743,148.54,750.42,153.3Z"/><path class="cls-9" d="M607.49,137.85c-3,14.14-5.81,28-8.93,41.77-.28,1.24-2.2,2.67-3.6,3-2.5.57-5.17.36-8.51.5,1.32-6.9,2.48-13.15,3.72-19.38,1.16-5.82,2.44-11.61,3.61-17.43C595.6,137.2,597.15,136.15,607.49,137.85Z"/><path class="cls-10" d="M1021.21,163.56c5.79-11.81,14.81-15.95,25.43-11.37-1.35,3.91-3.31,6.5-8,7.19-2.22.33-5.22,2.64-5.87,4.68-.94,3-.28,6.55.2,9.8.09.62,2.6,1.44,3.82,1.23,3.33-.56,4.44,1.61,4.38,3.85,0,1.37-1.78,3.41-3.21,3.94-11.44,4.21-17.64-.88-18.47-14.9Z"/><path class="cls-9" d="M1066.38,180.85c-3.93,1-7.83,2.65-11.81,2.87-6,.34-9.86-2.93-10.73-8.82a21.09,21.09,0,0,1,7.86-20.34c5.68-4.63,12.08-6,19-2.42-1.16,3.59-2.87,6.9-7.18,6.88-3.78,0-6,1.69-7,4.95-1.21,3.93-2.54,8.06,1.71,11.26l.92,1.47,1.09-1.29C1065.45,173.62,1064.54,178.78,1066.38,180.85Z"/><path class="cls-15" d="M845.85,158.07c-2.57-2.51-2.13-4.65.79-6.52,1.2-.77,3.18-1.46,3.38-2.47,1.4-7.15,6.47-6.12,11.08-5.66,3,2.16-1.82,7.82,4.29,8.08-.09,1.73-.18,3.47-.26,5.05-6.63,1.63-7.83,3.37-7.69,10.6-.24,3.54-1.12,7.06,3.54,9,2,.84.3,6-2.55,6.52-3.33.66-7,1.79-10.06-1.2-2.76-6.67.3-13,1.31-19.41C850.28,158.32,849.5,157.17,845.85,158.07Z"/><path class="cls-9" d="M992.27,159l-1.47,2.16c-.69-.73-1.82-2.18-2-2.07-2.54,1.54-5.93,2.77-7.18,5.11a28.12,28.12,0,0,0-3.1,11.85c-.22,6.06-3.6,7.13-8.47,7-1.3-.05-2.6-.14-4.62-.25,1.55-7.87,3-15.4,4.51-22.93,1.73-8.58,4-9.89,12.61-7.64,1.07.28,2.42-.29,3.61-.6,1.7-.46,3.37-1,5-1.56C991.55,153.34,991.91,156.18,992.27,159Z"/><path class="cls-14" d="M947.56,182.91c1.11-6,2.1-11.42,3.13-16.85.34-1.79.87-3.55,1.12-5.35,1.53-11,5.14-9.89,13.42-8.87-1.75,9.36-3.35,18.73-5.44,28-.29,1.31-2.88,2.52-4.62,3C953.15,183.3,950.89,182.91,947.56,182.91Z"/><path class="cls-14" d="M1074.4,152.31l10.49-1.47c-1.85,9.33-3.47,17.66-5.16,26-1.32,6.54-8.36,8.61-13.66,4.06,1.41-5.19,2.76-10.39,4.25-15.55C1071.59,161,1073,156.65,1074.4,152.31Z"/><path class="cls-16" d="M478.57,2.08c-1.49,9.77-2.87,19.55-4.49,29.3q-3,18.3-6.42,36.56c-1.47,8-3.19,15.89-4.8,23.83l-1.17-4.27q4.05-23.85,8.11-47.7c1.91-11.07,3.79-22.14,5.91-33.17C476,5,477.58,3.6,478.57,2.08Z"/><path class="cls-17" d="M573.26,34.56c-4.1,0-7-2.44-7.1-6-.09-3.73,3.87-6.87,8.62-6.83,5.15,0,7.66,1.86,7.55,5.49C582.21,31.18,578,34.55,573.26,34.56Z"/><path class="cls-18" d="M170.44,46.79,170,49.66c-.3,1.17-.59,2.34-.89,3.51-.31,2.14-.61,4.29-.91,6.43-.12.67-.23,1.34-.35,2l-.69,3.9c-.34,1.21-.67,2.42-1,3.63-.22,2.14-.45,4.27-.67,6.4l-.66,4c-.11.67-.23,1.33-.35,2-.2,1-.4,2-.61,3l-.45,3c-.19,1-.39,2-.58,3-.51,3-1,6-1.52,9-.15.66-.3,1.33-.46,2l-.36,2-1.5,6.22a1,1,0,0,1,0,.74c0,.67-.09,1.33-.13,2-.18,1.06-.35,2.12-.53,3.18-.12.64-.24,1.28-.37,1.93-.22,1.86-.43,3.72-.65,5.58L156,125.3c-.36-1.84-1.29-3.77-1-5.48,3.83-21.91,7.83-43.78,11.83-65.65.52-2.85,1.32-5.65,2-8.48Z"/><path class="cls-18" d="M231,45c-.09,3.34.22,6.75-.32,10-2.14,12.79-4.49,25.54-7,38.27-.35,1.83-1.73,3.47-2.63,5.19.71-5.61,1.28-11.25,2.17-16.84q2.58-16,5.52-32C229.12,48,230.27,46.55,231,45Z"/><path class="cls-19" d="M590.49,40.65c-2,3.11-3.8,6.3-5.88,9.33-7.47,10.85-15,21.69-22.59,32.42-1.44,2-3.57,3.58-5.38,5.35,5.07-8.3,9.9-16.77,15.29-24.85,4.2-6.3,9-12.18,13.75-18.11C587,43.16,588.87,42,590.49,40.65Z"/><path class="cls-16" d="M334.78,52.56Q331,75.82,327.21,99.09c-.42-1.2-.85-2.39-1.28-3.59,2.3-13.22,4.56-26.45,6.94-39.65C333.09,54.68,334.12,53.65,334.78,52.56Z"/><path class="cls-13" d="M958.34,148.05c-.73-.75-3-2-3.42-3.75-.78-3,3.87-7.1,7.72-6.58,1.93.25,4.54,2.13,5.15,3.87C968.75,144.28,963.77,148,958.34,148.05Z"/><path class="cls-13" d="M1077.44,148c-.67-.82-2.72-2.25-3.08-4-.64-3.11,4-6.61,8-6.47,2.73.1,5,.92,4.93,4.26C1087.21,144.94,1082.88,148.21,1077.44,148Z"/><path class="cls-18" d="M220.91,103.11c-1.54,11.15-3,22.32-4.65,33.47-.32,2.24-.95,4.44-1.44,6.66h-2.09c1.85-10.88,3.49-21.8,5.71-32.59C219,108.17,216.61,104.42,220.91,103.11Z"/><path class="cls-18" d="M461.69,87.5l1.17,4.27q-2.16,12.65-4.32,25.29c-.24,1.41-.44,2.82-.66,4.24-.38,1.44-.75,2.89-1.12,4.33-.68-1-2.07-2.08-1.92-2.91C457,111,459.37,99.23,461.69,87.5Z"/><path class="cls-17" d="M1101.52,147.4c3-7.12,7.77-9.81,15.6-8.5C1112.64,143.36,1109.15,148.42,1101.52,147.4Z"/><path class="cls-19" d="M413,120.46l4.29-4c.25,2.57.48,4.87.72,7.26l20.36,1.46c-7.46.27-14.91.77-22.35.57C414.91,125.76,414,122.32,413,120.46Z"/><path class="cls-18" d="M325.93,95.5c.43,1.2.86,2.39,1.28,3.59q-1.74,12.61-3.5,25.2l-1.93,1.21c-.34-.84-1.07-1.75-.94-2.51C322.46,113.81,324.21,104.66,325.93,95.5Z"/><path class="cls-20" d="M365.65,100.18c-.65,7.84.59,15.08,6.92,20.55,1.92,1.67,4.11,3,6.19,4.53-6.53.26-13.53-5.66-14.81-13.08-.58-3.36-.25-6.9-.11-10.35C363.86,101.26,365,100.73,365.65,100.18Z"/><path class="cls-16" d="M845.85,158.07c3.65-.9,4.43.25,3.83,4-1,6.39-4.07,12.74-1.31,19.41-5.6-1.4-2.79-6-3.17-9.1-.31-2.65,1-5.46,1.19-8.22A37.26,37.26,0,0,0,845.85,158.07Z"/><path class="cls-16" d="M871.14,152.84l-4.8,26.76c0-5.3,0-10.6.16-15.9a46.93,46.93,0,0,1,.82-5.74l1.2-4.31Z"/><path class="cls-16" d="M212.73,143.23h2.09l-3,19.86c0,.64,0,1.28,0,1.92-1-.86-2.9-1.86-2.79-2.54C210.05,156,211.44,149.63,212.73,143.23Z"/><path class="cls-18" d="M379.52,53.35l9.92,14.34c-1.35,0-3.35.52-3.94-.15-2.7-3.1-5-6.53-7.46-9.87C376.52,55.58,376.7,54,379.52,53.35Z"/><path class="cls-19" d="M456.76,125.63c.37-1.44.74-2.89,1.12-4.33,1.67,1,3.31,2.75,5,2.84,5.2.26,10.43-.21,15.65-.18,1.07,0,2.13.91,3.19,1.4Z"/><path class="cls-18" d="M414.91,61.44c6.3-.28,10,2.58,10.19,8,.08,2.2-.08,4.52-3.45,3.61C423.43,66.88,418.51,64.54,414.91,61.44Z"/><path class="cls-19" d="M380.65,125.52c2.33,0,4.66-.08,7-.09,5.05,0,10.1,0,15.14,0C395.41,127.89,388.05,131,380.65,125.52Z"/><path class="cls-19" d="M211.8,165c0-.64,0-1.28,0-1.92l24.37.46c-.43.48-.86,1.36-1.3,1.36C227.2,165,219.5,165,211.8,165Z"/><path class="cls-19" d="M156,125.3l1.24-2.24c5.57.42,11.15.78,16.72,1.28,2.06.18,4.1.69,6.15,1Z"/><path class="cls-19" d="M260.53,126.32l22.47-.9c-6.29,1-12.57,2.08-18.89,2.83C263,128.38,261.73,127,260.53,126.32Z"/><path class="cls-19" d="M321.78,125.5l1.93-1.21c6.15,0,12.31-.06,18.46.06a26.22,26.22,0,0,1,4.71,1,79.37,79.37,0,0,1-9,.93C332.48,126.19,327.13,125.77,321.78,125.5Z"/><path class="cls-20" d="M339.91,15.85c0,1.65,0,3.3,0,5L341.47,24V24l1.2,1.9h0l2,2.07,0,0c0,1,.09,1.94.14,2.92-7.08-2.28-10-11.72-5.06-16.22C339.76,15,339.83,15.42,339.91,15.85Z"/><path class="cls-18" d="M246.15,120.31c.06-1.1.12-2.19.23-4.32,4,3.51,7.37,6.45,10.74,9.38-1.37-.1-3,.21-4.07-.39A76.66,76.66,0,0,1,246.15,120.31Z"/><path class="cls-21" d="M868.52,153.65l-1.2,4.31c-4.26.79-8.5,1.54-8.5,7.32,0,.62-.9,1.24-1.39,1.87-.13-7.23,1.07-9,7.7-10.6.08-1.58.17-3.32.26-5.05Z"/><path class="cls-19" d="M552.51,95l-11,14.39Z"/><path class="cls-16" d="M889.06,152.67q-1.83,7.2-3.64,14.38c.36-4.14.6-8.29,1.18-12.39C886.71,153.89,888.2,153.33,889.06,152.67Z"/><path class="cls-15" d="M344.74,30.8c-.05-1-.1-1.95-.14-2.92l14.34,2c-4.18,4.89-8.89,2.39-13.52,1L345,31l-.34-.29Z"/><path class="cls-19" d="M541.55,109.34q-4.51,5-9,10Q537,114.33,541.55,109.34Z"/><path class="cls-21" d="M600.33,31.55l-8.58,8.17h-1.14Z"/><path class="cls-17" d="M1000.13,169.85c4.48-3.4,9.3-1.59,14-.89Z"/><path class="cls-19" d="M532.55,119.26l-4.14,6.09,2,1.79-3.77.68c-.12-.93-.23-1.87-.35-2.8Z"/><path class="cls-15" d="M339.91,15.85c-.08-.43-.15-.85-.23-1.27l6-7.94Q342.77,11.25,339.91,15.85Z"/><path class="cls-21" d="M607.61,26l1,1.48-8.24,4.05Z"/><path class="cls-21" d="M530.43,127.14l-2-1.79,6.19,0Z"/><path class="cls-21" d="M526.31,125c.12.93.23,1.87.35,2.8l-4.19.4Z"/><path class="cls-9" d="M988.41,170.18c0,1.29,0,2.58,0,3.88C988.38,172.76,988.39,171.47,988.41,170.18Z"/><path class="cls-21" d="M612.52,23.88l-3.91,1.93Z"/><path class="cls-9" d="M992.19,181.1l4,2Z"/><path class="cls-21" d="M534.58,125.33l3.32-1.81Z"/><path class="cls-16" d="M170.44,46.79l-1.57-1.1,2-1.27C170.75,45.21,170.6,46,170.44,46.79Z"/><path class="cls-17" d="M999.46,172.17,1000,170C999.81,170.74,999.63,171.45,999.46,172.17Z"/><path class="cls-9" d="M990.22,179.09l2,2Z"/><path class="cls-19" d="M590.61,39.72h1.14l-1.29,1Z"/><polygon class="cls-20" points="344.68 30.72 345.02 31.01 345.42 30.82 344.98 31.02 344.68 30.72"/><path class="cls-18" d="M220.78,98.72l-.06.1Z"/><path class="cls-20" d="M287.9,89.65c.21-3.89.76-7.81.54-11.68-.29-5.19-3.09-9.2-7.28-12.25l2.76-.31c5.34,2.46,9,10.39,7.19,16.14C290.26,84.32,289,87,287.9,89.65Z"/><path class="cls-19" d="M283.92,65.41l-2.76.31-14.46-.79-.85-.51C270.53,60.31,278.86,60.76,283.92,65.41Z"/><path class="cls-16" d="M416.79,100.44a2.91,2.91,0,0,1,0-1c3.07-9.79,3.07-9.8-7.57-8.92-3.43.29-6.85.65-10.27,1,7.45-3.21,15.22-3.08,24-2.65C421.13,93.38,422.78,98.67,416.79,100.44Z"/><path class="cls-16" d="M159,109.64l1.5-6.22Z"/><path class="cls-16" d="M164.81,79.51l.66-4Z"/><path class="cls-16" d="M163.85,84.51c.21-1,.41-2,.61-3C164.26,82.51,164.06,83.51,163.85,84.51Z"/><path class="cls-16" d="M162.82,90.46c.19-1,.39-2,.58-3C163.21,88.47,163,89.46,162.82,90.46Z"/><path class="cls-16" d="M166.14,69.14c.34-1.21.67-2.42,1-3.63C166.81,66.72,166.48,67.93,166.14,69.14Z"/><path class="cls-16" d="M167.84,61.61c.12-.67.23-1.34.35-2C168.07,60.27,168,60.94,167.84,61.61Z"/><path class="cls-16" d="M160.84,101.42c.16-.67.31-1.34.46-2C161.15,100.09,161,100.75,160.84,101.42Z"/><path class="cls-16" d="M169.1,53.17c.3-1.17.59-2.34.89-3.51C169.7,50.83,169.4,52,169.1,53.17Z"/><path class="cls-16" d="M157.93,117.48c.13-.65.25-1.29.37-1.93C158.18,116.19,158.05,116.84,157.93,117.48Z"/><path class="cls-16" d="M158.83,112.37c0-.66.09-1.32.13-2C158.92,111.05,158.87,111.71,158.83,112.37Z"/><path class="cls-15" d="M341.47,24l-1.55-3.23Z"/><path class="cls-15" d="M344.64,27.92l-2-2.07Z"/><path class="cls-15" d="M342.67,25.86l-1.2-1.9Z"/></g></g></g></svg>