<svg xmlns="http://www.w3.org/2000/svg" viewBox="0 0 1056.31 307.43"><defs><style>.cls-1{fill:#5f954d;}.cls-2{fill:#8ea4cd;}.cls-3{fill:#1d2e6e;}.cls-4{fill:#1c2d6e;}.cls-5{fill:#61954f;}.cls-6{fill:#639553;}.cls-7{fill:#293766;}.cls-8{fill:#ebebeb;}.cls-9{fill:#efefef;}.cls-10{fill:#e4e4e4;}.cls-11{fill:#fdfefe;}</style></defs><g id="Capa_2" data-name="Capa 2"><g id="Capa_1-2" data-name="Capa 1"><g id="iqvYin"><path class="cls-1" d="M0,306.41c.58-3,.66-6.17,1.8-8.92,18.61-44.93,42.68-86.29,79.9-118.61,22-19.12,47.14-31.28,77.12-30.41,21.54.62,40.92,8.15,59,19.47,22.27,13.95,40.62,32.23,57.68,51.95,1,1.1,2,2.16,4.06,4.44-.95-8.88-1.91-16.31-2.51-23.77-1-12.61-2-25.23-2.61-37.86-.88-18.53,8-31.36,24-39.82,15.87-8.37,33.09-12,50.6-14.46,44.17-6.12,85-20.34,120.06-48.82,2.83-2.3,6.22-3.93,9.35-5.87L479.89,55c-1.33,2.32-2.49,4.74-4,6.93-16.36,23.78-38.08,41.69-62.48,56.57-30.15,18.39-62.55,31.78-96,42.71-4.49,1.47-6.4,3.57-6.82,8.13-3,32.65-6.13,65.3-9.24,97.94-.24,2.48-.67,4.94-1,7.4l-1.79,1.67c-.56-1.37-.78-3-1.71-4.05-25.08-26.93-53.17-49.91-87-65.18-29.52-13.35-60-18.54-91.88-9.65-25.76,7.18-46.69,22.18-65,41.24-16.24,16.93-29.45,36.07-40.88,56.49a57.32,57.32,0,0,1-5.42,8.37c-1.31,1.61-3.42,2.58-5.17,3.84Z"/><path class="cls-2" d="M1042.71,134.09c-10.39-2-20.72-4.57-31.2-5.9q-31.85-4.06-63.85-7c-20.81-1.9-41.51-.16-62,3.83-22.47,4.37-43,12.69-58.94,30.6-2.4-3.64-4.47-7.17-6.92-10.43-12.26-16.33-29.27-23.51-49.08-24.82-19-1.25-36.75,4.34-54.71,9.43-18.52,5.25-37.29,9.65-56.08,13.87-6.41,1.44-13.19,1.2-19.8,1.73l-.24-1.9c6.72-2.27,13.51-4.35,20.15-6.85q44.57-16.8,89-33.81c27.72-10.65,53.32-6.5,75.51,12.62,7.8,6.72,13.09,6.84,21.65,2.68,18.82-9.14,39.09-13.71,59.9-16,48.57-5.25,93.46,5.94,135.51,30a13.83,13.83,0,0,1,1.43,1.09C1043,133.55,1042.84,133.82,1042.71,134.09Z"/><path class="cls-3" d="M872.31,219.05c5.37-.1,5.15,3.34,5.25,7.36.25,10.56,1.1,21.12,1.56,31.68a4.82,4.82,0,0,1-1.42,3.28,27,27,0,0,1-5.2,3.81c-11.49,6.58-20,2.14-21.23-11-.22-2.26-.37-4.53-.7-8.61-3.28,3.7-5.34,6.8-8.12,9-5.82,4.6-11.5,9.92-18.17,12.79-13.32,5.75-26.91-5.15-25.5-19.54,2.29-23.26,28.44-49.3,51.7-50.61a39.41,39.41,0,0,1,17.27,3.4C875.23,203.82,876,208.91,872.31,219.05Zm-29.86,11.89c1.9-3.39,3.49-5.14,3.88-7.14.86-4.42,1.74-9,1.45-13.45-.22-3.43-3.23-4.58-5.5-1.41-5.1,7.09-10.39,14.18-14.27,21.94-1.76,3.52-.94,8.71-.2,13a4.13,4.13,0,0,0,6.63,2.79c6.69-4.69,13-9.87,19.51-14.84l-.8-1.34Z"/><path class="cls-3" d="M1026.93,247.52c-5.64,5.16-11.07,10.55-17,15.4-4.53,3.73-9.8,6.41-16,6-11.9-.85-19-10-17.64-22.52,2.46-22.53,29.22-48.16,51.81-49.36a37.34,37.34,0,0,1,11.33,1.18c11.59,3.07,14.62,9.47,10,20.86,5,.07,5.3,2.93,5.34,7.18.08,10.58,1,21.14,1.53,31.72,0,1-.28,2.64-.94,3-4.94,2.52-9.81,5.55-15.09,6.89-4.84,1.23-9.1-2.36-10.61-7.78-1-3.63-1.17-7.49-1.72-11.25l.09-1.63ZM1019.77,231c1.77-3.29,3.28-5.06,3.69-7,.92-4.4,2-9,1.67-13.36-.33-4-3.3-4.79-5.71-1.5-5.23,7.16-10.4,14.52-14.33,22.42-1.66,3.34-.65,8.36.19,12.4.29,1.39,4.36,3.51,5.63,2.94,7.88-3.59,13.83-9.71,20.83-16.54Z"/><path class="cls-3" d="M769.67,180.37c-2.09,3.71-4.85,7.21-6.15,11.18-4.44,13.54-8.49,27.22-12.41,40.92-.8,2.8-.65,6-.51,8.93.33,7,3.53,9,9.86,5.79,3.48-1.76,6.44-4.59,9.53-7.08,1.14-.92,1.81-2.42,2.93-3.38,2-1.74,4.24-3.28,6.38-4.91.39,2.78,1.51,5.68,1.05,8.3-3,17-24,30.3-40.69,26.1-10.44-2.62-17.13-12.6-15.77-24.06,2.53-21.29,12.09-39.63,24.83-56.39a80.54,80.54,0,0,1,14.94-15.25c11.19-8.55,23.73-2.86,24.65,11.23,1.37,21-6.93,37.93-23.87,50.45-4,2.93-5.94,3-10.37,1.28,9.64-16.24,15.79-33.61,17.38-52.34Z"/><path class="cls-4" d="M937.43,235.34c-7.6,8.64-14.37,16.31-21.1,24-1.63,1.88-3.15,3.87-4.65,5.86-2.83,3.76-6.64,5.23-11,3.79s-7.62-5-7.21-9.74a147.54,147.54,0,0,1,3.86-25,180.89,180.89,0,0,1,9.37-25.67c2.1-4.8,5.2-9.38,11.16-10.54,5.63-1.1,9.68,1.08,9.87,6.74.2,6.23-1,12.51-1.67,18.77a23.87,23.87,0,0,1-.5,2.67c3.54-3.2,7.34-6.79,11.32-10.17,3.66-3.11,7.17-6.63,11.34-8.83,8.79-4.62,15.64-.42,15.88,9.42a106.47,106.47,0,0,1-.91,13.44c-1,9.5-1.26,18.91,2,28.11,1,2.72,0,4.64-2.5,6.24-11.67,7.33-23.49,1.54-25.18-12.73C936.94,246.85,937.43,241.85,937.43,235.34Z"/><path class="cls-1" d="M479.89,222.37c-.05.65-.11,1.3-.17,1.95,0,.33-.06.66-.1,1-.07,1.34-.15,2.67-.23,4-1.69,9.19-1.78,18.39,1.13,27.32,1.22,3.76.76,6.32-2.46,8.44-15.47,5.3-23.14.46-25-16-.44-3.92-.06-7.93-.06-12.88-4.94,5.32-9.59,10.14-14,15.17-3.84,4.37-7.49,8.91-11.07,13.5-3,3.81-6.72,5.6-11.36,4.14s-7.82-5.3-7.28-10.17c1-9.35,2.21-18.82,4.75-27.84,2.45-8.72,6.57-17,10.2-25.33a14.83,14.83,0,0,1,4.07-4.95c3.21-2.76,6.93-3.85,11.12-2.33s4.39,5.33,4.51,8.64c.15,4.05-.72,8.15-1.15,12.22l-1.53,7.57,1.21.38c1.78-2.09,3.55-4.19,5.33-6.29l.2-.21,13.39-12.38,1.17-.72c.79-.24,1.59-.46,2.37-.72,9.64-3.12,14.37.09,14.79,10.05C479.82,218.74,479.84,220.56,479.89,222.37Z"/><path class="cls-3" d="M696.62,197.49c-1.68.63-3.33,1.72-5,1.84-20.93,1.47-33,25.85-28.75,43.78,1.63,6.82,7.17,10.93,13.3,10.59s12-6.31,13.24-13.72c1.64-9.93-1-18.44-8.94-25-1.13-.93-2.17-2-3.65-3.31,6.6-5.62,13.48-9.78,21.91-7.77,8.05,1.93,11.42,8.68,12.77,16.29,3.63,20.47-9.63,39.17-31.79,45.08A44.32,44.32,0,0,1,649,262.41c-11.48-5.26-16-14.93-13.31-28.05,4.82-24,31.54-43.32,55.67-40.24a34.74,34.74,0,0,1,5,1.41Z"/><path class="cls-5" d="M599.19,213.26c-4.08.8-8.15,1.67-12.24,2.38-4.58.8-9.16,1.85-13.77,2.06s-6.71-2.51-5.53-7.09c1.75-6.75,8.67-14.94,17.5-14.4,10.3.63,20.61.8,30.92,1.24a18.43,18.43,0,0,1,4.39.85c3.94,1.19,5.71,3.69,3.42,7.51q-8.22,13.65-16.83,27.08c-3.19,5-6.66,9.82-10.5,15.44,7.19,1.17,13.19-.27,19.12-2.08,7-2.15,8.39-.95,6.93,6.3a22.71,22.71,0,0,1-22,18.42c-9.33.23-18.72-1.83-28.05-3.1-1.71-.24-3.37-1.4-4.89-2.39-5.36-3.49-6.2-7.11-2.06-12,5.92-7,12.4-13.44,18.47-20.28,5.44-6.13,10.65-12.47,16-18.71Z"/><path class="cls-5" d="M373.33,263.25c-6.78,1-13.65,3.29-20.32,2.82-9.82-.7-16.08-8.65-15.5-18.57,1-17.1,8.76-31,21.78-42l2.25-1.91c1.75-.9,3.52-1.76,5.25-2.69,8.48-4.55,17.16-6.68,26.41-2.3l-.05-.08c.46.51.91,1,1.36,1.55s.94,1,1.4,1.49q1.29,7.89,2.56,15.77c-.14.48-.27,1-.41,1.45l-12,18.44c-6.4,4.88-12.29,10.79-21.72,10.19,2,4,5.17,4.53,8.14,3.13,6.11-2.87,12-6.3,17.93-9.5l6.87,2.85q-1.74,2.76-3.46,5.53c-.17.27-.31.56-.46.85h0Zm-9.27-19.9c9.82-5,18.19-28.15,13.05-36C369.93,211.68,361.92,233.78,364.06,243.35Z"/><path class="cls-5" d="M553.21,206.78l.15,10.52c-6.11,15.86-16.21,27.35-33.94,30.9,2.5,3.32,5.79,3.58,8.9,2.1,5.23-2.48,10-5.91,15.34-8.13,2.16-.9,5.2.32,7.83.58-.49,2-1,4-1.48,6l-.17.17-26.57,16.33-1.81.34-15.88.54v0l-8.17-4.8,0,0c-5.09-6.28-6.09-13.41-4-21,1.48-5.38,3.43-10.63,5.17-15.93l0,0,4.14-6.88h-.05c.33-.38.66-.77,1-1.15.65-.92,1.31-1.84,2-2.75l16-13.19v0c1.67-.65,3.33-1.35,5-1.93,8.2-2.84,16.27-4.21,23.62,2.21l.64.83Zm-34.3,36.62c9.69-5,17.28-25.31,13.74-36C525.7,209.83,517,232.14,518.91,243.4Z"/><path class="cls-6" d="M639,29.77c-3.1,6.92-8.58,11.55-14.92,14.73a288.42,288.42,0,0,1-27.83,12.14c-3.84,1.44-5.11,3.06-5,7,.29,8.45.09,16.93.09,27-2.37-2-3.54-2.92-4.68-3.9-12.83-11.15-27.25-17.23-44.53-13.41-9.51,2.1-17.54,7.22-24.44,13.89-4.58,4.44-8.54,9.52-12.77,14.31l-3.77,4.26-1.48-1c3.3-6.16,6.35-12.47,10-18.43,5.73-9.45,12.5-18.12,22-24.14,13.67-8.68,27-8,39.76,2.07,3.61,2.84,6.95,6,11.37,9.91-.24-4.53-.42-8-.62-11.5-.58-10.11,1.92-13.94,11.77-16.69,5.42-1.51,11.06-2.25,16.59-3.39A73.88,73.88,0,0,0,639,29.77Z"/><path class="cls-4" d="M361.72,52.33c-.05,2.31-.11,4.62-.16,6.93-1.38-.48-2.8-.87-4.14-1.46-3.79-1.68-7.54-3.44-11.31-5.16l.06,0c-4.26-5.41-9.93-7.19-16.58-6.44l-.13,0c-1.92-1-3.87-2.81-5.74-2.73-7.16.3-14.55-.38-21.12,3.71-3.39,2.11-7.15,3.64-10.5,5.81-4.39,2.84-8.61,6-12.71,9.2-.62.5-.17,2.35-.21,3.57l-.36.3c-.2.19-.4.39-.59.59a.54.54,0,0,1-.33.4l-2.67-1.82c1.06-3.27,1.89-5.8,2.72-8.33l.3.23L278,56.9q1.73-2.3,3.44-4.61h0c1.83-1,3.88-1.84,5.44-3.2,4.7-4.08,9-8.6,13.84-12.54,9-7.38,23.5-7.71,33.23-1.38,3.63,2.36,7.67,4.11,11.52,6.13L354.17,49c.21-2.69.33-5.39.63-8.08.67-6.09-4.16-13.66,4.81-17.63,1-.44,1.25-2.55,1.85-3.89l.07,0,33.25-5.77c.18.57.37,1.15.56,1.72-3.88,1.76-7.72,3.6-11.65,5.25-5.34,2.24-10.62,4.74-16.15,6.36s-7,3-7.13,8.84c-.11,3.79-.74,7.57-.64,11.34C359.82,48.86,361,50.59,361.72,52.33Z"/><path class="cls-7" d="M361.72,52.33c-.69-1.74-1.9-3.47-2-5.23-.1-3.77.53-7.55.64-11.34.17-5.83,1.73-7.25,7.13-8.84s10.81-4.12,16.15-6.36c3.93-1.65,7.77-3.49,11.65-5.25-.19-.57-.38-1.15-.56-1.72l-33.25,5.77c6.24-1.5,12.45-3.15,18.73-4.47,11.51-2.43,22.22-6.54,31.42-14.07A8.11,8.11,0,0,1,413.32,0l1,1c-3.3,3.43-6.28,7.27-10,10.21-11.07,8.8-24.12,13.78-37.42,18.07-3.28,1.06-4.78,2.4-4.64,6.14C362.51,41.07,362,46.71,361.72,52.33Z"/><path class="cls-7" d="M345.44,41.3c-3.85-2-7.89-3.77-11.52-6.13-9.73-6.33-24.23-6-33.23,1.38-4.81,3.94-9.14,8.46-13.84,12.54-1.56,1.36-3.61,2.15-5.44,3.2,6.88-9.86,15.21-18.15,26.9-21.86C322.92,25.79,334.94,31.25,345.44,41.3Z"/><path class="cls-7" d="M279.18,65.78c0-1.22-.41-3.07.21-3.57,4.1-3.24,8.32-6.36,12.71-9.2,3.35-2.17,7.11-3.7,10.5-5.81,6.57-4.09,14-3.41,21.12-3.71,1.87-.08,3.82,1.77,5.74,2.73C308.89,43,293.09,52,279.18,65.78Z"/><path class="cls-7" d="M278,56.92c-.83,2.53-1.66,5.06-2.72,8.33l2.67,1.82q-5.85,7.23-11.71,14.45l-1.13-.73A99.7,99.7,0,0,1,278,56.92Z"/><path class="cls-7" d="M361.46,19.38c-.6,1.34-.85,3.45-1.85,3.89-9,4-4.14,11.54-4.81,17.63-.3,2.69-.42,5.39-.63,8.08-.57-5.21-1.23-10.41-1.7-15.63C351.84,26.42,354.79,21.68,361.46,19.38Z"/><path class="cls-7" d="M346.11,52.64c3.77,1.72,7.52,3.48,11.31,5.16,1.34.59,2.76,1,4.14,1.46.07,1.61.14,3.22.24,5.23Z"/><path class="cls-7" d="M329.59,46.25c6.65-.75,12.32,1,16.58,6.44Z"/><path class="cls-8" d="M502.69,217.56l-4.14,6.88Z"/><path class="cls-7" d="M281.4,52.29Q279.69,54.6,278,56.9C279.11,55.36,280.26,53.83,281.4,52.29Z"/><path class="cls-9" d="M394.51,200.05c-.45-.52-.9-1-1.36-1.55Z"/><path class="cls-10" d="M479.62,225.31c0-.33.07-.66.1-1a3.9,3.9,0,0,1,.24.73C480,225.12,479.74,225.22,479.62,225.31Z"/><path class="cls-7" d="M278.23,66.67c.19-.2.39-.4.59-.59A.94.94,0,0,1,278.23,66.67Z"/><path class="cls-8" d="M503.64,216.4c-.34.38-.67.77-1,1.15C503,217.17,503.3,216.78,503.64,216.4Z"/><path class="cls-11" d="M1026.93,247.52l1.1-.38-.09,1.63Z"/></g></g></g></svg>