<svg xmlns="http://www.w3.org/2000/svg" viewBox="0 0 476.24 126.94"><defs><style>.cls-1{fill:#6634cb;}.cls-2{fill:#6633cb;}.cls-3{fill:#552dc1;}</style></defs><g id="Capa_2" data-name="Capa 2"><g id="Capa_2-2" data-name="Capa 2"><g id="yddzyq"><path class="cls-1" d="M348.06,8.94c4.8-4.38,10.48-6.12,16.74-6.25,3.24-.07,4.33,1,4.33,4.23,0,25.57.06,51.14-.09,76.7-.05,8.48-.66,17-4.92,24.63-6.66,12-16.64,18.67-30.56,18.69-7,0-14.74-6.26-16.55-13-.56-2.08.45-3.43,2.92-4.08,4.08-1.07,8.27-1.87,12.18-3.38,7.18-2.79,11.75-8,13.09-15.79.21-1.24.25-2.52.43-4.36-12,8.56-24.65,8.91-37.64,4.48a44.41,44.41,0,0,1-24.45-20A46.64,46.64,0,0,1,293,11.61C309.11-2.35,332.2-3.55,348.06,8.94ZM323.54,70.76c13,0,23.39-10.53,23.39-23.88S336.68,23.08,323.79,23a23.89,23.89,0,0,0-.25,47.77Z"/><path class="cls-1" d="M64.41,54.24c-4,9.25-7.7,17.87-11.5,26.43a30.5,30.5,0,0,1-3.55,6.18c-3.56,4.61-9.41,5.3-14.27,3.63-1.78-.6-3.34-3.07-4.15-5C26.9,75.68,23.14,65.8,19.3,56Q10,32.22.75,8.46c-1.67-4.28-.66-5.72,4-5.73h6.62c9.74,0,14.42,3.38,17.64,12.65Q34.87,32.17,40.73,49c.29.82.64,1.62,1.2,3,2.87-7.21,5.51-13.82,8.13-20.44,2.24-5.64,4.42-11.3,6.67-16.93C60.16,6,65,2.74,74.21,2.74c4.41,0,8.83,0,13.24,0,2,0,3.89.41,4.37,3.05-9.2,2.52-11,10.8-14,18.09a5.85,5.85,0,0,0,.08,4c3.3,7.95,6.78,15.83,10.45,24.32,2.9-6.42,5.52-12.23,8.15-18,3.1-6.87,6.23-13.73,9.3-20.61,3.3-7.41,8.77-11.34,17.09-10.91,2.2.11,4.41,0,6.62,0,4.91,0,5.89,1.6,3.78,6.15q-5.83,12.65-11.7,25.27Q110.93,57,100.31,79.92a43.31,43.31,0,0,1-3,5.58,12.93,12.93,0,0,1-14.24,5.42c-2.67-.65-3.83-2.69-4.8-4.91Q72.17,72,66.1,57.94C65.64,56.87,65.14,55.83,64.41,54.24Z"/><path class="cls-1" d="M429.52,93.45a46.64,46.64,0,1,1,0-93.28,46.64,46.64,0,1,1,0,93.28Zm0-22.68a23.89,23.89,0,1,0-23.8-23.87A23.69,23.69,0,0,0,429.51,70.77Z"/><path class="cls-1" d="M263.17,82.25c-.68,5.13-4.29,8.49-9.66,8.77-3,.15-6.07.09-9.1.06-3.43,0-4.39-1-4.39-4.5q0-23.72,0-47.44c0-1,0-2,0-3-.41-6.36-3.87-11-10.07-12.14a43.66,43.66,0,0,0-13.64-.28c-7.89,1.18-11.55,6-11.58,14-.06,13.61,0,27.22,0,40.82,0,.74,0,1.48,0,2.21-.22,6.07-4.19,10.11-10.3,10.37-2.66.12-5.33,0-8,0-4.42,0-5.16-.74-5.16-5.12,0-16.92,0-33.83,0-50.75a38.24,38.24,0,0,1,.58-6.85c2.11-11.5,8.77-19.54,19.43-24a53,53,0,0,1,42.38,0c11.75,5,18.58,14,19.54,27.05a14.29,14.29,0,0,0-.47,2.62q0,22.77,0,45.53A14.1,14.1,0,0,0,263.17,82.25Z"/><path class="cls-2" d="M165.14,44.05q0,17.81,0,35.6c0,7.48-3.88,11.35-11.41,11.43-2.3,0-4.6,0-6.9,0-4.18,0-5-.84-5-5q0-23.6,0-47.19c0-7.09,0-14.17,0-21.25.06-9.24,5.8-14.88,15.05-14.95,8.87-.07,8.33-.26,8.31,8.21C165.12,22,165.14,33,165.14,44.05Z"/><path class="cls-3" d="M263.17,82.25a14.1,14.1,0,0,1-.49-2.61q0-22.77,0-45.53a14.29,14.29,0,0,1,.47-2.62c.07,3.57.19,7.13.19,10.69q0,18.54,0,37.07C263.34,80.25,263.23,81.25,263.17,82.25Z"/></g></g></g></svg>